<svg width="20" height="20" viewBox="0 0 20 20" fill="none" xmlns="http://www.w3.org/2000/svg">
  <path
    d="M6.22618 12.8899L9.11611 9.99994L6.2263 7.11012L7.11018 6.22624L10 9.11606L12.8898 6.22624L13.7737 7.11012L10.8839 9.99994L13.7738 12.8899L12.8899 13.7738L10 10.8838L7.11006 13.7738L6.22618 12.8899Z"
    fill="white" />
  <path
    d="M10 1.25C14.8325 1.25 18.75 5.16751 18.75 10C18.75 14.8325 14.8325 18.75 10 18.75C5.16751 18.75 1.25 14.8325 1.25 10C1.25 5.16751 5.16751 1.25 10 1.25ZM10 2.5C5.85787 2.5 2.5 5.85786 2.5 10C2.5 14.1421 5.85786 17.5 10 17.5C14.1421 17.5 17.5 14.1421 17.5 10C17.5 5.85787 14.1421 2.5 10 2.5Z"
    fill="white" />
</svg>
