<svg width="20" height="20" viewBox="0 0 20 20" fill="none" xmlns="http://www.w3.org/2000/svg">
  <path
    d="M13.4911 7.75884L9.99995 11.25L6.50879 7.75884L5.62491 8.64272L9.99995 13.0178L14.375 8.64272L13.4911 7.75884Z"
    fill="white" />
  <path
    d="M1.25 10C1.25 5.16751 5.16751 1.25 10 1.25C14.8325 1.25 18.75 5.16751 18.75 10C18.75 14.8325 14.8325 18.75 10 18.75C5.16751 18.75 1.25 14.8325 1.25 10ZM2.5 10C2.5 14.1421 5.85786 17.5 10 17.5C14.1421 17.5 17.5 14.1421 17.5 10C17.5 5.85786 14.1421 2.5 10 2.5C5.85787 2.5 2.5 5.85786 2.5 10Z"
    fill="white" />
</svg>
