<svg width="22" height="23" viewBox="0 0 22 23" fill="none" xmlns="http://www.w3.org/2000/svg">
  <g clip-path="url(#clip0_6538_12267)">
    <path
      d="M21.5 11.5C21.5 5.70101 16.799 1 11 1C5.20101 1 0.5 5.70101 0.5 11.5C0.5 17.299 5.20101 22 11 22C16.799 22 21.5 17.299 21.5 11.5Z"
      fill="white" />
    <path
      d="M21.5 11.5C21.5 5.70101 16.799 1 11 1C5.20101 1 0.5 5.70101 0.5 11.5C0.5 17.299 5.20101 22 11 22C16.799 22 21.5 17.299 21.5 11.5Z"
      stroke="#060613" />
    <path
      d="M13.8586 10.6112L9.36445 15.1063C9.08424 15.3865 8.72637 15.5761 8.3371 15.6503L7.22284 15.8622C6.87641 15.9281 6.57227 15.6246 6.63788 15.2782L6.8498 14.1639C6.92392 13.7746 7.11349 13.4159 7.39374 13.1356L11.8879 8.64049L13.8586 10.6112ZM13.1213 7.40806C13.6654 6.86393 14.5478 6.86402 15.092 7.40806C15.6362 7.95224 15.6362 8.83459 15.092 9.37877L14.3889 10.0809L12.4182 8.11021L13.1213 7.40806Z"
      fill="#52535C" />
    <path d="M7.5 15.625H16" stroke="#52535C" stroke-width="0.75" stroke-linecap="round" />
  </g>
  <defs>
    <clipPath id="clip0_6538_12267">
      <rect width="22" height="22" fill="white" transform="translate(0 0.5)" />
    </clipPath>
  </defs>
</svg>
