<svg width="20" height="20" viewBox="0 0 20 20" fill="none" xmlns="http://www.w3.org/2000/svg">
<path d="M4.21249 2.70633C4.15761 2.64446 4.09099 2.5941 4.01649 2.55816C3.942 2.52223 3.86111 2.50144 3.77853 2.497C3.69594 2.49255 3.61329 2.50455 3.53537 2.53228C3.45746 2.56001 3.38582 2.60294 3.32461 2.65856C3.2634 2.71418 3.21384 2.7814 3.17881 2.85632C3.14377 2.93124 3.12395 3.01237 3.1205 3.095C3.11704 3.17764 3.13003 3.26014 3.15869 3.33772C3.18736 3.4153 3.23114 3.48642 3.28749 3.54695L4.79062 5.20086C1.95312 6.94226 0.732805 9.62664 0.678899 9.74851C0.643362 9.82845 0.625 9.91495 0.625 10.0024C0.625 10.0899 0.643362 10.1764 0.678899 10.2563C0.706243 10.318 1.36796 11.7852 2.83905 13.2563C4.79921 15.2157 7.27499 16.2516 9.99999 16.2516C11.4005 16.2596 12.7868 15.9713 14.068 15.4055L15.7867 17.297C15.8416 17.3588 15.9082 17.4092 15.9827 17.4451C16.0572 17.481 16.1381 17.5018 16.2207 17.5063C16.3033 17.5107 16.3859 17.4987 16.4638 17.471C16.5417 17.4433 16.6134 17.4003 16.6746 17.3447C16.7358 17.2891 16.7854 17.2219 16.8204 17.147C16.8554 17.072 16.8753 16.9909 16.8787 16.9083C16.8822 16.8256 16.8692 16.7431 16.8405 16.6656C16.8118 16.588 16.7681 16.5169 16.7117 16.4563L4.21249 2.70633ZM7.91015 8.63133L11.1656 12.2134C10.6754 12.4713 10.1134 12.559 9.56783 12.4629C9.02229 12.3668 8.52413 12.0922 8.15157 11.6823C7.77901 11.2723 7.55314 10.7503 7.50945 10.1981C7.46575 9.64584 7.6067 9.09476 7.91015 8.63133ZM9.99999 15.0016C7.5953 15.0016 5.49452 14.1274 3.75546 12.404C3.04164 11.6946 2.43454 10.8854 1.95312 10.0016C2.31952 9.31492 3.48905 7.39305 5.65234 6.14383L7.05859 7.6868C6.51416 8.38406 6.23377 9.25135 6.26697 10.1354C6.30017 11.0194 6.64483 11.8632 7.24002 12.5177C7.83521 13.1721 8.64261 13.5951 9.51952 13.7118C10.3964 13.8286 11.2864 13.6315 12.032 13.1555L13.1828 14.4212C12.1672 14.8108 11.0878 15.0077 9.99999 15.0016ZM10.4687 7.54617C10.3059 7.51509 10.162 7.42059 10.0689 7.28345C9.97568 7.14632 9.94079 6.97778 9.97187 6.81492C10.0029 6.65206 10.0975 6.50822 10.2346 6.41504C10.3717 6.32185 10.5403 6.28697 10.7031 6.31805C11.4997 6.47247 12.225 6.88027 12.7708 7.48061C13.3167 8.08096 13.6539 8.84167 13.732 9.6493C13.7475 9.81433 13.6967 9.97874 13.5909 10.1063C13.4851 10.234 13.333 10.3143 13.168 10.3298C13.1484 10.3309 13.1289 10.3309 13.1094 10.3298C12.9532 10.3304 12.8024 10.2726 12.6867 10.1676C12.571 10.0626 12.4988 9.91812 12.4844 9.76258C12.4318 9.22539 12.2072 8.71952 11.844 8.32019C11.4809 7.92086 10.9985 7.6494 10.4687 7.54617ZM19.3187 10.2563C19.2859 10.3298 18.4945 12.0821 16.7125 13.6782C16.6516 13.7345 16.5801 13.7781 16.5022 13.8065C16.4243 13.8348 16.3415 13.8474 16.2587 13.8435C16.1759 13.8396 16.0947 13.8192 16.0198 13.7836C15.9449 13.748 15.8779 13.6978 15.8226 13.6361C15.7673 13.5743 15.7249 13.5021 15.6977 13.4238C15.6706 13.3454 15.6593 13.2625 15.6645 13.1797C15.6698 13.097 15.6914 13.0161 15.7282 12.9418C15.765 12.8675 15.8162 12.8013 15.8789 12.747C16.7532 11.9615 17.4876 11.0332 18.0508 10.0016C17.5683 9.11709 16.9599 8.30733 16.2445 7.59773C14.5055 5.87586 12.4047 5.00164 9.99999 5.00164C9.49332 5.00102 8.98745 5.04204 8.48749 5.1243C8.40619 5.13867 8.32284 5.1368 8.24227 5.11878C8.1617 5.10077 8.08549 5.06697 8.01805 5.01933C7.95062 4.97169 7.89329 4.91117 7.84938 4.84125C7.80547 4.77133 7.77584 4.69341 7.76222 4.61197C7.7486 4.53054 7.75124 4.44722 7.77 4.36682C7.78877 4.28641 7.82327 4.21052 7.87153 4.14353C7.91979 4.07654 7.98085 4.01977 8.05117 3.97651C8.12149 3.93325 8.19969 3.90435 8.28124 3.89148C8.84934 3.79768 9.4242 3.75091 9.99999 3.75164C12.725 3.75164 15.2008 4.78758 17.1609 6.74773C18.632 8.21883 19.2937 9.6868 19.3211 9.74851C19.3566 9.82845 19.375 9.91495 19.375 10.0024C19.375 10.0899 19.3566 10.1764 19.3211 10.2563H19.3187Z" fill="#70717D"/>
</svg>
