<svg width="190" height="154" viewBox="0 0 190 154" fill="none" xmlns="http://www.w3.org/2000/svg">
<rect x="37.6853" y="92.5" width="128" height="61" fill="#19192A" stroke="white"/>
<rect x="37.5" y="87.5" width="129" height="5" fill="#19192A" stroke="white"/>
<rect x="95.6853" y="92.5" width="12" height="61" fill="#19192A" stroke="#FFD500"/>
<circle cx="34" cy="92" r="33.5" fill="#19192A" stroke="#FFD500"/>
<mask id="path-5-inside-1_8104_13928" fill="white">
<path d="M140.081 24.0645C151.813 27.2082 158.776 39.2681 155.632 51.0005C152.601 62.3132 141.28 69.1892 129.956 66.8483L129.946 66.886L84.961 54.8322L84.9711 54.7945C73.9938 51.1598 67.628 39.5448 70.6591 28.232C73.8028 16.4996 85.8627 9.53684 97.5951 12.6805C108.908 15.712 115.785 27.0326 113.444 38.3566L113.517 38.3763C117.152 27.3992 128.768 21.0338 140.081 24.0645ZM94.47 24.3433C89.179 22.9256 83.7396 26.066 82.3219 31.3571C80.9551 36.4588 83.826 41.697 88.7763 43.3362L88.7718 43.3532L98.9159 46.0713L101.634 35.9272L101.617 35.9226C102.673 30.8159 99.5717 25.7105 94.47 24.3433ZM136.956 35.7273C131.854 34.3608 126.616 37.2316 124.977 42.1818L124.96 42.1772L122.241 52.3214L132.386 55.0395L132.39 55.0225C137.497 56.0781 142.602 52.9771 143.969 47.8755C145.387 42.5844 142.247 37.1451 136.956 35.7273Z"/>
</mask>
<path d="M140.081 24.0645C151.813 27.2082 158.776 39.2681 155.632 51.0005C152.601 62.3132 141.28 69.1892 129.956 66.8483L129.946 66.886L84.961 54.8322L84.9711 54.7945C73.9938 51.1598 67.628 39.5448 70.6591 28.232C73.8028 16.4996 85.8627 9.53684 97.5951 12.6805C108.908 15.712 115.785 27.0326 113.444 38.3566L113.517 38.3763C117.152 27.3992 128.768 21.0338 140.081 24.0645ZM94.47 24.3433C89.179 22.9256 83.7396 26.066 82.3219 31.3571C80.9551 36.4588 83.826 41.697 88.7763 43.3362L88.7718 43.3532L98.9159 46.0713L101.634 35.9272L101.617 35.9226C102.673 30.8159 99.5717 25.7105 94.47 24.3433ZM136.956 35.7273C131.854 34.3608 126.616 37.2316 124.977 42.1818L124.96 42.1772L122.241 52.3214L132.386 55.0395L132.39 55.0225C137.497 56.0781 142.602 52.9771 143.969 47.8755C145.387 42.5844 142.247 37.1451 136.956 35.7273Z" fill="#19192A"/>
<path d="M140.081 24.0645L140.34 23.0986L140.34 23.0986L140.081 24.0645ZM155.632 51.0005L156.598 51.2594L156.598 51.2594L155.632 51.0005ZM129.956 66.8483L130.159 65.869L129.235 65.6779L128.991 66.5895L129.956 66.8483ZM129.946 66.886L129.688 67.8519L130.653 68.1108L130.912 67.1448L129.946 66.886ZM84.961 54.8322L83.9951 54.5734L83.7362 55.5393L84.7022 55.7981L84.961 54.8322ZM84.9711 54.7945L85.937 55.0533L86.1813 54.1418L85.2854 53.8452L84.9711 54.7945ZM70.6591 28.232L69.6931 27.9732L69.6931 27.9732L70.6591 28.232ZM97.5951 12.6805L97.8539 11.7146L97.8539 11.7146L97.5951 12.6805ZM113.444 38.3566L112.464 38.1541L112.273 39.0783L113.185 39.3225L113.444 38.3566ZM113.517 38.3763L113.259 39.3422L114.17 39.5865L114.467 38.6906L113.517 38.3763ZM94.47 24.3433L94.7289 23.3774L94.7289 23.3774L94.47 24.3433ZM82.3219 31.3571L81.3559 31.0983L81.3559 31.0983L82.3219 31.3571ZM88.7763 43.3362L89.7423 43.595L89.9865 42.6835L89.0907 42.3869L88.7763 43.3362ZM88.7718 43.3532L87.8059 43.0944L87.547 44.0603L88.513 44.3191L88.7718 43.3532ZM98.9159 46.0713L98.6571 47.0372L99.623 47.296L99.8818 46.3301L98.9159 46.0713ZM101.634 35.9272L102.6 36.186L102.859 35.2201L101.893 34.9612L101.634 35.9272ZM101.617 35.9226L100.638 35.7202L100.447 36.6443L101.358 36.8885L101.617 35.9226ZM136.956 35.7273L137.215 34.7614L137.214 34.7614L136.956 35.7273ZM124.977 42.1818L124.718 43.1477L125.629 43.392L125.926 42.4961L124.977 42.1818ZM124.96 42.1772L125.218 41.2113L124.252 40.9525L123.994 41.9184L124.96 42.1772ZM122.241 52.3214L121.276 52.0625L121.017 53.0285L121.983 53.2873L122.241 52.3214ZM132.386 55.0395L132.127 56.0054L133.093 56.2642L133.352 55.2983L132.386 55.0395ZM132.39 55.0225L132.593 54.0432L131.668 53.8522L131.424 54.7637L132.39 55.0225ZM143.969 47.8755L144.935 48.1344L144.935 48.1343L143.969 47.8755ZM140.081 24.0645L139.822 25.0305C151.021 28.0312 157.667 39.5428 154.666 50.7417L155.632 51.0005L156.598 51.2594C159.885 38.9935 152.605 26.3852 140.34 23.0986L140.081 24.0645ZM155.632 51.0005L154.666 50.7417C151.773 61.5395 140.967 68.1033 130.159 65.869L129.956 66.8483L129.754 67.8276C141.594 70.2751 153.429 63.0869 156.598 51.2594L155.632 51.0005ZM129.956 66.8483L128.991 66.5895L128.98 66.6272L129.946 66.886L130.912 67.1448L130.922 67.1071L129.956 66.8483ZM129.946 66.886L130.205 65.9201L85.2198 53.8663L84.961 54.8322L84.7022 55.7981L129.688 67.8519L129.946 66.886ZM84.961 54.8322L85.9269 55.091L85.937 55.0533L84.9711 54.7945L84.0052 54.5357L83.9951 54.5734L84.961 54.8322ZM84.9711 54.7945L85.2854 53.8452C74.808 50.376 68.7319 39.2888 71.625 28.4908L70.6591 28.232L69.6931 27.9732C66.5242 39.8008 73.1796 51.9436 84.6568 55.7438L84.9711 54.7945ZM70.6591 28.232L71.625 28.4909C74.6257 17.2919 86.1373 10.6457 97.3363 13.6465L97.5951 12.6805L97.8539 11.7146C85.588 8.42797 72.9798 15.7074 69.6931 27.9732L70.6591 28.232ZM97.5951 12.6805L97.3362 13.6465C108.134 16.5399 114.699 27.3459 112.464 38.1541L113.444 38.3566L114.423 38.559C116.871 26.7194 109.681 14.884 97.8539 11.7146L97.5951 12.6805ZM113.444 38.3566L113.185 39.3225L113.259 39.3422L113.517 38.3763L113.776 37.4104L113.703 37.3907L113.444 38.3566ZM113.517 38.3763L114.467 38.6906C117.936 28.2134 129.024 22.1376 139.822 25.0305L140.081 24.0645L140.34 23.0986C128.512 19.9299 116.368 26.5849 112.568 38.062L113.517 38.3763ZM94.47 24.3433L94.7289 23.3774C88.9043 21.8167 82.9166 25.2737 81.3559 31.0983L82.3219 31.3571L83.2878 31.6159C84.5626 26.8583 89.4536 24.0345 94.2112 25.3093L94.47 24.3433ZM82.3219 31.3571L81.3559 31.0983C79.8512 36.7149 83.0118 42.4808 88.462 44.2855L88.7763 43.3362L89.0907 42.3869C84.6402 40.9132 82.0589 36.2028 83.2878 31.6159L82.3219 31.3571ZM88.7763 43.3362L87.8104 43.0774L87.8059 43.0944L88.7718 43.3532L89.7377 43.612L89.7423 43.595L88.7763 43.3362ZM88.7718 43.3532L88.513 44.3191L98.6571 47.0372L98.9159 46.0713L99.1747 45.1054L89.0306 42.3872L88.7718 43.3532ZM98.9159 46.0713L99.8818 46.3301L102.6 36.186L101.634 35.9272L100.668 35.6684L97.95 45.8125L98.9159 46.0713ZM101.634 35.9272L101.893 34.9612L101.876 34.9567L101.617 35.9226L101.358 36.8885L101.375 36.8931L101.634 35.9272ZM101.617 35.9226L102.596 36.125C103.759 30.5027 100.345 24.8826 94.7289 23.3774L94.47 24.3433L94.2112 25.3092C98.798 26.5385 101.587 31.1291 100.638 35.7202L101.617 35.9226ZM136.956 35.7273L137.214 34.7614C131.598 33.257 125.832 36.4173 124.027 41.8675L124.977 42.1818L125.926 42.4961C127.4 38.0458 132.11 35.4646 136.697 36.6933L136.956 35.7273ZM124.977 42.1818L125.235 41.2159L125.218 41.2113L124.96 42.1772L124.701 43.1432L124.718 43.1477L124.977 42.1818ZM124.96 42.1772L123.994 41.9184L121.276 52.0625L122.241 52.3214L123.207 52.5802L125.926 42.4361L124.96 42.1772ZM122.241 52.3214L121.983 53.2873L132.127 56.0054L132.386 55.0395L132.644 54.0735L122.5 51.3554L122.241 52.3214ZM132.386 55.0395L133.352 55.2983L133.356 55.2813L132.39 55.0225L131.424 54.7637L131.42 54.7806L132.386 55.0395ZM132.39 55.0225L132.188 56.0018C137.81 57.1639 143.43 53.7508 144.935 48.1344L143.969 47.8755L143.004 47.6166C141.774 52.2034 137.184 54.9922 132.593 54.0432L132.39 55.0225ZM143.969 47.8755L144.935 48.1343C146.496 42.3098 143.039 36.3221 137.215 34.7614L136.956 35.7273L136.697 36.6933C141.454 37.9681 144.278 42.8591 143.004 47.6167L143.969 47.8755Z" fill="white" mask="url(#path-5-inside-1_8104_13928)"/>
<rect x="42.5301" y="30.8233" width="140.037" height="19" transform="rotate(15 42.5301 30.8233)" fill="#19192A" stroke="white"/>
<path d="M151 28.5C152.933 28.5 154.5 30.067 154.5 32C154.5 33.9331 152.933 35.5 151 35.5C149.067 35.5 147.5 33.9331 147.5 32C147.5 30.067 149.067 28.5 151 28.5Z" fill="#FFD500" stroke="#19192A" stroke-width="3"/>
<path d="M74.0002 18.5C75.9332 18.5 77.5002 20.067 77.5002 22C77.5002 23.9331 75.9332 25.5 74.0002 25.5C72.0673 25.5 70.5002 23.9331 70.5002 22C70.5002 20.067 72.0673 18.5 74.0002 18.5Z" fill="#FFD500" stroke="#19192A" stroke-width="3"/>
<path d="M10 65.5C11.933 65.5 13.5 67.067 13.5 69C13.5 70.9331 11.9329 72.5 10 72.5C8.06708 72.5 6.5 70.9331 6.5 69C6.5 67.067 8.06704 65.5 10 65.5Z" fill="#FFD500" stroke="#19192A" stroke-width="3"/>
<path d="M166 118.5C167.933 118.5 169.5 120.067 169.5 122C169.5 123.933 167.933 125.5 166 125.5C164.067 125.5 162.5 123.933 162.5 122C162.5 120.067 164.067 118.5 166 118.5Z" fill="#FFD500" stroke="#19192A" stroke-width="3"/>
<path d="M106 63.5C107.933 63.5 109.5 65.067 109.5 67C109.5 68.9331 107.933 70.5 106 70.5C104.067 70.5 102.5 68.9331 102.5 67C102.5 65.067 104.067 63.5 106 63.5Z" fill="#FFD500" stroke="#19192A" stroke-width="3"/>
<path d="M46.2318 84.8889V79H21.8243V84.8889H30.8226V88.7362C23.508 89.0612 18 90.4855 18 92.1945C18 93.9035 23.5079 95.3278 30.8226 95.6528V108H37.2336V95.6499C44.52 95.32 50 93.8982 50 92.1944C50 90.4904 44.52 89.0682 37.2336 88.7388V84.8888H46.2318V84.8889ZM47.2443 91.8466C47.2443 92.9705 42.9853 93.9133 37.2336 94.1751L36.8619 94.1907H36.8208L36.4723 94.2033H36.4346C36.1753 94.2121 35.9129 94.2196 35.6473 94.2255H35.6308L35.2744 94.2328H35.1736L34.8924 94.2366H33.1114L32.833 94.2328H32.7363L32.4038 94.226H32.3673C31.9732 94.2173 31.585 94.2053 31.2025 94.1907H31.1975L30.8168 94.1744C25.0365 93.9166 20.75 92.9705 20.75 91.8412C20.75 90.7116 25.0372 89.7684 30.8168 89.5077V93.0794C31.8201 93.1311 32.8874 93.1594 33.9944 93.1594C35.119 93.1594 36.2078 93.1306 37.2281 93.0766V89.5184C42.9847 89.7794 47.2443 90.7227 47.2443 91.8466Z" fill="#FFD500"/>
</svg>
