<svg width="71" height="70" viewBox="0 0 71 70" fill="none" xmlns="http://www.w3.org/2000/svg">
<path d="M54.9581 60C57.9026 60 27.5967 60 16.487 60C14.2779 60 12.5 58.2091 12.5 56V14C12.5 11.7909 14.2909 10 16.5 10H47.36C49.5691 10 51.36 11.7909 51.36 14V21.3181M51.36 56.0234V45.178" stroke="white" stroke-width="1.8"/>
<rect y="1.10758" width="7.89081" height="1.56632" rx="0.783161" transform="matrix(0.707093 0.707121 -0.707093 0.707121 53.1505 36.1174)" stroke="#FFD500" stroke-width="1.56632"/>
<path d="M49.0188 27.6895C52.5011 27.6895 55.3245 30.5126 55.3245 33.9951C55.3242 37.4774 52.5009 40.2998 49.0188 40.2998C45.5368 40.2997 42.7144 37.4773 42.7141 33.9951C42.7141 30.5127 45.5366 27.6896 49.0188 27.6895Z" fill="#060613" stroke="#FFD500" stroke-width="1.8"/>
<path d="M51.3605 54.9395H58.5907V56.3855C58.5907 58.3821 56.9722 60.0006 54.9756 60.0006V60.0006C52.979 60.0006 51.3605 58.3821 51.3605 56.3855V54.9395Z" stroke="white" stroke-width="1.8"/>
<path d="M22.6226 22.6816H37.8061" stroke="white" stroke-width="1.8" stroke-linecap="round"/>
<path d="M22.6226 30.0508H37.8061" stroke="white" stroke-width="1.8" stroke-linecap="round"/>
<path d="M22.6226 37.4199L38.3621 37.5868" stroke="white" stroke-width="1.8" stroke-linecap="round"/>
<path d="M22.8448 45.3457H43.5345" stroke="white" stroke-width="1.8" stroke-linecap="round"/>
</svg>
