<svg width="16" height="16" viewBox="0 0 16 16" fill="none" xmlns="http://www.w3.org/2000/svg">
  <path
    d="M14.6668 8.00004C14.6668 11.6819 11.6821 14.6667 8.00016 14.6667C4.31826 14.6667 1.3335 11.6819 1.3335 8.00004C1.3335 4.31814 4.31826 1.33337 8.00016 1.33337C11.6821 1.33337 14.6668 4.31814 14.6668 8.00004Z"
    fill="#353649" />
  <path
    d="M9.53215 5.76083C9.72742 5.56565 10.0439 5.56559 10.2392 5.76083C10.4343 5.95607 10.4343 6.27264 10.2392 6.46786L8.70695 8.00008L10.2392 9.53231C10.4341 9.7276 10.4343 10.0442 10.2392 10.2393C10.044 10.4344 9.72741 10.4343 9.53215 10.2393L7.99992 8.70712L6.46769 10.2393C6.27247 10.4344 5.95588 10.4344 5.76066 10.2393C5.56545 10.0441 5.56556 9.72759 5.76066 9.53231L7.29289 8.00008L5.76066 6.46786C5.56543 6.27262 5.56548 5.9561 5.76066 5.76083C5.95592 5.56556 6.27243 5.56556 6.46769 5.76083L7.99992 7.29305L9.53215 5.76083Z"
    fill="white" />
</svg>
