<svg width="44" height="24" viewBox="0 0 44 24" fill="none" xmlns="http://www.w3.org/2000/svg">
  <g filter="url(#filter0_i_741_16917)">
    <path fill-rule="evenodd" clip-rule="evenodd"
      d="M12 0C5.37258 0 0 5.37258 0 12C0 18.6274 5.37258 24 12 24H32C38.6274 24 44 18.6274 44 12C44 5.37258 38.6274 0 32 0H12Z"
      fill="#F31524" />
    <path fill-rule="evenodd" clip-rule="evenodd"
      d="M12 0C5.37258 0 0 5.37258 0 12C0 18.6274 5.37258 24 12 24H32C38.6274 24 44 18.6274 44 12C44 5.37258 38.6274 0 32 0H12Z"
      fill="url(#paint0_radial_741_16917)" fill-opacity="0.699" />
    <path fill-rule="evenodd" clip-rule="evenodd"
      d="M12 0C5.37258 0 0 5.37258 0 12C0 18.6274 5.37258 24 12 24H32C38.6274 24 44 18.6274 44 12C44 5.37258 38.6274 0 32 0H12Z"
      fill="url(#paint1_radial_741_16917)" fill-opacity="0.7" />
  </g>
  <defs>
    <filter id="filter0_i_741_16917" x="-1" y="-4" width="45" height="28" filterUnits="userSpaceOnUse"
      color-interpolation-filters="sRGB">
      <feFlood flood-opacity="0" result="BackgroundImageFix" />
      <feBlend mode="normal" in="SourceGraphic" in2="BackgroundImageFix" result="shape" />
      <feColorMatrix in="SourceAlpha" type="matrix" values="0 0 0 0 0 0 0 0 0 0 0 0 0 0 0 0 0 0 127 0"
        result="hardAlpha" />
      <feOffset dx="-1" dy="-4" />
      <feGaussianBlur stdDeviation="3.15" />
      <feComposite in2="hardAlpha" operator="arithmetic" k2="-1" k3="1" />
      <feColorMatrix type="matrix" values="0 0 0 0 1 0 0 0 0 1 0 0 0 0 1 0 0 0 0.15 0" />
      <feBlend mode="normal" in2="shape" result="effect1_innerShadow_741_16917" />
    </filter>
    <radialGradient id="paint0_radial_741_16917" cx="0" cy="0" r="1" gradientUnits="userSpaceOnUse"
      gradientTransform="translate(7.5 7) rotate(34.095) scale(39.246 47.0194)">
      <stop stop-color="white" stop-opacity="0.74" />
      <stop offset="0.28461" stop-color="white" stop-opacity="0.05" />
      <stop offset="0.565649" stop-color="white" stop-opacity="0" />
      <stop offset="0.915894" stop-color="white" stop-opacity="0" />
    </radialGradient>
    <radialGradient id="paint1_radial_741_16917" cx="0" cy="0" r="1" gradientUnits="userSpaceOnUse"
      gradientTransform="translate(22 17) rotate(90) scale(7 22.9504)">
      <stop stop-opacity="0.2" />
      <stop offset="1" stop-opacity="0" />
    </radialGradient>
  </defs>
</svg>
