<svg width="20" height="20" viewBox="0 0 20 20" fill="none" xmlns="http://www.w3.org/2000/svg">
  <path
    d="M17.5583 4.35768C16.2166 4.22435 14.8749 4.12435 13.5249 4.04935V4.04102L13.3416 2.95768C13.2166 2.19102 13.0333 1.04102 11.0833 1.04102H8.89993C6.95826 1.04102 6.77493 2.14102 6.64159 2.94935L6.46659 4.01602C5.69159 4.06602 4.91659 4.11602 4.14159 4.19102L2.44159 4.35768C2.09159 4.39102 1.84159 4.69935 1.87493 5.04102C1.90826 5.38268 2.20826 5.63268 2.55826 5.59935L4.25826 5.43268C8.62493 4.99935 13.0249 5.16602 17.4416 5.60768C17.4666 5.60768 17.4833 5.60768 17.5083 5.60768C17.8249 5.60768 18.0999 5.36602 18.1333 5.04102C18.1583 4.69935 17.9083 4.39102 17.5583 4.35768Z"
    fill="white" />
  <path opacity="0.3991"
    d="M16.025 6.78398C15.825 6.57565 15.55 6.45898 15.2666 6.45898H4.73329C4.44995 6.45898 4.16662 6.57565 3.97495 6.78398C3.78329 6.99232 3.67495 7.27565 3.69162 7.56732L4.20829 16.1173C4.29995 17.384 4.41662 18.9673 7.32495 18.9673H12.675C15.5833 18.9673 15.7 17.3923 15.7916 16.1173L16.3083 7.57565C16.325 7.27565 16.2166 6.99232 16.025 6.78398Z"
    fill="white" />
  <path fill-rule="evenodd" clip-rule="evenodd"
    d="M7.98328 14.166C7.98328 13.8208 8.2631 13.541 8.60828 13.541H11.3833C11.7285 13.541 12.0083 13.8208 12.0083 14.166C12.0083 14.5112 11.7285 14.791 11.3833 14.791H8.60828C8.2631 14.791 7.98328 14.5112 7.98328 14.166Z"
    fill="white" />
  <path fill-rule="evenodd" clip-rule="evenodd"
    d="M7.29163 10.834C7.29163 10.4888 7.57145 10.209 7.91663 10.209H12.0833C12.4285 10.209 12.7083 10.4888 12.7083 10.834C12.7083 11.1792 12.4285 11.459 12.0833 11.459H7.91663C7.57145 11.459 7.29163 11.1792 7.29163 10.834Z"
    fill="white" />
</svg>
