<svg width="25" height="24" viewBox="0 0 25 24" fill="none" xmlns="http://www.w3.org/2000/svg">
  <g clip-path="url(#clip0_4062_5480)">
    <path
      d="M12.5 24C19.1274 24 24.5 18.6274 24.5 12C24.5 5.37258 19.1274 0 12.5 0C5.87258 0 0.5 5.37258 0.5 12C0.5 18.6274 5.87258 24 12.5 24Z"
      fill="#26A17B" />
    <path fill-rule="evenodd" clip-rule="evenodd"
      d="M13.9415 13.0382V13.0367C13.859 13.0427 13.4338 13.0682 12.485 13.0682C11.7275 13.0682 11.1943 13.0457 11.0068 13.0367V13.039C8.09076 12.9107 5.91426 12.403 5.91426 11.7955C5.91426 11.1887 8.09076 10.681 11.0068 10.5505V12.5335C11.1973 12.547 11.7433 12.5792 12.4978 12.5792C13.403 12.5792 13.8568 12.5417 13.9415 12.5342V10.552C16.8515 10.6817 19.0228 11.1895 19.0228 11.7955C19.0228 12.403 16.8515 12.9092 13.9415 13.0382ZM13.9415 10.3457V8.57123H18.002V5.86523H6.94626V8.57123H11.0068V10.345C7.70676 10.4965 5.22501 11.1505 5.22501 11.9335C5.22501 12.7165 7.70676 13.3697 11.0068 13.522V19.2085H13.9415V13.5205C17.2363 13.369 19.712 12.7157 19.712 11.9335C19.712 11.1512 17.2363 10.498 13.9415 10.3457Z"
      fill="white" />
  </g>
  <defs>
    <clipPath id="clip0_4062_5480">
      <rect width="24" height="24" fill="white" transform="translate(0.5)" />
    </clipPath>
  </defs>
</svg>
