<svg width="100" height="100" viewBox="0 0 100 100" fill="none" xmlns="http://www.w3.org/2000/svg">
  <g clip-path="url(#clip0_4245_11111)">
    <g opacity="0.2">
      <path
        d="M50 100C77.6142 100 100 77.6142 100 50C100 22.3858 77.6142 0 50 0C22.3858 0 0 22.3858 0 50C0 77.6142 22.3858 100 50 100Z"
        fill="#FF0000" fill-opacity="0.6" />
    </g>
    <path
      d="M50.0001 83.3327C68.4096 83.3327 83.3334 68.4088 83.3334 49.9993C83.3334 31.5899 68.4096 16.666 50.0001 16.666C31.5906 16.666 16.6667 31.5899 16.6667 49.9993C16.6667 68.4088 31.5906 83.3327 50.0001 83.3327Z"
      fill="#FF4444" />
    <path
      d="M62.8363 38.1479C62.6907 37.804 62.4447 37.5124 62.1307 37.3109C61.8165 37.1093 61.4489 37.0074 61.0757 37.0184C60.5945 37.0327 60.1381 37.2337 59.8027 37.5791L50.0001 47.3811L40.1976 37.5791C40.025 37.4017 39.8187 37.2607 39.5907 37.1644C39.3625 37.068 39.1175 37.0184 38.8702 37.0184C38.5018 37.0184 38.1417 37.1286 37.8361 37.3342C37.5306 37.5399 37.2931 37.8324 37.1546 38.1737C37.0158 38.5149 36.9823 38.8897 37.0577 39.2504C37.1333 39.611 37.3146 39.9408 37.5789 40.1976L47.3812 49.9999L37.5789 59.8017C37.4009 59.9724 37.2591 60.1768 37.1614 60.403C37.0637 60.6292 37.012 60.8725 37.0094 61.1188C37.007 61.3653 37.0535 61.6097 37.1469 61.8377C37.2398 62.066 37.3775 62.2733 37.5519 62.4473C37.7262 62.6215 37.9333 62.7592 38.1614 62.8524C38.3895 62.9457 38.634 62.9922 38.8803 62.9899C39.1269 62.9873 39.3703 62.9356 39.5963 62.8379C39.8227 62.7399 40.0269 62.5982 40.1976 62.4205L50.0001 52.6184L59.8027 62.4205C59.9733 62.5982 60.1776 62.7399 60.4039 62.8379C60.6299 62.9356 60.8733 62.9873 61.1199 62.9899C61.3662 62.9922 61.6108 62.9457 61.8388 62.8524C62.067 62.7592 62.274 62.6215 62.4483 62.4473C62.6227 62.2733 62.7604 62.066 62.8534 61.8377C62.9467 61.6097 62.9932 61.3653 62.9908 61.1188C62.9882 60.8725 62.9366 60.6292 62.8389 60.403C62.7412 60.1768 62.5991 59.9724 62.4213 59.8017L52.6191 49.9999L62.4213 40.1976C62.689 39.9376 62.8719 39.6026 62.9459 39.237C63.0199 38.8712 62.9815 38.4915 62.8363 38.1479Z"
      fill="white" />
  </g>
  <defs>
    <clipPath id="clip0_4245_11111">
      <rect width="100" height="100" fill="white" />
    </clipPath>
  </defs>
</svg>
