<svg width="45" height="44" viewBox="0 0 45 44" fill="none" xmlns="http://www.w3.org/2000/svg">
  <g clip-path="url(#clip0_741_12244)">
    <path
      d="M5.19112 11.0586H35.0158C37.9736 11.0586 39.4525 12.5375 39.4525 15.4953V33.3138C39.4525 36.2716 37.9736 37.7505 35.0158 37.7505H5.19112C2.2333 37.7505 0.754395 36.2716 0.754395 33.3138V15.4953C0.754395 12.5375 2.2333 11.0586 5.19112 11.0586Z"
      fill="#5377F8" />
    <path
      d="M7.62155 29.6958C8.99225 29.6958 10.3068 29.1513 11.276 28.1821C12.2453 27.2129 12.7898 25.8983 12.7898 24.5276C12.7898 23.1569 12.2453 21.8423 11.276 20.8731C10.3068 19.9039 8.99225 19.3594 7.62155 19.3594H0.719971V29.6958H7.62155Z"
      fill="#1C6AFF" />
    <path
      d="M16.0048 8.49855L14.5338 7.03157C13.8494 6.35205 12.9241 5.9707 11.9596 5.9707C10.9952 5.9707 10.0698 6.35205 9.38544 7.03157L5.37012 11.0588H13.4524L16.0048 8.49855Z"
      fill="#F72634" />
    <path
      d="M23.3833 6.27975C23.044 5.94029 22.6412 5.671 22.1978 5.48728C21.7544 5.30355 21.2791 5.20898 20.7992 5.20898C20.3192 5.20898 19.844 5.30355 19.4006 5.48728C18.9572 5.671 18.5544 5.94029 18.2151 6.27975L16.0047 8.49812L13.4404 11.0584H28.15L23.3833 6.27975Z"
      fill="#16C69C" />
    <path
      d="M5.33997 24.5881C5.33997 25.2745 5.61264 25.9328 6.098 26.4181C6.58336 26.9035 7.24165 27.1762 7.92806 27.1762C8.61446 27.1762 9.27275 26.9035 9.75811 26.4181C10.2435 25.9328 10.5161 25.2745 10.5161 24.5881C10.5161 24.2482 10.4492 23.9117 10.3191 23.5977C10.1891 23.2837 9.99844 22.9984 9.75811 22.758C9.51779 22.5177 9.23248 22.3271 8.91848 22.197C8.60448 22.0669 8.26793 22 7.92806 22C7.58818 22 7.25164 22.0669 6.93764 22.197C6.62364 22.3271 6.33833 22.5177 6.098 22.758C5.85767 22.9984 5.66704 23.2837 5.53697 23.5977C5.40691 23.9117 5.33997 24.2482 5.33997 24.5881Z"
      fill="white" />
    <path
      d="M44.22 31.4632C44.22 26.7429 40.4771 23 35.7568 23C31.2429 23 27.5 26.7429 27.5 31.4632C27.5 35.9771 31.2429 39.72 35.7568 39.72C40.4771 39.72 44.22 35.9771 44.22 31.4632Z"
      fill="#1C6AFF" />
    <path d="M31.86 31L39.86 31" stroke="white" stroke-width="1.5" stroke-linecap="round" />
  </g>
  <defs>
    <clipPath id="clip0_741_12244">
      <rect width="44" height="44" fill="white" transform="translate(0.5)" />
    </clipPath>
  </defs>
</svg>
