<svg width="40" height="40" viewBox="0 0 40 40" fill="none" xmlns="http://www.w3.org/2000/svg">
  <path
    d="M0 20C0 8.95431 8.95431 0 20 0C31.0457 0 40 8.95431 40 20C40 31.0457 31.0457 40 20 40C8.95431 40 0 31.0457 0 20Z"
    fill="#FFD500" />
  <path
    d="M29 20C29 20.1989 28.921 20.3897 28.7803 20.5303C28.6397 20.671 28.4489 20.75 28.25 20.75H20.75V28.25C20.75 28.4489 20.671 28.6397 20.5303 28.7803C20.3897 28.921 20.1989 29 20 29C19.8011 29 19.6103 28.921 19.4697 28.7803C19.329 28.6397 19.25 28.4489 19.25 28.25V20.75H11.75C11.5511 20.75 11.3603 20.671 11.2197 20.5303C11.079 20.3897 11 20.1989 11 20C11 19.8011 11.079 19.6103 11.2197 19.4697C11.3603 19.329 11.5511 19.25 11.75 19.25H19.25V11.75C19.25 11.5511 19.329 11.3603 19.4697 11.2197C19.6103 11.079 19.8011 11 20 11C20.1989 11 20.3897 11.079 20.5303 11.2197C20.671 11.3603 20.75 11.5511 20.75 11.75V19.25H28.25C28.4489 19.25 28.6397 19.329 28.7803 19.4697C28.921 19.6103 29 19.8011 29 20Z"
    fill="#060613" />
</svg>
