<svg width="20" height="20" viewBox="0 0 20 20" fill="none" xmlns="http://www.w3.org/2000/svg">
  <path fill-rule="evenodd" clip-rule="evenodd"
    d="M18.3332 9.99984C18.3332 14.6022 14.6022 18.3332 9.99984 18.3332C5.39746 18.3332 1.6665 14.6022 1.6665 9.99984C1.6665 5.39746 5.39746 1.6665 9.99984 1.6665C14.6022 1.6665 18.3332 5.39746 18.3332 9.99984ZM10.8332 5.83317C10.8332 6.29341 10.4601 6.6665 9.99984 6.6665C9.5396 6.6665 9.1665 6.29341 9.1665 5.83317C9.1665 5.37293 9.5396 4.99984 9.99984 4.99984C10.4601 4.99984 10.8332 5.37293 10.8332 5.83317ZM9.1665 7.70817C8.82133 7.70817 8.5415 7.98799 8.5415 8.33317C8.5415 8.67835 8.82133 8.95817 9.1665 8.95817H9.37484V14.1665C9.37484 14.5117 9.65466 14.7915 9.99984 14.7915C10.345 14.7915 10.6248 14.5117 10.6248 14.1665V8.33317C10.6248 7.98799 10.345 7.70817 9.99984 7.70817H9.1665Z"
    fill="#B4B4BF" />
</svg>
