<svg width="16" height="16" viewBox="0 0 16 16" fill="none" xmlns="http://www.w3.org/2000/svg">
  <g clip-path="url(#clip0_31216_2536)">
    <path
      d="M8.00087 4.75537C8.11334 4.75533 8.22337 4.7881 8.31747 4.84968C8.41158 4.91126 8.48567 4.99896 8.53065 5.10204L11.0951 10.9643L10.0364 11.4274L9.22754 9.57848H6.77332L5.96443 11.4274L4.90576 10.9643L7.47021 5.10115L7.51021 5.02648C7.56218 4.94349 7.63439 4.87507 7.72007 4.82765C7.80574 4.78022 7.90206 4.75535 7.99998 4.75537H8.00087ZM7.28087 8.42204H8.72087L8.00087 6.77493L7.28087 8.42204Z"
      fill="#00D7DB" />
    <path
      d="M7.86574 0.755371C9.53575 0.755741 11.1544 1.3328 12.448 2.38897C13.7416 3.44515 14.6308 4.91564 14.9653 6.55182L15.0808 7.11804L13.9484 7.34826L13.8328 6.78115C13.5703 5.49423 12.8988 4.32665 11.9185 3.45256C10.9382 2.57846 9.70154 2.04468 8.39306 1.93082C7.08459 1.81697 5.77436 2.12914 4.65779 2.82078C3.54123 3.51242 2.67815 4.54647 2.19729 5.7687L3.15018 5.45226L3.69774 5.26915L4.06396 6.36515L1.51463 7.21404C1.41864 7.24571 1.31603 7.25165 1.21703 7.23126C1.11804 7.21087 1.02612 7.16487 0.950463 7.09785C0.874805 7.03082 0.818053 6.94513 0.785872 6.84931C0.753692 6.7535 0.747209 6.65092 0.767071 6.55182C1.10134 4.91571 1.99037 3.44524 3.28384 2.38905C4.5773 1.33287 6.19583 0.755779 7.86574 0.755371ZM1.9004 9.21848C2.16314 10.4982 2.83032 11.6595 3.80346 12.5311C4.77661 13.4026 6.00417 13.9383 7.30498 14.0589C8.60578 14.1795 9.9109 13.8788 11.0277 13.201C12.1446 12.5233 13.0139 11.5045 13.5075 10.2949L12.336 10.7465L11.9208 9.66826L14.1937 8.79448C14.2903 8.75745 14.3951 8.74701 14.497 8.76427C14.599 8.78153 14.6945 8.82584 14.7735 8.89259C14.8525 8.95934 14.9121 9.04607 14.9462 9.14374C14.9802 9.2414 14.9875 9.34642 14.9671 9.44782C14.6326 11.0841 13.7433 12.5548 12.4495 13.6109C11.1557 14.6671 9.53679 15.2441 7.86663 15.2443C6.19685 15.2439 4.57842 14.6669 3.28497 13.6109C1.99152 12.5549 1.10241 11.0846 0.76796 9.4487L0.652405 8.88248L1.78574 8.65226L1.9004 9.21937V9.21848Z"
      fill="#00D7DB" />
  </g>
  <defs>
    <clipPath id="clip0_31216_2536">
      <rect width="16" height="16" fill="white" />
    </clipPath>
  </defs>
</svg>
