<svg width="80" height="16" viewBox="0 0 80 16" fill="none" xmlns="http://www.w3.org/2000/svg">
<path d="M39.6317 2.92662V0.21308H52.0841V2.92662H47.4422V15.7798H44.2736V2.92662H39.6317Z" fill="white"/>
<path d="M34.7733 4.68979C34.7141 4.07664 34.4599 3.60032 34.0108 3.26081C33.5616 2.9213 32.9521 2.75154 32.1821 2.75154C31.659 2.75154 31.2173 2.82755 30.857 2.97957C30.4967 3.12652 30.2203 3.33175 30.0278 3.59525C29.8402 3.85875 29.7465 4.15772 29.7465 4.49216C29.7366 4.77086 29.7933 5.01409 29.9167 5.22185C30.0451 5.42961 30.2203 5.6095 30.4424 5.76152C30.6645 5.90847 30.9211 6.03769 31.2123 6.14917C31.5035 6.25558 31.8144 6.34679 32.1451 6.4228L33.5073 6.75724C34.1687 6.90926 34.7758 7.11196 35.3285 7.36532C35.8813 7.61869 36.3601 7.93032 36.7648 8.30024C37.1695 8.67015 37.4829 9.10594 37.705 9.6076C37.932 10.1093 38.048 10.6844 38.053 11.333C38.048 12.2857 37.8111 13.1116 37.3422 13.8109C36.8783 14.5051 36.2071 15.0448 35.3285 15.4299C34.455 15.81 33.4012 16 32.1673 16C30.9433 16 29.8773 15.8074 28.9691 15.4223C28.0659 15.0372 27.3601 14.4671 26.8518 13.7121C26.3483 12.952 26.0843 12.012 26.0596 10.8922H29.1616C29.1961 11.4141 29.3417 11.8499 29.5984 12.1995C29.86 12.5441 30.2079 12.8051 30.6423 12.9824C31.0815 13.1547 31.5775 13.2409 32.1303 13.2409C32.6732 13.2409 33.1446 13.1598 33.5444 12.9976C33.9491 12.8355 34.2625 12.61 34.4846 12.3211C34.7067 12.0323 34.8177 11.7004 34.8177 11.3254C34.8177 10.9758 34.7165 10.6819 34.5142 10.4437C34.3168 10.2055 34.0256 10.0029 33.6406 9.83563C33.2606 9.66841 32.7942 9.51639 32.2414 9.37957L30.5904 8.95392C29.3121 8.63468 28.3028 8.13555 27.5625 7.45653C26.8222 6.77751 26.4545 5.86287 26.4594 4.71259C26.4545 3.77007 26.6988 2.94663 27.1923 2.24228C27.6908 1.53793 28.3744 0.988124 29.243 0.592874C30.1117 0.197625 31.0988 0 32.2044 0C33.3297 0 34.3118 0.197625 35.1509 0.592874C35.9948 0.988124 36.6513 1.53793 37.1202 2.24228C37.589 2.94663 37.8309 3.76247 37.8457 4.68979H34.7733Z" fill="white"/>
<path d="M13.7827 15.7798V0.21308H23.9993V2.92662H16.9884V6.63588H23.4737V9.34942H16.9884V13.0663H24.0289V15.7798H13.7827Z" fill="white"/>
<path d="M0 15.7798V0.21308H6.07071C7.18614 0.21308 8.11648 0.382835 8.86175 0.722345C9.60702 1.06185 10.1672 1.53311 10.5423 2.13612C10.9174 2.73406 11.105 3.42322 11.105 4.20358C11.105 4.81166 10.9865 5.34626 10.7496 5.80738C10.5127 6.26344 10.1869 6.63842 9.77236 6.93232C9.36271 7.22116 8.89383 7.42638 8.36573 7.548V7.70002C8.94319 7.72535 9.48363 7.89257 9.98705 8.20168C10.4954 8.51078 10.9075 8.94404 11.2234 9.50144C11.5393 10.0538 11.6972 10.7125 11.6972 11.4777C11.6972 12.3037 11.4973 13.041 11.0975 13.6896C10.7027 14.3331 10.1178 14.8424 9.34297 15.2174C8.56809 15.5923 7.61306 15.7798 6.47789 15.7798H0ZM3.20563 13.0891H5.81899C6.71233 13.0891 7.36382 12.9143 7.77347 12.5646C8.18312 12.2099 8.38794 11.7387 8.38794 11.1508C8.38794 10.7201 8.28676 10.3401 8.0844 10.0107C7.88205 9.68133 7.59332 9.4229 7.21822 9.23541C6.84805 9.04792 6.40632 8.95417 5.89303 8.95417H3.20563V13.0891ZM3.20563 6.72709H5.58209C6.02135 6.72709 6.41126 6.64855 6.75181 6.49147C7.0973 6.32931 7.36875 6.10128 7.56617 5.80738C7.76853 5.51348 7.86971 5.1613 7.86971 4.75085C7.86971 4.18838 7.67476 3.73485 7.28485 3.39028C6.89988 3.0457 6.35203 2.87341 5.64132 2.87341H3.20563V6.72709Z" fill="white"/>
<path d="M70.0278 0.21308L73.0853 5.51854H73.2038L76.2761 0.21308H79.8964L75.2693 7.99645L80 15.7798H76.3132L73.2038 10.4668H73.0853L69.9759 15.7798H66.3039L71.0494 7.99645L66.3927 0.21308H70.0278Z" fill="white"/>
<path d="M55.1244 0.21308L58.1819 5.51854H58.3004L61.3728 0.21308H64.993L60.3659 7.99645L65.0966 15.7798H61.4098L58.3004 10.4668H58.1819L55.0726 15.7798H51.4005L56.146 7.99645L51.4894 0.21308H55.1244Z" fill="white"/>
</svg>
