<svg width="108" height="36" viewBox="0 0 108 36" fill="none" xmlns="http://www.w3.org/2000/svg">
<path d="M26.6798 1.94727H7.98447C4.54275 1.94727 1.75269 4.73733 1.75269 8.17905V26.8744C1.75269 30.3161 4.54275 33.1062 7.98447 33.1062H26.6798C30.1215 33.1062 32.9116 30.3161 32.9116 26.8744V8.17905C32.9116 4.73733 30.1215 1.94727 26.6798 1.94727Z" fill="#FFD500"/>
<path fill-rule="evenodd" clip-rule="evenodd" d="M22.1712 23.543C21.2294 24.2291 19.8707 24.6696 18.0946 24.6696H11.1108V20.5892H14.191V22.3725H17.8282C18.6598 22.3725 19.2873 22.1603 19.7031 21.8357C20.1198 21.5103 20.3273 20.9912 20.3273 20.3842C20.3273 19.7774 20.117 19.3655 19.7031 19.0479C19.2892 18.7301 18.6624 18.6746 17.8282 18.6746H11.1108V16.3798V10.3848H17.8738C19.6642 10.3848 20.986 10.6072 21.8663 11.2787C22.7467 11.951 23.1699 12.8042 23.1699 14.062C23.1749 14.8178 22.9002 15.5528 22.392 16.1333C21.8914 16.7187 21.1541 17.083 20.217 17.2277V17.2484C21.287 17.3932 22.1059 17.7666 22.6753 18.3659C23.2519 18.9789 23.5658 19.7755 23.554 20.5985C23.554 21.8425 23.1122 22.8569 22.1712 23.543ZM17.4392 12.6749C19.1096 12.6749 19.9432 13.2967 19.9432 14.5251C19.9432 15.7534 19.1096 16.3729 17.4392 16.3729H14.191V12.6749H17.4392Z" fill="#060613"/>
<path d="M98.6704 20.4118C97.5067 18.3823 96.3201 16.399 95.1334 14.3926C95.7496 14.4156 96.3885 14.5079 97.0046 14.5079C97.5979 14.5079 98.2368 14.4387 98.8301 14.3926L100.793 18.0364C101.637 16.8602 102.436 15.6149 103.211 14.3926C103.531 14.4156 103.919 14.3926 104.238 14.4617C104.558 14.3926 104.946 14.4156 105.265 14.3926C103.964 15.9608 102.687 17.5059 101.523 19.1664C102.778 21.3112 104.033 23.4559 105.356 25.5546C104.74 25.5084 104.101 25.4623 103.485 25.4623C102.869 25.4623 102.23 25.5084 101.614 25.5546C100.884 24.217 100.154 22.8794 99.4234 21.5418C98.5335 22.8564 97.6664 24.1939 96.8448 25.5546C96.5482 25.4854 96.2288 25.4623 95.9321 25.4623C95.6127 25.4623 95.316 25.5084 94.9966 25.5546C96.2288 23.848 97.461 22.1414 98.6704 20.4118Z" fill="#060613"/>
<path d="M87.2612 20.4118C86.0975 18.3823 84.9109 16.399 83.7243 14.3926C84.3404 14.4156 84.9793 14.5079 85.5954 14.5079C86.1887 14.5079 86.8277 14.4387 87.421 14.3926L89.3833 18.0364C90.2277 16.8602 91.0264 15.6149 91.8022 14.3926C92.1217 14.4156 92.5096 14.3926 92.8291 14.4617C93.1485 14.3926 93.5364 14.4156 93.8559 14.3926C92.5552 15.9608 91.2773 17.5059 90.1136 19.1664C91.3686 21.3112 92.6236 23.4559 93.9471 25.5546C93.331 25.5084 92.6921 25.4623 92.076 25.4623C91.4599 25.4623 90.8209 25.5084 90.2049 25.5546C89.4746 24.217 88.7444 22.8794 88.0142 21.5418C87.1243 22.8564 86.2572 24.1939 85.4358 25.5546C85.139 25.4854 84.8196 25.4623 84.5229 25.4623C84.2035 25.4623 83.9069 25.5084 83.5874 25.5546C84.8196 23.848 86.0518 22.1414 87.2612 20.4118Z" fill="#060613"/>
<path d="M77.4043 11.7697V14.3988V15.8748V22.3552C77.4043 24.3155 78.066 25.7915 80.211 25.7915C81.0553 25.7915 81.8768 25.5609 82.6526 25.238V24.3385C82.356 24.4078 81.9224 24.5231 81.603 24.5231C80.6902 24.5231 80.5761 23.5083 80.5761 22.8165V15.8748H82.4929C82.4929 15.6442 82.4473 15.3905 82.4473 15.1598C82.4473 14.9062 82.4929 14.6525 82.4929 14.3988H80.5761V10.3398C79.5265 10.8242 78.4768 11.3546 77.4043 11.7697Z" fill="#060613"/>
<path d="M67.3247 17.904C67.3247 15.5979 68.9905 14.168 71.2039 14.168C72.3905 14.168 73.6 14.537 74.5583 15.2519C74.3757 15.9437 74.1704 16.6125 74.0106 17.3044H73.3945C73.0979 16.1744 72.322 15.3672 71.1127 15.3672C70.3597 15.3672 69.5153 15.8284 69.5153 16.6817C69.5153 18.9649 74.9006 17.7195 74.9006 22.1244C74.9006 24.7073 72.5959 25.7913 70.3597 25.7913C69.2643 25.7913 68.2375 25.4222 67.3247 24.8457C67.4617 24.1308 67.5758 23.3928 67.6442 22.6779H68.2147C68.6483 23.6926 69.5153 24.6151 70.6791 24.6151C71.5234 24.6151 72.5959 24.1308 72.5959 23.1622C72.5959 21.1789 67.3247 21.6862 67.3247 17.904Z" fill="#060613"/>
<path d="M56.0083 19.7458C56.0083 16.4249 57.925 14.2109 61.2795 14.2109C64.4513 14.2109 65.9345 16.1482 65.9345 19.2154C65.9345 19.4921 65.9345 19.7459 65.9117 20.0225H59.4083V20.3454C59.4083 22.5364 60.1385 24.2891 62.5573 24.2891C63.5385 24.2891 64.4513 23.8278 65.2271 23.2513L65.5009 23.4358L65.0217 24.7503C63.9492 25.4883 62.8767 25.7881 61.5761 25.7881C57.811 25.7881 56.0083 23.3435 56.0083 19.7458ZM62.7855 18.8926C62.7627 17.9009 62.6714 15.2487 61.2338 15.2487C59.6137 15.2487 59.4083 17.6703 59.4083 18.8926H62.7855Z" fill="#060613"/>
<path fill-rule="evenodd" clip-rule="evenodd" d="M49.2442 9.73633C51.4576 9.73633 53.5115 10.751 53.5116 13.2647C53.5116 15.4556 51.6636 16.5174 49.7697 16.9094V17.1384C52.0288 17.2998 53.8774 18.4314 53.8774 20.9221C53.877 24.2192 50.9337 25.4637 48.0817 25.4639H43.0381V9.73633H49.2442ZM47.4893 11.005C47.1471 11.005 46.8269 11.0279 46.4847 11.097V24.1051H47.7623C49.2683 24.1051 50.2953 22.4897 50.2953 21.106C50.2952 18.9844 49.5886 17.9004 47.4893 17.9004V16.5322C48.3926 16.5015 48.9281 16.3456 49.4967 15.5488C49.9075 14.9491 50.091 14.233 50.091 13.5181C50.0907 11.7892 49.1545 11.0052 47.4893 11.005Z" fill="#060613"/>
</svg>
