<svg width="123" height="40" viewBox="0 0 123 40" fill="none" xmlns="http://www.w3.org/2000/svg">
<path d="M30.4444 2.22266H9.11102C5.18366 2.22266 1.99991 5.40641 1.99991 9.33377V30.6671C1.99991 34.5945 5.18366 37.7782 9.11102 37.7782H30.4444C34.3717 37.7782 37.5555 34.5945 37.5555 30.6671V9.33377C37.5555 5.40641 34.3717 2.22266 30.4444 2.22266Z" fill="#FFD500"/>
<path fill-rule="evenodd" clip-rule="evenodd" d="M25.2997 26.8665C24.225 27.6493 22.6746 28.1521 20.648 28.1521H12.6787V23.4959H16.1935V25.5309H20.3439C21.2929 25.5309 22.0089 25.2886 22.4834 24.9183C22.9589 24.5469 23.1957 23.9546 23.1957 23.262C23.1957 22.5695 22.9557 22.0996 22.4834 21.7371C22.0111 21.3745 21.2958 21.3111 20.3439 21.3111H12.6787V18.6925V11.8516H20.396C22.439 11.8516 23.9473 12.1054 24.9518 12.8717C25.9564 13.6388 26.4394 14.6124 26.4394 16.0477C26.4451 16.9101 26.1316 17.7488 25.5517 18.4112C24.9804 19.0792 24.1392 19.4949 23.0698 19.6601V19.6837C24.2908 19.8489 25.2252 20.275 25.875 20.9589C26.533 21.6583 26.8911 22.5674 26.8777 23.5065C26.8777 24.9261 26.3735 26.0836 25.2997 26.8665ZM19.9001 14.4649C21.8061 14.4649 22.7574 15.1744 22.7574 16.5761C22.7574 17.9778 21.8061 18.6846 19.9001 18.6846H16.1935V14.4649H19.9001Z" fill="#060613"/>
<path d="M112.593 23.2924C111.265 20.9765 109.911 18.7133 108.557 16.4238C109.26 16.4501 109.989 16.5554 110.692 16.5554C111.369 16.5554 112.098 16.4765 112.775 16.4238L115.015 20.5818C115.978 19.2397 116.89 17.8186 117.775 16.4238C118.139 16.4501 118.582 16.4238 118.947 16.5028C119.311 16.4238 119.754 16.4501 120.118 16.4238C118.634 18.2133 117.176 19.9764 115.848 21.8713C117.28 24.3187 118.712 26.7661 120.222 29.1609C119.519 29.1082 118.79 29.0556 118.087 29.0556C117.384 29.0556 116.655 29.1082 115.952 29.1609C115.119 27.6345 114.286 26.1082 113.452 24.5819C112.437 26.0819 111.447 27.6082 110.51 29.1609C110.172 29.0819 109.807 29.0556 109.468 29.0556C109.104 29.0556 108.765 29.1082 108.401 29.1609C109.807 27.2134 111.213 25.2661 112.593 23.2924Z" fill="white"/>
<path d="M99.574 23.2924C98.2461 20.9765 96.8921 18.7133 95.538 16.4238C96.2411 16.4501 96.9702 16.5554 97.6732 16.5554C98.3502 16.5554 99.0793 16.4765 99.7563 16.4238L101.996 20.5818C102.959 19.2397 103.87 17.8186 104.756 16.4238C105.12 16.4501 105.563 16.4238 105.928 16.5028C106.292 16.4238 106.735 16.4501 107.099 16.4238C105.615 18.2133 104.157 19.9764 102.829 21.8713C104.261 24.3187 105.693 26.7661 107.203 29.1609C106.5 29.1082 105.771 29.0556 105.068 29.0556C104.365 29.0556 103.636 29.1082 102.933 29.1609C102.1 27.6345 101.267 26.1082 100.433 24.5819C99.4178 26.0819 98.4283 27.6082 97.491 29.1609C97.1524 29.0819 96.7879 29.0556 96.4494 29.0556C96.0849 29.0556 95.7464 29.1082 95.3818 29.1609C96.7879 27.2134 98.194 25.2661 99.574 23.2924Z" fill="white"/>
<path d="M88.3263 13.4305V16.4306V18.1147V25.5096C88.3263 27.7465 89.0814 29.4307 91.529 29.4307C92.4925 29.4307 93.4298 29.1676 94.3152 28.7992V27.7728C93.9767 27.8518 93.4819 27.9834 93.1174 27.9834C92.0759 27.9834 91.9457 26.8254 91.9457 26.036V18.1147H94.1329C94.1329 17.8516 94.0809 17.5621 94.0809 17.2989C94.0809 17.0095 94.1329 16.72 94.1329 16.4306H91.9457V11.7988C90.7479 12.3515 89.5501 12.9568 88.3263 13.4305Z" fill="white"/>
<path d="M76.8246 20.4292C76.8246 17.7977 78.7254 16.166 81.2511 16.166C82.6052 16.166 83.9853 16.5871 85.0789 17.4029C84.8705 18.1923 84.6362 18.9555 84.4539 19.745H83.7509C83.4124 18.4555 82.527 17.5345 81.147 17.5345C80.2878 17.5345 79.3243 18.0608 79.3243 19.0345C79.3243 21.6398 85.4694 20.2187 85.4694 25.2451C85.4694 28.1925 82.8395 29.4294 80.2878 29.4294C79.0379 29.4294 77.8662 29.0083 76.8246 28.3505C76.9808 27.5346 77.111 26.6925 77.1891 25.8767H77.8401C78.3349 27.0346 79.3243 28.0873 80.6523 28.0873C81.6157 28.0873 82.8395 27.5346 82.8395 26.4294C82.8395 24.1662 76.8246 24.7451 76.8246 20.4292Z" fill="white"/>
<path d="M63.9114 22.5308C63.9114 18.7412 66.0986 16.2148 69.9263 16.2148C73.5457 16.2148 75.2382 18.4254 75.2382 21.9254C75.2382 22.2412 75.2382 22.5308 75.2122 22.8465H67.7911V23.2149C67.7911 25.715 68.6244 27.715 71.3844 27.715C72.5042 27.715 73.5457 27.1887 74.431 26.5308L74.7435 26.7413L74.1966 28.2413C72.9728 29.0835 71.749 29.4256 70.2648 29.4256C65.9684 29.4256 63.9114 26.6361 63.9114 22.5308ZM71.6449 21.5571C71.6188 20.4254 71.5147 17.399 69.8742 17.399C68.0255 17.399 67.7911 20.1623 67.7911 21.5571H71.6449Z" fill="white"/>
<path fill-rule="evenodd" clip-rule="evenodd" d="M56.1928 11.1113C58.7186 11.1113 61.0623 12.2692 61.0624 15.1375C61.0624 17.6376 58.9537 18.8492 56.7925 19.2966V19.5579C59.3703 19.7421 61.4798 21.0333 61.4798 23.8754C61.4794 27.6378 58.1207 29.0579 54.8663 29.0581H49.111V11.1113H56.1928ZM54.1903 12.5591C53.7998 12.5591 53.4345 12.5851 53.0439 12.664V27.5076H54.5018C56.2204 27.5076 57.3922 25.6642 57.3922 24.0853C57.3921 21.6644 56.5858 20.4274 54.1903 20.4274V18.8662C55.2211 18.8312 55.8322 18.6532 56.481 17.744C56.9497 17.0597 57.1591 16.2425 57.1591 15.4267C57.1588 13.4538 56.0905 12.5592 54.1903 12.5591Z" fill="white"/>
</svg>
