<svg width="71" height="70" viewBox="0 0 71 70" fill="none" xmlns="http://www.w3.org/2000/svg">
<path d="M41 51.5462C38.6839 52.4837 36.1523 53 33.5 53C22.4543 53 13.5 44.0457 13.5 33C13.5 21.9543 22.4543 13 33.5 13C44.5457 13 53.5 21.9543 53.5 33C53.5 34.7265 53.2812 36.4019 52.8699 38" stroke="white" stroke-width="1.8"/>
<path d="M33.5 13.9004C35.7369 13.9004 38.0038 15.7371 39.7656 19.2607C41.5005 22.7305 42.5996 27.5866 42.5996 33C42.5996 38.4134 41.5005 43.2695 39.7656 46.7393C38.0038 50.2629 35.7369 52.0996 33.5 52.0996C31.2631 52.0996 28.9962 50.2629 27.2344 46.7393C25.4995 43.2695 24.4004 38.4134 24.4004 33C24.4004 27.5866 25.4995 22.7305 27.2344 19.2607C28.9962 15.7371 31.2631 13.9004 33.5 13.9004Z" stroke="white" stroke-width="1.8"/>
<path d="M14.5 33H52" stroke="white" stroke-width="1.8" stroke-linecap="square"/>
<path d="M51.6676 54.1829H49.3796V50.6849C51.8436 50.5822 53.0756 49.6655 53.0756 47.9349V47.6269C53.0756 46.2775 52.3203 45.5662 50.8096 45.4929C50.091 45.4929 49.5043 45.7055 49.0496 46.1309C48.6096 46.5562 48.309 47.0989 48.1476 47.7589L46.0576 46.9229C46.2336 46.3069 46.5196 45.7349 46.9156 45.2069C47.3116 44.6642 47.8396 44.2242 48.4996 43.8869C49.1596 43.5495 49.959 43.3809 50.8976 43.3809C52.335 43.3809 53.479 43.7769 54.3296 44.5689C55.195 45.3462 55.6276 46.3875 55.6276 47.6929C55.6276 48.5729 55.437 49.3282 55.0556 49.9589C54.6743 50.5749 54.183 51.0662 53.5816 51.4329C52.9803 51.7995 52.3423 52.0415 51.6676 52.1589V54.1829ZM50.5456 59.2649C49.9883 59.2649 49.5776 59.1255 49.3136 58.8469C49.0643 58.5682 48.9396 58.2235 48.9396 57.8129V57.4389C48.9396 57.0135 49.0643 56.6689 49.3136 56.4049C49.5776 56.1262 49.9883 55.9869 50.5456 55.9869C51.103 55.9869 51.5063 56.1262 51.7556 56.4049C52.0196 56.6689 52.1516 57.0135 52.1516 57.4389V57.8129C52.1516 58.2235 52.0196 58.5682 51.7556 58.8469C51.5063 59.1255 51.103 59.2649 50.5456 59.2649Z" fill="#FFD500"/>
</svg>
