<svg width="32" height="32" viewBox="0 0 32 32" fill="none" xmlns="http://www.w3.org/2000/svg">
  <rect width="32" height="32" rx="16" fill="#353649" />
  <path
    d="M22.3539 21.6463L19.2245 18.5175C20.1315 17.4286 20.5838 16.0319 20.4873 14.618C20.3908 13.2041 19.7528 11.8818 18.7062 10.9263C17.6596 9.9707 16.2849 9.45543 14.8681 9.48763C13.4512 9.51983 12.1014 10.097 11.0993 11.0991C10.0971 12.1012 9.51995 13.4511 9.48775 14.868C9.45555 16.2848 9.97082 17.6595 10.9264 18.7061C11.8819 19.7527 13.2042 20.3906 14.6181 20.4872C16.032 20.5837 17.4287 20.1314 18.5176 19.2244L21.6464 22.3538C21.6928 22.4002 21.748 22.4371 21.8087 22.4622C21.8694 22.4874 21.9344 22.5003 22.0001 22.5003C22.0658 22.5003 22.1309 22.4874 22.1916 22.4622C22.2523 22.4371 22.3074 22.4002 22.3539 22.3538C22.4003 22.3073 22.4372 22.2522 22.4623 22.1915C22.4875 22.1308 22.5004 22.0657 22.5004 22C22.5004 21.9343 22.4875 21.8693 22.4623 21.8086C22.4372 21.7479 22.4003 21.6927 22.3539 21.6463ZM10.5001 15C10.5001 14.11 10.7641 13.24 11.2585 12.5C11.753 11.7599 12.4558 11.1832 13.2781 10.8426C14.1003 10.502 15.0051 10.4129 15.878 10.5865C16.751 10.7601 17.5528 11.1887 18.1821 11.818C18.8115 12.4474 19.24 13.2492 19.4137 14.1221C19.5873 14.995 19.4982 15.8998 19.1576 16.7221C18.817 17.5444 18.2402 18.2472 17.5002 18.7416C16.7602 19.2361 15.8902 19.5 15.0001 19.5C13.8071 19.4987 12.6633 19.0242 11.8196 18.1805C10.976 17.3369 10.5015 16.1931 10.5001 15Z"
    fill="#DDE4E8" />
</svg>
