<svg width="41" height="40" viewBox="0 0 41 40" fill="none" xmlns="http://www.w3.org/2000/svg">
  <rect x="0.75" width="40" height="40" rx="20" fill="#353649" />
  <path d="M25.75 25C24.4168 24.3628 22.8825 24 21.25 24C19.6175 24 18.0833 24.3628 16.75 25" stroke="white"
    stroke-width="1.5" stroke-linecap="round" stroke-linejoin="round" />
  <circle cx="2.5" cy="2.5" r="2.5" transform="matrix(1 0 0 -1 18.75 21)" stroke="white" stroke-width="1.5"
    stroke-linejoin="round" />
  <path
    d="M25.75 10H16.75C14.5409 10 12.75 11.7909 12.75 14V26C12.75 28.2091 14.5409 30 16.75 30H25.75C27.9591 30 29.75 28.2091 29.75 26V14C29.75 11.7909 27.9591 10 25.75 10Z"
    stroke="white" stroke-width="1.5" />
  <path
    d="M13.4997 24.75H10.9167L10.8395 24.7461C10.4615 24.7075 10.1667 24.3882 10.1667 24C10.1667 23.6118 10.4615 23.2925 10.8395 23.2539L10.9167 23.25H13.4997V24.75ZM13.4997 20.75H10.9167L10.8395 20.7461C10.4615 20.7075 10.1667 20.3882 10.1667 20C10.1667 19.6118 10.4615 19.2925 10.8395 19.2539L10.9167 19.25H13.4997V20.75ZM13.4997 16.75H10.9167L10.8395 16.7461C10.4615 16.7075 10.1667 16.3882 10.1667 16C10.1667 15.6118 10.4615 15.2925 10.8395 15.2539L10.9167 15.25H13.4997V16.75Z"
    fill="white" />
</svg>
