<svg width="41" height="40" viewBox="0 0 41 40" fill="none" xmlns="http://www.w3.org/2000/svg">
  <path
    d="M20.75 0.5C31.5196 0.5 40.25 9.23045 40.25 20C40.25 30.7696 31.5196 39.5 20.75 39.5C9.98045 39.5 1.25 30.7696 1.25 20C1.25 9.23045 9.98045 0.5 20.75 0.5Z"
    fill="white" />
  <path
    d="M20.75 0.5C31.5196 0.5 40.25 9.23045 40.25 20C40.25 30.7696 31.5196 39.5 20.75 39.5C9.98045 39.5 1.25 30.7696 1.25 20C1.25 9.23045 9.98045 0.5 20.75 0.5Z"
    stroke="#1C2024" />
  <path
    d="M29.75 20C29.75 20.1989 29.671 20.3897 29.5303 20.5303C29.3897 20.671 29.1989 20.75 29 20.75H21.5V28.25C21.5 28.4489 21.421 28.6397 21.2803 28.7803C21.1397 28.921 20.9489 29 20.75 29C20.5511 29 20.3603 28.921 20.2197 28.7803C20.079 28.6397 20 28.4489 20 28.25V20.75H12.5C12.3011 20.75 12.1103 20.671 11.9697 20.5303C11.829 20.3897 11.75 20.1989 11.75 20C11.75 19.8011 11.829 19.6103 11.9697 19.4697C12.1103 19.329 12.3011 19.25 12.5 19.25H20V11.75C20 11.5511 20.079 11.3603 20.2197 11.2197C20.3603 11.079 20.5511 11 20.75 11C20.9489 11 21.1397 11.079 21.2803 11.2197C21.421 11.3603 21.5 11.5511 21.5 11.75V19.25H29C29.1989 19.25 29.3897 19.329 29.5303 19.4697C29.671 19.6103 29.75 19.8011 29.75 20Z"
    fill="#060613" />
</svg>
