<svg width="41" height="40" viewBox="0 0 41 40" fill="none" xmlns="http://www.w3.org/2000/svg">
  <rect x="0.25" width="40" height="40" rx="20" fill="#353649" />
  <path
    d="M25.2805 11.9698L28.2805 14.9698C28.4212 15.1105 28.5003 15.3014 28.5003 15.5004C28.5003 15.6994 28.4212 15.8903 28.2805 16.031C28.1397 16.1717 27.9489 16.2508 27.7498 16.2508C27.5508 16.2508 27.3599 16.1717 27.2192 16.031L25.4998 14.3107V27.5004C25.4998 27.6993 25.4208 27.8901 25.2802 28.0307C25.1395 28.1714 24.9488 28.2504 24.7498 28.2504C24.5509 28.2504 24.3602 28.1714 24.2195 28.0307C24.0789 27.8901 23.9998 27.6993 23.9998 27.5004V14.3107L22.2805 16.031C22.1397 16.1717 21.9489 16.2508 21.7498 16.2508C21.5508 16.2508 21.3599 16.1717 21.2192 16.031C21.0785 15.8903 20.9994 15.6994 20.9994 15.5004C20.9994 15.3014 21.0785 15.1105 21.2192 14.9698L24.2192 11.9698C24.2889 11.9 24.3716 11.8447 24.4626 11.807C24.5537 11.7692 24.6513 11.7498 24.7498 11.7498C24.8484 11.7498 24.946 11.7692 25.037 11.807C25.1281 11.8447 25.2108 11.9 25.2805 11.9698ZM19.2805 25.031C19.4212 24.8903 19.5003 24.6994 19.5003 24.5004C19.5003 24.3014 19.4212 24.1105 19.2805 23.9698C19.1397 23.829 18.9489 23.75 18.7498 23.75C18.5508 23.75 18.3599 23.829 18.2192 23.9698L16.4998 25.6901V12.5004C16.4998 12.3015 16.4208 12.1107 16.2802 11.9701C16.1395 11.8294 15.9487 11.7504 15.7498 11.7504C15.5509 11.7504 15.3602 11.8294 15.2195 11.9701C15.0789 12.1107 14.9998 12.3015 14.9998 12.5004V25.6901L13.2805 23.9698C13.1397 23.829 12.9489 23.75 12.7498 23.75C12.5508 23.75 12.3599 23.829 12.2192 23.9698C12.0785 24.1105 11.9994 24.3014 11.9994 24.5004C11.9994 24.6994 12.0785 24.8903 12.2192 25.031L15.2192 28.031C15.2889 28.1007 15.3716 28.1561 15.4626 28.1938C15.5537 28.2315 15.6513 28.251 15.7498 28.251C15.8484 28.251 15.946 28.2315 16.037 28.1938C16.1281 28.1561 16.2108 28.1007 16.2805 28.031L19.2805 25.031Z"
    fill="white" />
</svg>
