<svg width="41" height="40" viewBox="0 0 41 40" fill="none" xmlns="http://www.w3.org/2000/svg">
  <rect x="0.25" width="40" height="40" rx="20" fill="#353649" />
  <path
    d="M29.25 21.4996V27.4996C29.25 27.6985 29.171 27.8893 29.0303 28.0299C28.8897 28.1706 28.6989 28.2496 28.5 28.2496H12C11.8011 28.2496 11.6103 28.1706 11.4697 28.0299C11.329 27.8893 11.25 27.6985 11.25 27.4996V21.4996C11.25 21.3007 11.329 21.1099 11.4697 20.9693C11.6103 20.8286 11.8011 20.7496 12 20.7496C12.1989 20.7496 12.3897 20.8286 12.5303 20.9693C12.671 21.1099 12.75 21.3007 12.75 21.4996V26.7496H27.75V21.4996C27.75 21.3007 27.829 21.1099 27.9697 20.9693C28.1103 20.8286 28.3011 20.7496 28.5 20.7496C28.6989 20.7496 28.8897 20.8286 29.0303 20.9693C29.171 21.1099 29.25 21.3007 29.25 21.4996ZM17.0306 15.2802L19.5 12.8099V21.4996C19.5 21.6985 19.579 21.8893 19.7197 22.0299C19.8603 22.1706 20.0511 22.2496 20.25 22.2496C20.4489 22.2496 20.6397 22.1706 20.7803 22.0299C20.921 21.8893 21 21.6985 21 21.4996V12.8099L23.4694 15.2802C23.6101 15.421 23.801 15.5 24 15.5C24.199 15.5 24.3899 15.421 24.5306 15.2802C24.6714 15.1395 24.7504 14.9486 24.7504 14.7496C24.7504 14.5506 24.6714 14.3597 24.5306 14.219L20.7806 10.469C20.711 10.3993 20.6283 10.3439 20.5372 10.3062C20.4462 10.2685 20.3486 10.249 20.25 10.249C20.1514 10.249 20.0538 10.2685 19.9628 10.3062C19.8717 10.3439 19.789 10.3993 19.7194 10.469L15.9694 14.219C15.8286 14.3597 15.7496 14.5506 15.7496 14.7496C15.7496 14.9486 15.8286 15.1395 15.9694 15.2802C16.1101 15.421 16.301 15.5 16.5 15.5C16.699 15.5 16.8899 15.421 17.0306 15.2802Z"
    fill="white" />
</svg>
