<svg width="41" height="40" viewBox="0 0 41 40" fill="none" xmlns="http://www.w3.org/2000/svg">
  <rect x="0.666992" width="40" height="40" rx="20" fill="#353649" />
  <path
    d="M30.2604 21.2244C29.9813 21.0096 29.6565 20.8622 29.3111 20.7934C28.9658 20.7246 28.6092 20.7364 28.2692 20.8278L24.3467 21.7297C24.4379 21.3442 24.4408 20.943 24.3549 20.5563C24.2691 20.1695 24.0968 19.8072 23.8511 19.4965C23.6053 19.1858 23.2924 18.9347 22.9358 18.7622C22.5792 18.5896 22.1882 18.5 21.792 18.5H17.0989C16.7047 18.499 16.3143 18.5761 15.9502 18.7269C15.586 18.8777 15.2554 19.0991 14.9773 19.3784L12.8567 21.5H10.167C9.76917 21.5 9.38764 21.658 9.10633 21.9393C8.82503 22.2206 8.66699 22.6022 8.66699 23V26.75C8.66699 27.1478 8.82503 27.5294 9.10633 27.8107C9.38764 28.092 9.76917 28.25 10.167 28.25H19.917C19.9783 28.25 20.0394 28.2425 20.0989 28.2275L26.0989 26.7275C26.1371 26.7184 26.1745 26.7058 26.2104 26.69L29.8545 25.1394L29.8957 25.1206C30.246 24.9456 30.5459 24.6843 30.7672 24.3614C30.9885 24.0385 31.124 23.6645 31.1609 23.2747C31.1977 22.8849 31.1348 22.4922 30.9779 22.1335C30.821 21.7748 30.5754 21.4619 30.2642 21.2244H30.2604ZM10.167 23H12.417V26.75H10.167V23ZM29.2386 23.7697L25.6761 25.2866L19.8232 26.75H13.917V22.5603L16.0386 20.4397C16.1773 20.2998 16.3425 20.1889 16.5246 20.1134C16.7066 20.0379 16.9018 19.9994 17.0989 20H21.792C22.0904 20 22.3765 20.1185 22.5875 20.3295C22.7985 20.5405 22.917 20.8266 22.917 21.125C22.917 21.4234 22.7985 21.7095 22.5875 21.9205C22.3765 22.1315 22.0904 22.25 21.792 22.25H19.167C18.9681 22.25 18.7773 22.329 18.6367 22.4697C18.496 22.6103 18.417 22.8011 18.417 23C18.417 23.1989 18.496 23.3897 18.6367 23.5303C18.7773 23.671 18.9681 23.75 19.167 23.75H22.167C22.2234 23.7498 22.2797 23.7436 22.3348 23.7313L28.6161 22.2866L28.6451 22.2791C28.8369 22.2258 29.0415 22.2454 29.2197 22.334C29.3979 22.4226 29.537 22.5739 29.6103 22.7589C29.6836 22.9439 29.6859 23.1495 29.6168 23.3361C29.5476 23.5227 29.4119 23.6771 29.2357 23.7697H29.2386ZM24.042 17C24.2273 17.0002 24.4123 16.9852 24.5951 16.955C24.8008 17.5658 25.177 18.105 25.6794 18.5088C26.1817 18.9125 26.7892 19.164 27.4299 19.2335C28.0707 19.3029 28.7179 19.1875 29.2952 18.9008C29.8724 18.614 30.3554 18.168 30.6872 17.6155C31.019 17.0629 31.1856 16.4269 31.1674 15.7827C31.1491 15.1384 30.9468 14.5128 30.5843 13.9799C30.2218 13.447 29.7143 13.0291 29.1218 12.7754C28.5293 12.5218 27.8765 12.4432 27.2407 12.5488C27.0427 11.9602 26.6862 11.4377 26.2104 11.0388C25.7346 10.6398 25.1579 10.3799 24.5439 10.2875C23.9299 10.1952 23.3022 10.274 22.7301 10.5154C22.158 10.7567 21.6636 11.1512 21.3012 11.6555C20.9389 12.1597 20.7226 12.7541 20.6763 13.3734C20.63 13.9926 20.7555 14.6125 21.0388 15.1651C21.3221 15.7176 21.7524 16.1812 22.2823 16.505C22.8122 16.8287 23.4211 17 24.042 17ZM29.667 15.875C29.667 16.2458 29.557 16.6084 29.351 16.9167C29.145 17.225 28.8521 17.4654 28.5095 17.6073C28.1669 17.7492 27.7899 17.7863 27.4262 17.714C27.0625 17.6416 26.7284 17.463 26.4662 17.2008C26.2039 16.9386 26.0254 16.6045 25.953 16.2408C25.8807 15.8771 25.9178 15.5001 26.0597 15.1575C26.2016 14.8149 26.442 14.522 26.7503 14.316C27.0586 14.11 27.4212 14 27.792 14C28.2893 14 28.7662 14.1975 29.1178 14.5492C29.4694 14.9008 29.667 15.3777 29.667 15.875ZM24.042 11.75C24.451 11.7502 24.8488 11.8842 25.1746 12.1314C25.5004 12.3787 25.7364 12.7258 25.8467 13.1197C25.4626 13.39 25.1391 13.7374 24.8969 14.1399C24.6548 14.5423 24.4993 14.9909 24.4404 15.4569C24.3095 15.4852 24.1759 15.4996 24.042 15.5C23.5447 15.5 23.0678 15.3025 22.7162 14.9508C22.3645 14.5992 22.167 14.1223 22.167 13.625C22.167 13.1277 22.3645 12.6508 22.7162 12.2992C23.0678 11.9475 23.5447 11.75 24.042 11.75Z"
    fill="white" />
</svg>
