<svg width="40" height="40" viewBox="0 0 40 40" fill="none" xmlns="http://www.w3.org/2000/svg">
  <rect width="40" height="40" rx="20" fill="#353649" />
  <path
    d="M20 11.3099V19.9996C20 20.1985 19.921 20.3893 19.7803 20.5299C19.6397 20.6706 19.4489 20.7496 19.25 20.7496C19.0511 20.7496 18.8603 20.6706 18.7197 20.5299C18.579 20.3893 18.5 20.1985 18.5 19.9996V11.3099L16.7806 13.0302C16.7109 13.0999 16.6282 13.1552 16.5372 13.1929C16.4461 13.2306 16.3485 13.25 16.25 13.25C16.051 13.25 15.8601 13.171 15.7194 13.0302C15.6497 12.9606 15.5944 12.8778 15.5567 12.7868C15.519 12.6957 15.4996 12.5982 15.4996 12.4996C15.4996 12.3006 15.5786 12.1097 15.7194 11.969L18.7194 8.96899C18.789 8.89926 18.8717 8.84394 18.9628 8.80619C19.0538 8.76845 19.1514 8.74902 19.25 8.74902C19.3486 8.74902 19.4462 8.76845 19.5372 8.80619C19.6283 8.84394 19.711 8.89926 19.7806 8.96899L22.7806 11.969C22.9214 12.1097 23.0004 12.3006 23.0004 12.4996C23.0004 12.6986 22.9214 12.8895 22.7806 13.0302C22.6399 13.171 22.449 13.25 22.25 13.25C22.051 13.25 21.8601 13.171 21.7194 13.0302L20 11.3099ZM26 19.589V16.9996C26 16.6018 25.842 16.2203 25.5607 15.939C25.2794 15.6576 24.8978 15.4996 24.5 15.4996H23C22.8011 15.4996 22.6103 15.5786 22.4697 15.7193C22.329 15.8599 22.25 16.0507 22.25 16.2496C22.25 16.4485 22.329 16.6393 22.4697 16.7799C22.6103 16.9206 22.8011 16.9996 23 16.9996H24.5V24.5371C24.0527 24.0802 23.4541 23.8023 22.8164 23.7554C22.1788 23.7086 21.5459 23.8961 21.0367 24.2828C20.5275 24.6694 20.1769 25.2286 20.0508 25.8555C19.9246 26.4823 20.0316 27.1336 20.3516 27.6871L20.3741 27.7227L22.4609 30.9102C22.5698 31.0767 22.7404 31.1931 22.9351 31.2338C23.1298 31.2745 23.3328 31.2362 23.4992 31.1273C23.6657 31.0184 23.7821 30.8478 23.8228 30.6531C23.8635 30.4584 23.8252 30.2555 23.7162 30.089L21.6416 26.9212C21.4945 26.6615 21.4566 26.354 21.5363 26.0663C21.6159 25.7787 21.8065 25.5345 22.0662 25.3874C22.326 25.2404 22.6334 25.2025 22.9211 25.2821C23.2087 25.3618 23.4529 25.5524 23.6 25.8121C23.6066 25.8243 23.6141 25.8365 23.6216 25.8477L24.6228 27.3768C24.7113 27.5118 24.841 27.6146 24.9926 27.67C25.1442 27.7254 25.3096 27.7304 25.4643 27.6843C25.619 27.6382 25.7546 27.5434 25.8512 27.414C25.9477 27.2846 25.9999 27.1276 26 26.9662V21.4996C26.7069 22.154 27.2715 22.9469 27.6586 23.829C28.0457 24.7111 28.247 25.6635 28.25 26.6268V30.4996C28.25 30.6985 28.329 30.8893 28.4697 31.0299C28.6103 31.1706 28.8011 31.2496 29 31.2496C29.1989 31.2496 29.3897 31.1706 29.5303 31.0299C29.671 30.8893 29.75 30.6985 29.75 30.4996V26.6231C29.7458 25.2337 29.4018 23.8665 28.7482 22.6405C28.0946 21.4145 27.1512 20.3669 26 19.589ZM15.5 15.4996H14C13.6022 15.4996 13.2206 15.6576 12.9393 15.939C12.658 16.2203 12.5 16.6018 12.5 16.9996V26.7496C12.5 26.9485 12.579 27.1393 12.7197 27.2799C12.8603 27.4206 13.0511 27.4996 13.25 27.4996C13.4489 27.4996 13.6397 27.4206 13.7803 27.2799C13.921 27.1393 14 26.9485 14 26.7496V16.9996H15.5C15.6989 16.9996 15.8897 16.9206 16.0303 16.7799C16.171 16.6393 16.25 16.4485 16.25 16.2496C16.25 16.0507 16.171 15.8599 16.0303 15.7193C15.8897 15.5786 15.6989 15.4996 15.5 15.4996Z"
    fill="white" />
</svg>
