<svg width="41" height="40" viewBox="0 0 41 40" fill="none" xmlns="http://www.w3.org/2000/svg">
  <rect x="0.333496" width="40" height="40" rx="20" fill="#353649" />
  <path
    d="M28.3641 15.7194L23.1141 10.4694C23.0444 10.3997 22.9617 10.3445 22.8706 10.3069C22.7796 10.2693 22.682 10.2499 22.5835 10.25H13.5835C13.1857 10.25 12.8041 10.408 12.5228 10.6893C12.2415 10.9706 12.0835 11.3522 12.0835 11.75V28.25C12.0835 28.6478 12.2415 29.0294 12.5228 29.3107C12.8041 29.592 13.1857 29.75 13.5835 29.75H27.0835C27.4813 29.75 27.8629 29.592 28.1442 29.3107C28.4255 29.0294 28.5835 28.6478 28.5835 28.25V16.25C28.5836 16.1515 28.5642 16.0539 28.5266 15.9629C28.489 15.8718 28.4337 15.7891 28.3641 15.7194ZM23.3335 12.8103L26.0232 15.5H23.3335V12.8103ZM27.0835 28.25H13.5835V11.75H21.8335V16.25C21.8335 16.4489 21.9125 16.6397 22.0532 16.7803C22.1938 16.921 22.3846 17 22.5835 17H27.0835V28.25ZM22.8141 23.6703C23.2567 22.967 23.4247 22.1252 23.2859 21.3058C23.1472 20.4865 22.7114 19.747 22.0618 19.2286C21.4123 18.7102 20.5945 18.4494 19.7648 18.4958C18.9351 18.5423 18.1515 18.8928 17.5639 19.4804C16.9763 20.068 16.6258 20.8516 16.5793 21.6813C16.5329 22.511 16.7937 23.3288 17.3121 23.9783C17.8305 24.6279 18.57 25.0637 19.3893 25.2024C20.2087 25.3412 21.0505 25.1733 21.7538 24.7306L22.8029 25.7806C22.8726 25.8503 22.9553 25.9056 23.0463 25.9433C23.1374 25.981 23.235 26.0004 23.3335 26.0004C23.432 26.0004 23.5296 25.981 23.6207 25.9433C23.7117 25.9056 23.7944 25.8503 23.8641 25.7806C23.9338 25.7109 23.9891 25.6282 24.0268 25.5372C24.0645 25.4461 24.0839 25.3485 24.0839 25.25C24.0839 25.1515 24.0645 25.0539 24.0268 24.9628C23.9891 24.8718 23.9338 24.7891 23.8641 24.7194L22.8141 23.6703ZM18.0835 21.875C18.0835 21.5042 18.1935 21.1416 18.3995 20.8333C18.6055 20.525 18.8984 20.2846 19.241 20.1427C19.5836 20.0008 19.9606 19.9637 20.3243 20.036C20.688 20.1084 21.0221 20.287 21.2843 20.5492C21.5465 20.8114 21.7251 21.1455 21.7975 21.5092C21.8698 21.8729 21.8327 22.2499 21.6908 22.5925C21.5489 22.9351 21.3085 23.228 21.0002 23.434C20.6918 23.64 20.3293 23.75 19.9585 23.75C19.4612 23.75 18.9843 23.5525 18.6327 23.2008C18.281 22.8492 18.0835 22.3723 18.0835 21.875Z"
    fill="white" />
</svg>
