<svg width="22" height="22" viewBox="0 0 22 22" fill="none" xmlns="http://www.w3.org/2000/svg">
<path d="M8.52466 2.75C9.17524 2.75 9.78974 2.90256 10.3335 3.17344L9.55352 4.16606C9.23524 4.04099 8.88808 3.97222 8.52466 3.97222C6.98688 3.97222 5.74027 5.20344 5.74027 6.72222C5.74027 8.2221 6.95604 9.44152 8.46736 9.47165V10.6941C6.27255 10.6638 4.50277 8.89713 4.50277 6.72222C4.50277 4.52843 6.30343 2.75 8.52466 2.75Z" fill="white"/>
<path d="M1.76901 13.0606C3.80872 12.1173 6.07341 11.584 8.46736 11.5756V12.7978C6.27757 12.8061 4.20662 13.2902 2.33711 14.1475V16.1944H4.63526V17.4166H1.71836C1.37663 17.4166 1.09961 17.143 1.09961 16.8055V14.1272C1.09961 13.6732 1.35272 13.2531 1.76901 13.0606Z" fill="white"/>
<path d="M13.4745 11.6888C11.2533 11.6888 9.45264 9.91035 9.45264 7.71655C9.45264 5.52275 11.2533 3.74432 13.4745 3.74432C15.6958 3.74432 17.4964 5.52275 17.4964 7.71655C17.4964 9.91035 15.6958 11.6888 13.4745 11.6888ZM13.4745 10.4665C15.0123 10.4665 16.2589 9.23533 16.2589 7.71655C16.2589 6.19777 15.0123 4.96655 13.4745 4.96655C11.9368 4.96655 10.6901 6.19777 10.6901 7.71655C10.6901 9.23533 11.9368 10.4665 13.4745 10.4665Z" fill="white"/>
<path d="M20.8996 15.6051C20.8996 15.1511 20.6465 14.731 20.2302 14.5385C18.1742 13.5877 15.8897 13.0534 13.4746 13.0534C11.0595 13.0534 8.77493 13.5877 6.71897 14.5385C6.30268 14.731 6.04957 15.1511 6.04957 15.6051V18.6389C6.04957 18.9764 6.32659 19.25 6.66832 19.25H20.2809C20.6226 19.25 20.8996 18.9764 20.8996 18.6389V15.6051ZM19.6621 15.6254V18.0278H7.28707V15.6254C9.17287 14.7606 11.2636 14.2756 13.4746 14.2756C15.6855 14.2756 17.7763 14.7606 19.6621 15.6254Z" fill="white"/>
</svg>
