<svg width="22" height="22" viewBox="0 0 22 22" fill="none" xmlns="http://www.w3.org/2000/svg">
  <path fill-rule="evenodd" clip-rule="evenodd"
    d="M19.3477 14.1887C18.9404 13.8404 18.706 13.3313 18.706 12.7954V8.37703C18.706 4.7562 15.4244 1.83203 11.3727 1.83203C7.32102 1.83203 4.03935 4.7562 4.03935 8.37703V12.7954C4.03939 13.3313 3.80494 13.8404 3.39769 14.1887C2.01352 15.4262 2.99435 17.5345 4.95602 17.5345H8.43936C8.88379 18.7724 10.0575 19.598 11.3727 19.598C12.6879 19.598 13.8616 18.7724 14.306 17.5345H17.7894C19.751 17.5345 20.7319 15.4262 19.3477 14.1887ZM11.3727 18.2228C10.8271 18.2208 10.313 17.9671 9.97938 17.5353H12.7294C12.4064 17.9603 11.9064 18.2136 11.3727 18.2228ZM17.7985 16.1595C18.1318 16.1897 18.4491 16.011 18.596 15.7104C18.6674 15.5293 18.6024 15.3229 18.4402 15.2154C17.7495 14.5993 17.3502 13.7208 17.3402 12.7954V8.37703C17.3402 5.5262 14.6635 3.20703 11.3819 3.20703C8.10019 3.20703 5.42352 5.5262 5.42352 8.37703V12.7954C5.41347 13.7208 5.01418 14.5993 4.32352 15.2154C4.1579 15.3202 4.08893 15.5271 4.15852 15.7104C4.30546 16.011 4.62276 16.1897 4.95602 16.1595H17.7985Z"
    fill="white" />
</svg>
