<svg width="20" height="20" viewBox="0 0 20 20" fill="none" xmlns="http://www.w3.org/2000/svg">
  <path fill-rule="evenodd" clip-rule="evenodd"
    d="M9.99999 10.625C9.65481 10.625 9.37499 10.3452 9.37499 10V5.97222C9.37499 5.6116 9.25803 5.26072 9.04166 4.97222L8.49999 4.25C8.26392 3.93524 7.89344 3.75 7.49999 3.75H3.33332C3.1032 3.75 2.91666 3.93655 2.91666 4.16667V15C2.91666 15.2301 3.1032 15.4167 3.33332 15.4167H7.49999C7.78764 15.4167 8.06634 15.5159 8.2892 15.6973C8.29063 15.6984 8.29324 15.7004 8.29699 15.7032C8.30972 15.7128 8.3353 15.7315 8.37274 15.7564C8.44817 15.8067 8.56825 15.8799 8.72533 15.9547C9.04275 16.1057 9.483 16.25 9.99999 16.25C10.517 16.25 10.9572 16.1057 11.2746 15.9547C11.4317 15.8799 11.5518 15.8067 11.6272 15.7564C11.6647 15.7315 11.6903 15.7128 11.703 15.7032C11.7067 15.7004 11.7093 15.6984 11.7108 15.6973C11.9336 15.5159 12.2123 15.4167 12.5 15.4167H16.6667C16.8968 15.4167 17.0833 15.2301 17.0833 15V4.16667C17.0833 3.93655 16.8968 3.75 16.6667 3.75H12.5C12.1065 3.75 11.7361 3.93524 11.5 4.25L10.9583 4.97222C10.742 5.26072 10.625 5.61161 10.625 5.97222V10C10.625 10.3452 10.3452 10.625 9.99999 10.625ZM10.5 3.5C10.5927 3.3764 10.6958 3.26279 10.8075 3.16C11.2649 2.73928 11.8676 2.5 12.5 2.5H16.6667C17.5871 2.5 18.3333 3.24619 18.3333 4.16667V15C18.3333 15.9205 17.5871 16.6667 16.6667 16.6667H12.5C12.5 16.6667 11.4983 17.5 9.99999 17.5C8.5017 17.5 7.49999 16.6667 7.49999 16.6667H3.33332C2.41285 16.6667 1.66666 15.9205 1.66666 15V4.16667C1.66666 3.24619 2.41285 2.5 3.33332 2.5H7.49999C8.13238 2.5 8.73512 2.73928 9.19249 3.16C9.30423 3.26279 9.40729 3.3764 9.49999 3.5L9.99999 4.16667L10.5 3.5Z"
    fill="white" />
</svg>
