<svg width="20" height="20" viewBox="0 0 20 20" fill="none" xmlns="http://www.w3.org/2000/svg">
  <path fill-rule="evenodd" clip-rule="evenodd"
    d="M4.81639 2.18654C5.10383 1.99542 5.18192 1.60748 4.99081 1.32004C4.79969 1.0326 4.41174 0.954508 4.1243 1.14562C3.1555 1.78977 2.29866 2.58857 1.58887 3.50683C1.37777 3.77993 1.42803 4.17246 1.70113 4.38356C1.97423 4.59466 2.36676 4.54439 2.57786 4.27129C3.20461 3.46046 3.96124 2.75512 4.81639 2.18654ZM15.2788 2.18655C14.9914 1.99543 14.9133 1.60749 15.1044 1.32005C15.2955 1.03261 15.6835 0.954518 15.9709 1.14563C16.9397 1.78978 17.7966 2.58858 18.5064 3.50684C18.7175 3.77994 18.6672 4.17247 18.3941 4.38357C18.121 4.59467 17.7285 4.5444 17.5174 4.2713C16.8906 3.46047 16.134 2.75513 15.2788 2.18655ZM17.0834 9.99936C17.0834 13.9114 13.912 17.0827 10 17.0827C6.088 17.0827 2.91669 13.9114 2.91669 9.99936C2.91669 6.08734 6.088 2.91603 10 2.91603C13.912 2.91603 17.0834 6.08734 17.0834 9.99936ZM14.6046 16.9461C13.2854 17.8223 11.7023 18.3327 10 18.3327C8.24394 18.3327 6.61474 17.7895 5.27124 16.862L3.77605 18.3572L3.77542 18.3578C3.53135 18.6019 3.13546 18.6021 2.89139 18.358C2.64731 18.1139 2.64732 17.7182 2.8914 17.4741L4.29334 16.0721C2.67644 14.5521 1.66669 12.3937 1.66669 9.99936C1.66669 5.39699 5.39765 1.66603 10 1.66603C14.6024 1.66603 18.3334 5.39699 18.3334 9.99936C18.3334 12.4467 17.2784 14.6476 15.5984 16.1722L16.9003 17.4741C17.1444 17.7182 17.1444 18.1139 16.9003 18.358C16.6562 18.6021 16.2605 18.6021 16.0164 18.358L14.6046 16.9461ZM9.14064 5.62436C9.14064 5.27918 9.42047 4.99936 9.76564 4.99936C10.1108 4.99936 10.3906 5.27918 10.3906 5.62436V9.63478H13.4896C13.8348 9.63478 14.1146 9.9146 14.1146 10.2598C14.1146 10.605 13.8348 10.8848 13.4896 10.8848H9.76564C9.44204 10.8848 9.17588 10.6388 9.14387 10.3237C9.14174 10.3027 9.14064 10.2813 9.14064 10.2598V5.62436Z"
    fill="white" />
</svg>
