<svg width="20" height="20" viewBox="0 0 20 20" fill="none" xmlns="http://www.w3.org/2000/svg">
<path d="M14.168 14.1663C13.0569 13.6354 11.7784 13.333 10.418 13.333C9.05752 13.333 7.77901 13.6354 6.66797 14.1663" stroke="white" stroke-width="1.25" stroke-linecap="round" stroke-linejoin="round"/>
<circle cx="2.08333" cy="2.08333" r="2.08333" transform="matrix(1 0 0 -1 8.33203 10.833)" stroke="white" stroke-width="1.25" stroke-linejoin="round"/>
<path d="M14.1654 1.6665H6.66536C4.82442 1.6665 3.33203 3.15889 3.33203 4.99984V14.9998C3.33203 16.8408 4.82442 18.3332 6.66537 18.3332H14.1654C16.0063 18.3332 17.4987 16.8408 17.4987 14.9998V4.99984C17.4987 3.15889 16.0063 1.6665 14.1654 1.6665Z" stroke="white" stroke-width="1.25"/>
<path d="M3.95703 13.9585H1.80469L1.67871 13.9458C1.3939 13.8876 1.17976 13.6355 1.17969 13.3335C1.17969 13.0314 1.39388 12.7794 1.67871 12.7212L1.80469 12.7085H3.95703V13.9585ZM3.95703 10.6245H1.80469L1.67871 10.6118C1.39391 10.5535 1.17969 10.3015 1.17969 9.99951C1.17992 9.69763 1.39397 9.44538 1.67871 9.38721L1.80469 9.37451H3.95703V10.6245ZM3.95703 7.2915H1.80469L1.67871 7.27881C1.39388 7.22055 1.17969 6.96855 1.17969 6.6665C1.17976 6.3645 1.3939 6.11242 1.67871 6.0542L1.80469 6.0415H3.95703V7.2915Z" fill="white"/>
</svg>
