<svg width="20" height="20" viewBox="0 0 20 20" fill="none" xmlns="http://www.w3.org/2000/svg">
  <path fill-rule="evenodd" clip-rule="evenodd"
    d="M13.75 3.74935V10.416C13.75 12.257 12.2576 13.7493 10.4167 13.7493H3.75002C1.90907 13.7493 0.416687 12.257 0.416687 10.416V3.74935C0.416687 1.9084 1.90907 0.416016 3.75002 0.416016H10.4167C12.2576 0.416016 13.75 1.9084 13.75 3.74935ZM1.66669 3.74935V10.416C1.66669 10.9686 1.88618 11.4985 2.27688 11.8892C2.66758 12.2799 3.19749 12.4993 3.75002 12.4993H10.4167C11.5673 12.4993 12.5 11.5666 12.5 10.416V3.74935C12.5 2.59876 11.5673 1.66602 10.4167 1.66602H3.75002C2.59943 1.66602 1.66669 2.59876 1.66669 3.74935Z"
    fill="white" />
  <path
    d="M16.25 5.62435C15.9067 5.62884 15.6295 5.90605 15.625 6.24935V12.916C15.6204 14.4099 14.4106 15.6198 12.9167 15.6243H6.25002C5.90484 15.6243 5.62502 15.9042 5.62502 16.2493C5.62502 16.5945 5.90484 16.8743 6.25002 16.8743H12.9167C15.1028 16.8743 16.875 15.1021 16.875 12.916V6.24935C16.8705 5.90605 16.5933 5.62884 16.25 5.62435Z"
    fill="white" />
</svg>
