<svg width="18" height="18" viewBox="0 0 18 18" fill="none" xmlns="http://www.w3.org/2000/svg">
  <path fill-rule="evenodd" clip-rule="evenodd"
    d="M12.375 3.375V9.375C12.375 11.0319 11.0319 12.375 9.375 12.375H3.375C1.71815 12.375 0.375 11.0319 0.375 9.375V3.375C0.375 1.71815 1.71815 0.375 3.375 0.375H9.375C11.0319 0.375 12.375 1.71815 12.375 3.375ZM1.5 3.375V9.375C1.5 9.87228 1.69754 10.3492 2.04917 10.7008C2.40081 11.0525 2.87772 11.25 3.375 11.25H9.375C10.4105 11.25 11.25 10.4105 11.25 9.375V3.375C11.25 2.33947 10.4105 1.5 9.375 1.5H3.375C2.33947 1.5 1.5 2.33947 1.5 3.375Z"
    fill="#B3BAD4" />
  <path
    d="M14.625 5.0625C14.316 5.06654 14.0665 5.31603 14.0625 5.625V11.625C14.0584 12.9695 12.9695 14.0584 11.625 14.0625H5.625C5.31434 14.0625 5.0625 14.3143 5.0625 14.625C5.0625 14.9357 5.31434 15.1875 5.625 15.1875H11.625C13.5925 15.1875 15.1875 13.5925 15.1875 11.625V5.625C15.1835 5.31603 14.934 5.06654 14.625 5.0625Z"
    fill="#B3BAD4" />
</svg>
