<svg width="20" height="20" viewBox="0 0 20 20" fill="none" xmlns="http://www.w3.org/2000/svg">
  <path
    d="M2.93732 7.97768C3.21565 4.4471 6.27135 1.66602 9.99992 1.66602C13.7282 1.66602 16.7838 4.44672 17.0625 7.97695C17.0761 8.02726 17.0833 8.08006 17.0833 8.13449V13.1075C17.0833 13.1705 17.0736 13.2312 17.0556 13.2885C16.7692 16.12 14.2962 18.3327 11.2879 18.3327H9.99999V17.0894H11.2879C13.4241 17.0894 15.2133 15.6548 15.678 13.7292H13.2197C12.864 13.7292 12.5757 13.4509 12.5757 13.1075V8.13449C12.5757 7.79117 12.864 7.51286 13.2197 7.51286H15.7047C15.22 4.89576 12.8503 2.90928 9.99992 2.90928C7.14955 2.90928 4.77979 4.89576 4.29518 7.51286H6.78029C7.13593 7.51286 7.42423 7.79117 7.42423 8.13449V13.1075C7.42423 13.4509 7.13593 13.7292 6.78029 13.7292H3.5606C3.20496 13.7292 2.91666 13.4509 2.91666 13.1075V8.13449C2.91666 8.08032 2.92383 8.02778 2.93732 7.97768ZM15.7953 8.75612H13.8636V12.4859H15.7954L15.7953 8.75612ZM4.20454 8.75612V12.4859H6.13635V8.75612H4.20454Z"
    fill="white" />
</svg>
