<svg width="20" height="20" viewBox="0 0 20 20" fill="none" xmlns="http://www.w3.org/2000/svg">
  <path fill-rule="evenodd" clip-rule="evenodd"
    d="M10 17.5C14.1421 17.5 17.5 14.1421 17.5 10C17.5 5.85786 14.1421 2.5 10 2.5C5.85786 2.5 2.5 5.85786 2.5 10C2.5 14.1421 5.85786 17.5 10 17.5ZM10 18.75C14.8325 18.75 18.75 14.8325 18.75 10C18.75 5.16751 14.8325 1.25 10 1.25C5.16751 1.25 1.25 5.16751 1.25 10C1.25 14.8325 5.16751 18.75 10 18.75Z"
    fill="white" />
  <path fill-rule="evenodd" clip-rule="evenodd"
    d="M13.5795 2.34221C13.8968 2.47818 14.0438 2.84561 13.9078 3.16287C13.6818 3.69024 13.3073 4.37124 12.902 4.96638C12.6987 5.26496 12.4801 5.55311 12.2603 5.79445C12.0502 6.02532 11.8004 6.25693 11.5295 6.39236C11.2834 6.5154 11.0742 6.58922 10.8778 6.6285C10.6865 6.66676 10.5306 6.66671 10.4255 6.66668L10.4167 6.66667C10.3135 6.66667 10.2644 6.66784 10.2007 6.68058C10.1511 6.6905 10.0779 6.71096 9.9681 6.75936C9.98475 6.79758 10.0074 6.84642 10.0382 6.908C10.059 6.94954 10.0829 6.99554 10.109 7.04569C10.3057 7.42323 10.625 8.03601 10.625 8.75001C10.625 9.22445 10.4398 9.66462 10.1841 10.0084C9.92859 10.352 9.57124 10.6423 9.16327 10.7941C8.74787 10.9487 8.24501 10.9676 7.78731 10.6913C7.3391 10.4207 7.04788 9.93513 6.89366 9.31826C6.80859 8.97797 6.69381 8.79479 6.60038 8.69468C6.51101 8.59892 6.41417 8.54987 6.30675 8.52301C6.19017 8.49387 6.05663 8.49011 5.9039 8.50102C5.83657 8.50583 5.77388 8.51269 5.70544 8.52018C5.69583 8.52123 5.68612 8.52229 5.67626 8.52337L5.67451 8.52356C5.60644 8.53096 5.50784 8.54167 5.41667 8.54167C5.41133 8.54167 5.40566 8.54168 5.39969 8.5417C5.30799 8.54186 5.14432 8.54214 4.98623 8.50827C4.7988 8.4681 4.54849 8.36614 4.3758 8.10711C4.21485 7.86569 4.18935 7.58738 4.20744 7.34316C4.22589 7.09408 4.2953 6.80434 4.40707 6.46903C4.64602 5.75219 4.30042 5.18431 4.14139 5.02528C3.89731 4.7812 3.89731 4.38548 4.14139 4.1414C4.38547 3.89732 4.7812 3.89732 5.02527 4.1414C5.42181 4.53793 6.02065 5.58115 5.59293 6.86432C5.53231 7.04616 5.49606 7.18439 5.47558 7.28745C5.49263 7.28583 5.51411 7.28363 5.54119 7.28069C5.54967 7.27976 5.55859 7.27878 5.56789 7.27776C5.63493 7.2704 5.7222 7.26082 5.81485 7.2542C6.0267 7.23907 6.30983 7.23531 6.60992 7.31034C6.91916 7.38765 7.23899 7.54692 7.5142 7.84179C7.78535 8.13231 7.98308 8.52204 8.10634 9.01509C8.21254 9.43988 8.36402 9.57933 8.43339 9.62122C8.49327 9.65737 8.58286 9.67634 8.72735 9.62258C8.87928 9.56605 9.04928 9.43969 9.18112 9.26243C9.31279 9.0854 9.375 8.90057 9.375 8.75001C9.375 8.362 9.20846 8.03467 9.00534 7.63544C8.97752 7.58076 8.94901 7.52473 8.92015 7.46702C8.8251 7.27692 8.67188 6.96653 8.67188 6.64063C8.67188 6.45053 8.72205 6.2501 8.84996 6.06737C8.9721 5.89289 9.1373 5.77425 9.30382 5.69099C9.5499 5.56795 9.75917 5.49413 9.95555 5.45485C10.1469 5.41659 10.3027 5.41664 10.4078 5.41667L10.4167 5.41667C10.5199 5.41667 10.569 5.4155 10.6326 5.40277C10.6967 5.38996 10.7999 5.35962 10.9705 5.27432C11.033 5.24308 11.1582 5.1483 11.336 4.95296C11.5043 4.76809 11.6867 4.5302 11.8688 4.2628C12.2344 3.726 12.5682 3.11533 12.7589 2.67047C12.8948 2.35321 13.2623 2.20624 13.5795 2.34221ZM5.45354 7.49885L5.45324 7.49671L5.45354 7.49885Z"
    fill="white" />
  <path fill-rule="evenodd" clip-rule="evenodd"
    d="M12.0458 12.5083C11.7148 12.5863 11.3963 12.8211 11.2754 12.9419C11.1879 13.0294 11.0971 13.2037 11.1305 13.4257C11.1626 13.6398 11.3308 14.0247 12.0135 14.4798C12.7649 14.9808 13.1489 15.6057 13.2701 16.2359C13.3874 16.8457 13.248 17.4019 13.0592 17.7794C12.9049 18.0881 12.5295 18.2133 12.2207 18.0589C11.912 17.9045 11.7868 17.5291 11.9412 17.2204C12.0302 17.0424 12.099 16.7652 12.0426 16.4721C11.9902 16.1995 11.8186 15.8522 11.3201 15.5199C10.4523 14.9414 9.99545 14.2847 9.89435 13.6113C9.79445 12.946 10.0622 12.3872 10.3917 12.0579C10.6209 11.8288 11.1357 11.4386 11.7588 11.2916C12.082 11.2154 12.4612 11.1987 12.8466 11.3333C13.2184 11.4631 13.5456 11.7163 13.8113 12.0918C13.9055 12.176 14.0625 12.2859 14.2389 12.3516C14.4338 12.4241 14.5905 12.4225 14.7206 12.3575C15.3067 12.0645 15.8572 12.2122 16.2649 12.4739C16.6454 12.7182 16.9508 13.0867 17.1669 13.3749C17.374 13.651 17.318 14.0428 17.0419 14.2499C16.7658 14.457 16.374 14.401 16.1669 14.1248C15.9664 13.8575 15.7717 13.6427 15.5897 13.5258C15.4348 13.4264 15.3602 13.4353 15.2796 13.4755C14.7431 13.7438 14.2053 13.6728 13.803 13.5231C13.4071 13.3758 13.0832 13.1334 12.8916 12.9419C12.8625 12.9128 12.8363 12.8809 12.8134 12.8466C12.6697 12.6309 12.5349 12.5485 12.4345 12.5134C12.3277 12.4761 12.1996 12.472 12.0458 12.5083Z"
    fill="white" />
</svg>
