<svg width="24" height="24" viewBox="0 0 24 24" fill="none" xmlns="http://www.w3.org/2000/svg">
  <rect width="24" height="24" rx="12" fill="#16C69C" />
  <path fill-rule="evenodd" clip-rule="evenodd"
    d="M6.29096 11.1353C6.26138 11.1391 6.23172 11.1409 6.20216 11.1409C5.95916 11.1409 5.72282 11.0148 5.5926 10.7892C5.57761 10.7633 5.56446 10.7367 5.55311 10.7098C5.50683 10.6261 5.48125 10.534 5.48125 10.4375C5.48125 10.3405 5.50706 10.2481 5.55375 10.164C5.6112 10.0278 5.71197 9.90842 5.84995 9.82876L10.0975 6.95376C10.4338 6.75947 10.8639 6.87478 11.058 7.21111C11.2522 7.54739 11.1369 7.97742 10.8007 8.17158L8.49175 9.73438H17.6321C18.1424 9.73438 18.5562 10.0492 18.5562 10.4375C18.5562 10.8258 18.1424 11.1406 17.6321 11.1406H6.40535C6.36662 11.1406 6.32844 11.1388 6.29096 11.1353Z"
    fill="white" />
  <path fill-rule="evenodd" clip-rule="evenodd"
    d="M17.709 12.8647C17.7386 12.8609 17.7683 12.8591 17.7978 12.8591C18.0408 12.8591 18.2772 12.9852 18.4074 13.2108C18.4224 13.2367 18.4355 13.2633 18.4469 13.2902C18.4932 13.3739 18.5187 13.466 18.5187 13.5625C18.5187 13.6595 18.4929 13.7519 18.4462 13.836C18.3888 13.9722 18.288 14.0916 18.1501 14.1712L13.9025 17.0462C13.5662 17.2405 13.1361 17.1252 12.942 16.7889C12.7478 16.4526 12.8631 16.0226 13.1993 15.8284L15.5083 14.2656H6.36795C5.8576 14.2656 5.44385 13.9508 5.44385 13.5625C5.44385 13.1742 5.8576 12.8594 6.36795 12.8594H17.5946C17.6334 12.8594 17.6716 12.8612 17.709 12.8647Z"
    fill="white" />
</svg>
