<svg width="20" height="20" viewBox="0 0 20 20" fill="none" xmlns="http://www.w3.org/2000/svg">
  <g clip-path="url(#clip0_4062_8896)">
    <path fill-rule="evenodd" clip-rule="evenodd"
      d="M15.1939 14.7785L14.2966 15.7375L15.2986 16.5865L15.8842 17.0827H9.99718C8.5967 17.0827 7.22767 16.6672 6.06322 15.8889C4.89877 15.1106 3.99118 14.0043 3.45524 12.71C2.91931 11.4157 2.77908 9.99148 3.0523 8.61745C3.32552 7.24342 3.99991 5.98129 4.9902 4.99067C5.98048 4.00006 7.24219 3.32543 8.61575 3.05212C9.98932 2.77881 11.4131 2.91909 12.7069 3.4552C14.0008 3.99132 15.1067 4.89921 15.8848 6.06406C16.6628 7.2289 17.0781 8.59839 17.0781 9.99934V10.0004C17.0796 11.7747 16.406 13.4831 15.1939 14.7785ZM18.3157 17.6384C18.2873 17.528 18.2255 17.429 18.1389 17.3549L17.0608 16.4414L16.1062 15.6327C16.2931 15.433 16.4691 15.2249 16.6339 15.0095C17.7293 13.5773 18.3293 11.8177 18.3277 9.99934C18.3277 8.35116 17.8391 6.74 16.9237 5.36959C16.0084 3.99919 14.7073 2.93108 13.1851 2.30036C11.6629 1.66963 9.98794 1.5046 8.37197 1.82614C6.75601 2.14768 5.27166 2.94136 4.10661 4.10679C2.94157 5.27223 2.14816 6.75708 1.82673 8.37359C1.50529 9.99009 1.67027 11.6656 2.30078 13.1884C2.9313 14.7111 3.99904 16.0126 5.36899 16.9282C6.73894 17.8439 8.34956 18.3327 9.99718 18.3327H17.7723C17.8863 18.3338 17.9979 18.2998 18.092 18.2353C18.186 18.1709 18.2579 18.079 18.298 17.9722C18.338 17.8654 18.3442 17.7489 18.3157 17.6384ZM10.8901 7.84249C11.0357 7.85043 11.1815 7.8296 11.3191 7.78118C11.4567 7.73276 11.5834 7.65771 11.692 7.5603C11.8006 7.46289 11.889 7.34504 11.952 7.21347C12.0151 7.08191 12.0517 6.9392 12.0596 6.7935C12.0675 6.64781 12.0467 6.50197 11.9983 6.36433C11.9499 6.22668 11.8749 6.09992 11.7775 5.99128C11.6801 5.88264 11.5623 5.79425 11.4308 5.73116C11.2993 5.66807 11.1566 5.63151 11.011 5.62356C10.8653 5.61562 10.7195 5.63646 10.5819 5.68488C10.4443 5.73329 10.3176 5.80835 10.209 5.90576C10.1004 6.00316 10.012 6.12102 9.94898 6.25258C9.88591 6.38415 9.84936 6.52686 9.84142 6.67255C9.83348 6.81825 9.85431 6.96408 9.90271 7.10173C9.95111 7.23938 10.0261 7.36614 10.1235 7.47478C10.2209 7.58341 10.3387 7.6718 10.4702 7.7349C10.6017 7.79799 10.7444 7.83455 10.8901 7.84249ZM11.7412 12.6215C10.2751 13.8882 10.7194 11.6659 10.786 11.3548C10.7996 11.2913 10.8503 11.161 10.9164 10.9911L10.9164 10.9911C11.1738 10.3292 11.6649 9.06679 11.1081 8.81039C10.4083 8.48817 8.25352 10.0771 8.25352 10.0771C8.25352 10.0771 7.89808 10.3326 7.9314 10.3993C8.16466 10.8104 9.19764 10.0771 9.19764 10.0771C9.19764 10.0771 9.55308 9.78817 9.51976 10.0771C9.20854 11.3287 8.99683 12.6031 8.88664 13.8882C9.04214 14.7326 10.375 14.377 11.4191 13.2548C12.4632 12.1326 11.7412 12.6215 11.7412 12.6215Z"
      fill="white" />
  </g>
  <defs>
    <clipPath id="clip0_4062_8896">
      <rect width="20" height="20" fill="white" />
    </clipPath>
  </defs>
</svg>
