<svg width="18" height="18" viewBox="0 0 18 18" fill="none" xmlns="http://www.w3.org/2000/svg">
  <path
    d="M11.1512 2.62823C12.2426 2.4181 13.1731 3.25435 13.339 4.32384H13.3396L13.6939 6.34465L12.671 6.52381L12.3167 4.503L12.3154 4.49692L12.3147 4.49016L12.813 4.41579L12.815 4.41511L12.3147 4.49016C12.2224 3.86979 11.7432 3.57173 11.3479 3.64776L4.33355 4.99789C3.91592 5.0783 3.53651 5.57342 3.62569 6.19929L4.56409 10.6763L3.54794 10.8893L2.60548 6.39062L3.11863 6.28245L2.60008 6.3602C2.44145 5.29367 3.06567 4.18472 4.13749 3.97836L11.1512 2.62823ZM2.60548 6.39062L2.6021 6.37575L2.60008 6.3602L3.1139 6.2838L2.60548 6.39062Z"
    fill="white" />
  <path
    d="M12.7703 13.8463V14.8848H5.33611V13.8463H12.7703ZM13.5316 13.0844V7.49114C13.5314 7.07069 13.1908 6.72989 12.7703 6.72987H5.33611C4.91574 6.73001 4.57498 7.07076 4.57484 7.49114V13.0844C4.57484 13.5049 4.91564 13.8462 5.33611 13.8463V14.8848L5.15221 14.8753C4.30522 14.7892 3.632 14.1159 3.54584 13.2689L3.53638 13.0844V7.49114C3.53651 6.55933 4.24471 5.79311 5.15221 5.70087L5.33611 5.69141H12.7703L12.9542 5.70087C13.8618 5.793 14.5699 6.55925 14.57 7.49114V13.0844L14.5612 13.2689C14.4751 14.116 13.8013 14.7893 12.9542 14.8753L12.7703 14.8848V13.8463C13.1909 13.8463 13.5316 13.5049 13.5316 13.0844Z"
    fill="white" />
  <path
    d="M10.9057 7.84725C11.1215 7.65848 11.4498 7.68018 11.6386 7.89593C11.8274 8.11177 11.8051 8.44 11.5892 8.6288L10.2648 9.78761H14.9054C15.1921 9.78761 15.4245 10.0202 15.4246 10.3068C15.4246 10.5936 15.1922 10.8261 14.9054 10.8261H10.1356L11.2823 11.9727C11.4848 12.1754 11.4848 12.5042 11.2823 12.7069C11.0795 12.9097 10.7501 12.9097 10.5474 12.7069L8.51507 10.6746C8.41347 10.573 8.35819 10.4335 8.36296 10.2899C8.36775 10.1463 8.43191 10.0107 8.54009 9.91606L10.9057 7.84725Z"
    fill="white" />
</svg>
