<svg width="20" height="20" viewBox="0 0 20 20" fill="none" xmlns="http://www.w3.org/2000/svg">
  <path fill-rule="evenodd" clip-rule="evenodd"
    d="M9.99999 17.0827C13.912 17.0827 17.0833 13.9114 17.0833 9.99935C17.0833 6.08733 13.912 2.91602 9.99999 2.91602C6.08797 2.91602 2.91666 6.08733 2.91666 9.99935C2.91666 13.9114 6.08797 17.0827 9.99999 17.0827ZM18.3333 9.99935C18.3333 14.6017 14.6024 18.3327 9.99999 18.3327C5.39762 18.3327 1.66666 14.6017 1.66666 9.99935C1.66666 5.39698 5.39762 1.66602 9.99999 1.66602C14.6024 1.66602 18.3333 5.39698 18.3333 9.99935Z"
    fill="white" />
  <path
    d="M10.2129 5.83398C9.37729 5.83398 8.71337 6.07437 8.2326 6.56659C7.74038 7.04735 7.5 7.69983 7.5 8.53545H8.71337C8.71337 8.03179 8.81639 7.63115 9.02244 7.35642C9.25137 7.03591 9.62912 6.87565 10.1442 6.87565C10.5563 6.87565 10.8768 6.99012 11.1058 7.21906C11.3233 7.448 11.4377 7.75706 11.4377 8.1577C11.4377 8.45532 11.3347 8.73005 11.1287 8.99332L10.9341 9.21082C10.2244 9.84039 9.78938 10.3097 9.62912 10.6302C9.48031 10.9278 9.41163 11.2941 9.41163 11.7177V11.9123H10.6364V11.7177C10.6364 11.4315 10.6937 11.1797 10.8196 10.9507C10.9226 10.7447 11.0829 10.5501 11.2889 10.367C11.8384 9.89763 12.1589 9.60001 12.2619 9.47409C12.5366 9.10779 12.6854 8.63847 12.6854 8.07757C12.6854 7.39076 12.4565 6.84131 12.0101 6.44067C11.5522 6.02858 10.957 5.83398 10.2129 5.83398ZM10.0183 12.5304C9.77793 12.5304 9.58333 12.5991 9.43452 12.7594C9.26282 12.9082 9.18269 13.1028 9.18269 13.3431C9.18269 13.5721 9.26282 13.7667 9.43452 13.9269C9.58333 14.0872 9.77793 14.1673 10.0183 14.1673C10.2473 14.1673 10.4533 14.0872 10.625 13.9384C10.7853 13.7781 10.8654 13.5835 10.8654 13.3431C10.8654 13.1028 10.7853 12.9082 10.625 12.7594C10.4647 12.5991 10.2587 12.5304 10.0183 12.5304Z"
    fill="white" />
</svg>
