<svg width="22" height="22" viewBox="0 0 22 22" fill="none" xmlns="http://www.w3.org/2000/svg">
  <path
    d="M5.13286 16.4391C3.63362 14.9398 2.79135 12.9064 2.79135 10.7862C2.79135 8.66594 3.63362 6.63253 5.13286 5.13329C6.6321 3.63405 8.66551 2.79178 10.7858 2.79178C12.906 2.79178 14.9394 3.63405 16.4387 5.13329C17.9379 6.63253 18.7802 8.66594 18.7802 10.7862C18.7802 12.9064 17.9379 14.9398 16.4387 16.4391C14.9394 17.9383 12.906 18.7806 10.7858 18.7806C8.66551 18.7806 6.6321 17.9383 5.13286 16.4391Z"
    stroke="white" stroke-width="1.26923" />
  <path
    d="M19.0968 19.8444C18.9057 19.8444 18.7146 19.7715 18.5689 19.6258L15.9527 17.0096C15.6613 16.7182 15.6613 16.2456 15.9527 15.9539C16.2441 15.6624 16.7168 15.6624 17.0085 15.9539L19.6247 18.57C19.9161 18.8614 19.9161 19.3341 19.6247 19.6258C19.4789 19.7715 19.2879 19.8444 19.0968 19.8444Z"
    fill="white" />
  <path
    d="M5.27262 11.1152C4.94724 11.1152 4.68359 10.8516 4.68359 10.5262C4.68359 9.05363 5.25707 7.66896 6.29846 6.6278C7.33985 5.58641 8.72429 5.01294 10.1968 5.01294C10.5222 5.01294 10.7859 5.27659 10.7859 5.60196C10.7859 5.92734 10.5222 6.19098 10.1968 6.19098C7.80635 6.19098 5.86164 8.1357 5.86164 10.5262C5.86164 10.8516 5.59799 11.1152 5.27262 11.1152Z"
    fill="white" />
</svg>
