<svg width="22" height="22" viewBox="0 0 22 22" fill="none" xmlns="http://www.w3.org/2000/svg">
  <path fill-rule="evenodd" clip-rule="evenodd"
    d="M11.4016 1.1369C11.1515 0.999357 10.8485 0.999357 10.5984 1.1369L2.26507 5.72023C1.99878 5.86669 1.83333 6.1465 1.83333 6.45041V15.5483C1.83333 15.8522 1.99878 16.132 2.26507 16.2785L10.5984 20.8618C10.8485 20.9993 11.1515 20.9993 11.4016 20.8618L19.7349 16.2785C20.0012 16.132 20.1667 15.8522 20.1667 15.5483V6.45041C20.1667 6.1465 20.0012 5.86669 19.7349 5.72023L11.4016 1.1369ZM18.7917 7.26341C18.7917 6.9595 18.6262 6.67969 18.3599 6.53323L11.4016 2.70614C11.1515 2.56861 10.8485 2.56861 10.5984 2.70614L3.64007 6.53323C3.37378 6.67969 3.20833 6.9595 3.20833 7.26341V14.7353C3.20833 15.0392 3.37378 15.319 3.64007 15.4655L10.5984 19.2926C10.8485 19.4301 11.1515 19.4301 11.4016 19.2926L18.3599 15.4655C18.6262 15.319 18.7917 15.0392 18.7917 14.7353V7.26341Z"
    fill="white" />
  <path fill-rule="evenodd" clip-rule="evenodd"
    d="M11 14.1058C12.7618 14.1058 14.1613 12.6993 14.1613 10.9993C14.1613 9.29938 12.7618 7.89284 11 7.89284C9.23822 7.89284 7.83866 9.29938 7.83866 10.9993C7.83866 12.6993 9.23822 14.1058 11 14.1058ZM11 15.4808C13.5053 15.4808 15.5363 13.4744 15.5363 10.9993C15.5363 8.52427 13.5053 6.51784 11 6.51784C8.49464 6.51784 6.46366 8.52427 6.46366 10.9993C6.46366 13.4744 8.49464 15.4808 11 15.4808Z"
    fill="white" />
</svg>
