<svg width="48" height="48" viewBox="0 0 48 48" fill="none" xmlns="http://www.w3.org/2000/svg">
  <g clip-path="url(#clip0_6483_14227)">
    <path
      d="M47 24C47 11.2975 36.7025 1 24 1C11.2975 1 1 11.2975 1 24C1 36.7025 11.2975 47 24 47C36.7025 47 47 36.7025 47 24Z"
      fill="white" />
    <path
      d="M47 24C47 11.2975 36.7025 1 24 1C11.2975 1 1 11.2975 1 24C1 36.7025 11.2975 47 24 47C36.7025 47 47 36.7025 47 24Z"
      stroke="#060613" stroke-width="2" />
    <path d="M18.166 25.875L23.9993 31.5M23.9993 31.5L29.8327 25.875M23.9993 31.5V16.5" stroke="#060613"
      stroke-width="1.5" stroke-linecap="round" stroke-linejoin="round" />
  </g>
  <defs>
    <clipPath id="clip0_6483_14227">
      <rect width="48" height="48" fill="white" />
    </clipPath>
  </defs>
</svg>
