<svg width="24" height="24" viewBox="0 0 24 24" fill="none" xmlns="http://www.w3.org/2000/svg">
  <rect width="24" height="24" rx="12" fill="#FFB624" />
  <path
    d="M12 20.4984C11.9076 20.4986 11.8162 20.4804 11.7309 20.4451C11.6455 20.4097 11.5681 20.3579 11.5028 20.2925L4.70775 13.4974C4.57597 13.3656 4.50188 13.1869 4.50178 13.0005L4.5 9.25055C4.49994 9.13041 4.53067 9.01226 4.58925 8.90738L6.28978 5.86228C6.35079 5.75303 6.43984 5.66204 6.54775 5.5987C6.65567 5.53535 6.77853 5.50196 6.90366 5.50195H17.0963C17.2215 5.50196 17.3443 5.53536 17.4523 5.5987C17.5602 5.66204 17.6492 5.75303 17.7103 5.86228L19.4108 8.90738C19.4693 9.01227 19.5 9.13042 19.5 9.25055L19.4982 13.0005C19.4981 13.1869 19.424 13.3656 19.2922 13.4974L12.4972 20.2925C12.4319 20.3579 12.3545 20.4097 12.2691 20.4451C12.1838 20.4804 12.0924 20.4986 12 20.4984ZM5.90789 12.7088L12 18.801L18.0921 12.7088L18.0937 9.43313L16.6837 6.9083H7.31634L5.90634 9.43313L5.90789 12.7088Z"
    fill="white" />
  <path
    d="M12 15.7308C11.9077 15.7309 11.8162 15.7128 11.7309 15.6774C11.6456 15.6421 11.5681 15.5902 11.5029 15.5248L8.86781 12.8898C8.59322 12.6152 8.59322 12.17 8.86781 11.8954C9.14236 11.6208 9.58758 11.6208 9.86217 11.8954L12 14.0333L14.1379 11.8954C14.4125 11.6209 14.8577 11.6209 15.1323 11.8954C15.4069 12.17 15.4069 12.6152 15.1323 12.8898L12.4972 15.5249C12.432 15.5903 12.3545 15.6421 12.2692 15.6775C12.1839 15.7128 12.0924 15.7309 12 15.7308V15.7308Z"
    fill="white" />
</svg>
