<svg width="58" height="32" viewBox="0 0 58 32" fill="none" xmlns="http://www.w3.org/2000/svg">
  <path
    d="M2.61673 12.3875C2.0301 10.7997 3.80828 9.38276 5.22502 10.3091L21.6467 21.0463C23.1077 22.0016 22.4313 24.2722 20.6857 24.2722H8.23106C7.49592 24.2722 6.83858 23.8143 6.5838 23.1248L2.61673 12.3875Z"
    fill="url(#paint0_linear_0_1)" />
  <path
    d="M29.6841 12.3659C30.2768 10.782 28.5078 9.35785 27.0869 10.2751L10.4107 21.0408C8.93969 21.9904 9.61224 24.2722 11.3632 24.2722H24.0108C24.7433 24.2722 25.3988 23.8176 25.6555 23.1316L29.6841 12.3659Z"
    fill="url(#paint1_linear_0_1)" />
  <path
    d="M14.5782 7.34117C15.2187 6.02288 17.0969 6.02288 17.7374 7.34117L24.8172 21.9142C25.3838 23.0805 24.5344 24.4377 23.2376 24.4377H9.07795C7.78123 24.4377 6.93175 23.0805 7.49839 21.9142L14.5782 7.34117Z"
    fill="url(#paint2_linear_0_1)" />
  <mask id="mask0_0_1" style="mask-type:alpha" maskUnits="userSpaceOnUse" x="7" y="6" width="18" height="19">
    <path
      d="M14.5792 7.33922C15.2197 6.02093 17.0979 6.02093 17.7383 7.33922L24.8182 21.9122C25.3848 23.0786 24.5353 24.4357 23.2386 24.4357H9.07892C7.78221 24.4357 6.93273 23.0786 7.49937 21.9122L14.5792 7.33922Z"
      fill="url(#paint3_linear_0_1)" />
  </mask>
  <g mask="url(#mask0_0_1)">
    <g filter="url(#filter0_f_0_1)">
      <ellipse cx="21.9321" cy="17.422" rx="10.4282" ry="2.81069" transform="rotate(78.3034 21.9321 17.422)"
        fill="#FFF5D2" fill-opacity="0.8" />
    </g>
  </g>
  <circle cx="16.1581" cy="2.60097" r="1.81972" fill="url(#paint4_linear_0_1)" />
  <circle cx="1.77842" cy="7.89512" r="1.48887" fill="url(#paint5_linear_0_1)" />
  <circle cx="30.461" cy="7.89512" r="1.48887" fill="url(#paint6_linear_0_1)" />
  <rect x="6.93408" y="25.8711" width="18.0989" height="2.46803" rx="1.23401" fill="url(#paint7_linear_0_1)" />
  <path
    d="M35.6357 11.1289H55.8633C56.8237 11.1289 57.6025 11.9077 57.6025 12.8682V24.6943C57.6025 25.6548 56.8237 26.4336 55.8633 26.4336H31.0078C29.7831 26.4336 28.9424 25.2011 29.3887 24.0605L34.0156 12.2344C34.2765 11.5677 34.9198 11.1289 35.6357 11.1289Z"
    fill="url(#paint8_linear_0_1)" stroke="url(#paint9_linear_0_1)" stroke-width="0.695652" />
  <defs>
    <filter id="filter0_f_0_1" x="14.9492" y="3.68116" width="13.9658" height="27.4814" filterUnits="userSpaceOnUse"
      color-interpolation-filters="sRGB">
      <feFlood flood-opacity="0" result="BackgroundImageFix" />
      <feBlend mode="normal" in="SourceGraphic" in2="BackgroundImageFix" result="shape" />
      <feGaussianBlur stdDeviation="1.7561" result="effect1_foregroundBlur_0_1" />
    </filter>
    <linearGradient id="paint0_linear_0_1" x1="2.33861" y1="12.1959" x2="11.9971" y2="19.2203"
      gradientUnits="userSpaceOnUse">
      <stop stop-color="#FFE176" />
      <stop offset="1" stop-color="#FFA800" />
    </linearGradient>
    <linearGradient id="paint1_linear_0_1" x1="28.9723" y1="10.1471" x2="23.1186" y2="20.6837"
      gradientUnits="userSpaceOnUse">
      <stop stop-color="#FFE483" />
      <stop offset="1" stop-color="#F29100" />
    </linearGradient>
    <linearGradient id="paint2_linear_0_1" x1="11.1007" y1="14.5643" x2="21.3594" y2="14.5643"
      gradientUnits="userSpaceOnUse">
      <stop offset="0.49738" stop-color="#FCE77B" />
      <stop offset="0.49738" stop-color="#FFCC1D" />
    </linearGradient>
    <linearGradient id="paint3_linear_0_1" x1="11.1017" y1="14.5623" x2="21.3604" y2="14.5623"
      gradientUnits="userSpaceOnUse">
      <stop offset="0.49738" stop-color="#FCE77B" />
      <stop offset="0.49738" stop-color="#FFCC1D" />
    </linearGradient>
    <linearGradient id="paint4_linear_0_1" x1="16.1581" y1="0.78125" x2="16.1581" y2="4.4207"
      gradientUnits="userSpaceOnUse">
      <stop stop-color="#FFCD1D" />
      <stop offset="1" stop-color="#FF971D" />
    </linearGradient>
    <linearGradient id="paint5_linear_0_1" x1="1.77842" y1="6.40625" x2="1.77842" y2="9.38398"
      gradientUnits="userSpaceOnUse">
      <stop stop-color="#FFCD1D" />
      <stop offset="1" stop-color="#FF971D" />
    </linearGradient>
    <linearGradient id="paint6_linear_0_1" x1="30.461" y1="6.40625" x2="30.461" y2="9.38398"
      gradientUnits="userSpaceOnUse">
      <stop stop-color="#FFCD1D" />
      <stop offset="1" stop-color="#FF971D" />
    </linearGradient>
    <linearGradient id="paint7_linear_0_1" x1="7.13975" y1="27.1051" x2="25.2386" y2="27.1051"
      gradientUnits="userSpaceOnUse">
      <stop stop-color="#FDE07C" />
      <stop offset="1" stop-color="#FDE07C" stop-opacity="0" />
    </linearGradient>
    <linearGradient id="paint8_linear_0_1" x1="34.5589" y1="10.7813" x2="77.3415" y2="26.0856"
      gradientUnits="userSpaceOnUse">
      <stop stop-color="#FDE87C" />
      <stop offset="1" stop-color="#F7C136" />
    </linearGradient>
    <linearGradient id="paint9_linear_0_1" x1="76.298" y1="10.7812" x2="71.4284" y2="26.7813"
      gradientUnits="userSpaceOnUse">
      <stop stop-color="white" stop-opacity="0.55" />
      <stop offset="1" stop-color="white" stop-opacity="0" />
    </linearGradient>
  </defs>
</svg>
