<svg width="22" height="22" viewBox="0 0 22 22" fill="none" xmlns="http://www.w3.org/2000/svg">
  <circle cx="2.91342" cy="9.04666" r="1.39391" stroke="white" stroke-width="0.846154" />
  <circle cx="11.0199" cy="5.05539" r="1.39391" stroke="white" stroke-width="0.846154" />
  <circle cx="19.0865" cy="9.04666" r="1.39391" stroke="white" stroke-width="0.846154" />
  <path d="M8.15991 15.6105H13.7031" stroke="white" stroke-width="1.26923" stroke-linecap="round" />
  <path
    d="M4.81728 18.462L3.30747 11.3209C3.19424 10.7854 3.73043 10.3439 4.23428 10.5578L6.95065 11.711C7.25149 11.8387 7.60061 11.7333 7.78043 11.4604L10.5083 7.3205C10.7708 6.9221 11.352 6.91302 11.6269 7.30302L14.5607 11.4663C14.7502 11.7352 15.1056 11.829 15.4031 11.6885L17.6297 10.6368C18.1373 10.3971 18.6994 10.8438 18.5803 11.3924L17.0455 18.4655C16.978 18.7768 16.7026 18.9989 16.384 18.9989H5.47956C5.15968 18.9989 4.88345 18.775 4.81728 18.462Z"
    stroke="white" stroke-width="1.26923" />
</svg>
