<svg width="23" height="23" viewBox="0 0 23 23" fill="none" xmlns="http://www.w3.org/2000/svg">
  <path
    d="M7.3488 14.6789L10.5277 11.4999L7.34893 8.32113L8.3212 7.34886L11.5 10.5277L14.6788 7.34886L15.6511 8.32113L12.4723 11.4999L15.6512 14.6789L14.6789 15.6511L11.5 12.4722L8.32107 15.6511L7.3488 14.6789Z"
    fill="#B3BAD4" />
  <path
    d="M11.5 1.875C16.8157 1.875 21.125 6.18426 21.125 11.5C21.125 16.8157 16.8157 21.125 11.5 21.125C6.18426 21.125 1.875 16.8157 1.875 11.5C1.875 6.18426 6.18426 1.875 11.5 1.875ZM11.5 3.25C6.94365 3.25 3.25 6.94365 3.25 11.5C3.25 16.0563 6.94365 19.75 11.5 19.75C16.0563 19.75 19.75 16.0564 19.75 11.5C19.75 6.94365 16.0564 3.25 11.5 3.25Z"
    fill="#B3BAD4" />
</svg>
