<svg width="41" height="40" viewBox="0 0 41 40" fill="none" xmlns="http://www.w3.org/2000/svg">
<rect x="0.625" width="40" height="40" rx="20" fill="#353649"/>
<path d="M20.625 10.25C18.6966 10.25 16.8116 10.8218 15.2082 11.8932C13.6048 12.9645 12.3551 14.4873 11.6172 16.2688C10.8792 18.0504 10.6861 20.0108 11.0623 21.9021C11.4386 23.7934 12.3672 25.5307 13.7307 26.8943C15.0943 28.2579 16.8316 29.1865 18.7229 29.5627C20.6142 29.9389 22.5746 29.7458 24.3562 29.0078C26.1377 28.2699 27.6605 27.0202 28.7318 25.4168C29.8032 23.8134 30.375 21.9284 30.375 20C30.3723 17.415 29.3442 14.9366 27.5163 13.1087C25.6884 11.2808 23.21 10.2527 20.625 10.25ZM21.375 28.2153V22.25H23.625C23.8239 22.25 24.0147 22.171 24.1553 22.0303C24.296 21.8897 24.375 21.6989 24.375 21.5C24.375 21.3011 24.296 21.1103 24.1553 20.9697C24.0147 20.829 23.8239 20.75 23.625 20.75H21.375V18.5C21.375 18.1022 21.533 17.7206 21.8143 17.4393C22.0956 17.158 22.4772 17 22.875 17H24.375C24.5739 17 24.7647 16.921 24.9053 16.7803C25.046 16.6397 25.125 16.4489 25.125 16.25C25.125 16.0511 25.046 15.8603 24.9053 15.7197C24.7647 15.579 24.5739 15.5 24.375 15.5H22.875C22.0794 15.5 21.3163 15.8161 20.7537 16.3787C20.1911 16.9413 19.875 17.7044 19.875 18.5V20.75H17.625C17.4261 20.75 17.2353 20.829 17.0947 20.9697C16.954 21.1103 16.875 21.3011 16.875 21.5C16.875 21.6989 16.954 21.8897 17.0947 22.0303C17.2353 22.171 17.4261 22.25 17.625 22.25H19.875V28.2153C17.7607 28.0223 15.8023 27.0217 14.407 25.4215C13.0117 23.8214 12.2869 21.7449 12.3835 19.6241C12.4802 17.5032 13.3906 15.5013 14.9256 14.0346C16.4606 12.5679 18.502 11.7495 20.625 11.7495C22.7481 11.7495 24.7894 12.5679 26.3244 14.0346C27.8594 15.5013 28.7699 17.5032 28.8665 19.6241C28.9631 21.7449 28.2383 23.8214 26.843 25.4215C25.4477 27.0217 23.4893 28.0223 21.375 28.2153Z" fill="white"/>
</svg>
