<svg width="41" height="40" viewBox="0 0 41 40" fill="none" xmlns="http://www.w3.org/2000/svg">
<rect x="0.375" width="40" height="40" rx="20" fill="#353649"/>
<path d="M29.8324 10.4551C29.7162 10.3548 29.5748 10.2881 29.4235 10.2621C29.2721 10.2362 29.1166 10.252 28.9736 10.308L9.97425 17.7433C9.70498 17.848 9.47702 18.0373 9.32467 18.2828C9.17233 18.5283 9.10385 18.8166 9.12955 19.1043C9.15525 19.3921 9.27374 19.6637 9.46716 19.8783C9.66059 20.0929 9.9185 20.2389 10.2021 20.2942L15.1249 21.2608V26.7498C15.1239 27.0488 15.2128 27.3412 15.3799 27.5891C15.5471 27.837 15.7848 28.029 16.0624 28.1401C16.3395 28.2533 16.6442 28.2805 16.937 28.2181C17.2298 28.1557 17.497 28.0067 17.7039 27.7905L20.0777 25.3286L23.8436 28.6248C24.1153 28.8658 24.4657 28.9992 24.8289 28.9998C24.9881 28.9997 25.1462 28.9747 25.2977 28.9258C25.5451 28.8472 25.7677 28.7053 25.9432 28.514C26.1187 28.3227 26.241 28.0887 26.298 27.8355L30.1033 11.2811C30.1373 11.1318 30.1301 10.976 30.0824 10.8305C30.0347 10.685 29.9482 10.5553 29.8324 10.4551ZM24.1005 13.8301L15.7014 19.8451L11.0514 18.933L24.1005 13.8301ZM16.6249 26.7498V22.2986L18.9489 24.3367L16.6249 26.7498ZM24.8308 27.4998L17.0796 20.703L28.2358 12.707L24.8308 27.4998Z" fill="white"/>
</svg>
