<svg width="41" height="40" viewBox="0 0 41 40" fill="none" xmlns="http://www.w3.org/2000/svg">
<rect x="0.875" width="40" height="40" rx="20" fill="#353649"/>
<path d="M26.4606 21.5787L23.4606 20.0787C23.3425 20.0199 23.2109 19.9933 23.0793 20.0015C22.9476 20.0097 22.8204 20.0525 22.7106 20.1256L21.3334 21.0444C20.7012 20.6968 20.1809 20.1766 19.8334 19.5444L20.7521 18.1672C20.8252 18.0573 20.868 17.9302 20.8763 17.7985C20.8845 17.6668 20.8578 17.5353 20.799 17.4172L19.299 14.4172C19.2368 14.2916 19.1407 14.186 19.0216 14.1123C18.9024 14.0385 18.765 13.9996 18.6249 14C17.6304 14 16.6765 14.3951 15.9733 15.0984C15.27 15.8016 14.8749 16.7554 14.8749 17.75C14.8774 19.9373 15.7474 22.0343 17.294 23.5809C18.8407 25.1275 20.9377 25.9975 23.1249 26C23.6174 26 24.105 25.903 24.56 25.7145C25.015 25.5261 25.4284 25.2499 25.7766 24.9017C26.1248 24.5534 26.401 24.14 26.5895 23.6851C26.7779 23.2301 26.8749 22.7425 26.8749 22.25C26.875 22.1107 26.8363 21.9741 26.7631 21.8555C26.6899 21.7369 26.5852 21.6411 26.4606 21.5787ZM23.1249 24.5C21.3353 24.498 19.6196 23.7862 18.3542 22.5208C17.0887 21.2553 16.3769 19.5396 16.3749 17.75C16.3748 17.2298 16.5549 16.7256 16.8846 16.3233C17.2143 15.9209 17.6733 15.6452 18.1834 15.5431L19.2596 17.6994L18.3437 19.0625C18.2752 19.1652 18.2332 19.2831 18.2212 19.406C18.2093 19.5288 18.2279 19.6526 18.2752 19.7666C18.8119 21.0419 19.8264 22.0565 21.1018 22.5931C21.2161 22.6426 21.3409 22.6629 21.4649 22.6521C21.589 22.6413 21.7084 22.5998 21.8124 22.5312L23.1821 21.6181L25.3384 22.6944C25.2355 23.205 24.9586 23.6642 24.5549 23.9935C24.1513 24.3228 23.6459 24.5018 23.1249 24.5ZM20.8749 10.25C19.1916 10.2496 17.5369 10.6851 16.0718 11.514C14.6067 12.3428 13.3812 13.5369 12.5145 14.98C11.6478 16.423 11.1694 18.0659 11.126 19.7486C11.0826 21.4314 11.4756 23.0967 12.2668 24.5825L11.2027 27.7747C11.1146 28.039 11.1018 28.3226 11.1658 28.5938C11.2298 28.8649 11.368 29.1129 11.565 29.3099C11.762 29.5069 12.01 29.6451 12.2812 29.7091C12.5523 29.7731 12.8359 29.7603 13.1002 29.6722L16.2924 28.6081C17.6 29.3036 19.0489 29.6921 20.529 29.744C22.0092 29.7959 23.4817 29.51 24.8348 28.9079C26.1879 28.3057 27.3861 27.4033 28.3384 26.269C29.2906 25.1346 29.972 23.7983 30.3307 22.3613C30.6894 20.9244 30.716 19.4246 30.4085 17.9758C30.101 16.527 29.4675 15.1673 28.5561 13.9999C27.6447 12.8325 26.4793 11.8881 25.1483 11.2384C23.8174 10.5886 22.356 10.2506 20.8749 10.25ZM20.8749 28.25C19.4246 28.251 17.9997 27.8691 16.7443 27.1428C16.6524 27.0895 16.5502 27.0563 16.4445 27.0455C16.3388 27.0347 16.232 27.0464 16.1312 27.08L12.6249 28.25L13.794 24.7438C13.8277 24.643 13.8396 24.5362 13.8289 24.4305C13.8183 24.3248 13.7853 24.2226 13.7321 24.1306C12.8227 22.5584 12.4576 20.7299 12.6934 18.929C12.9292 17.128 13.7527 15.4552 15.0363 14.1701C16.3198 12.8849 17.9916 12.0593 19.7922 11.8212C21.5929 11.5831 23.4218 11.9459 24.9952 12.8533C26.5686 13.7607 27.7986 15.162 28.4943 16.8398C29.1901 18.5176 29.3127 20.3781 28.8431 22.1327C28.3736 23.8873 27.3382 25.4379 25.8974 26.5439C24.4567 27.65 22.6913 28.2497 20.8749 28.25Z" fill="white"/>
</svg>
