<svg width="41" height="40" viewBox="0 0 41 40" fill="none" xmlns="http://www.w3.org/2000/svg">
<rect x="0.125" width="40" height="40" rx="20" fill="#353649"/>
<path d="M28.2578 27.8478L22.389 18.6247L28.1799 12.2544C28.3109 12.1067 28.3784 11.9134 28.3678 11.7164C28.3572 11.5193 28.2694 11.3343 28.1233 11.2016C27.9773 11.0689 27.7848 10.9991 27.5876 11.0073C27.3904 11.0155 27.2044 11.1012 27.0699 11.2456L21.5537 17.3131L17.7578 11.3478C17.6901 11.2413 17.5966 11.1535 17.486 11.0927C17.3753 11.0319 17.2512 11 17.1249 11H12.6249C12.4905 10.9999 12.3585 11.036 12.2427 11.1045C12.127 11.173 12.0318 11.2713 11.9671 11.3892C11.9024 11.5071 11.8706 11.6402 11.875 11.7746C11.8794 11.909 11.9199 12.0397 11.9921 12.1531L17.8609 21.3753L12.0699 27.7503C12.0023 27.823 11.9498 27.9083 11.9154 28.0014C11.881 28.0945 11.8654 28.1935 11.8696 28.2927C11.8737 28.3918 11.8975 28.4892 11.9395 28.5791C11.9816 28.669 12.041 28.7496 12.1145 28.8164C12.1879 28.8831 12.2739 28.9346 12.3674 28.9679C12.4609 29.0012 12.5601 29.0156 12.6592 29.0103C12.7583 29.0049 12.8554 28.98 12.9447 28.9369C13.0341 28.8937 13.1141 28.8333 13.1799 28.7591L18.6962 22.6916L22.4921 28.6569C22.5604 28.7625 22.6541 28.8494 22.7647 28.9093C22.8753 28.9693 22.9992 29.0005 23.1249 29H27.6249C27.7593 29 27.8911 28.9638 28.0067 28.8954C28.1223 28.827 28.2174 28.7288 28.2821 28.611C28.3468 28.4933 28.3786 28.3604 28.3743 28.2261C28.3701 28.0918 28.3298 27.9612 28.2578 27.8478ZM23.5365 27.5L13.9909 12.5H16.7096L26.259 27.5H23.5365Z" fill="white"/>
</svg>
