<svg width="42" height="42" viewBox="0 0 42 42" fill="none" xmlns="http://www.w3.org/2000/svg">
  <circle cx="21" cy="21" r="21" fill="white" />
  <path
    d="M27.6366 15.114H27.2699L24.1716 12.0157C23.9241 11.7682 23.5208 11.7682 23.2641 12.0157C23.0166 12.2632 23.0166 12.6665 23.2641 12.9232L25.4549 15.114H16.5449L18.7358 12.9232C18.9833 12.6757 18.9833 12.2724 18.7358 12.0157C18.4883 11.7682 18.0849 11.7682 17.8283 12.0157L14.7391 15.114H14.3724C13.5474 15.114 11.8333 15.114 11.8333 17.4607C11.8333 18.3499 12.0166 18.9365 12.4016 19.3215C12.6216 19.5507 12.8874 19.6699 13.1716 19.734C13.4374 19.7982 13.7216 19.8074 13.9966 19.8074H28.0033C28.2874 19.8074 28.5533 19.789 28.8099 19.734C29.5799 19.5507 30.1666 19.0007 30.1666 17.4607C30.1666 15.114 28.4524 15.114 27.6366 15.114Z"
    fill="#0D0E0E" />
  <path
    d="M27.4992 21H14.5009C13.9326 21 13.5017 21.5042 13.5934 22.0633L14.3634 26.775C14.6201 28.3517 15.3076 30.1667 18.3601 30.1667H23.5026C26.5917 30.1667 27.1417 28.6175 27.4717 26.885L28.3976 22.0908C28.5076 21.5225 28.0767 21 27.4992 21ZM23.6401 24.7125L20.6609 27.4625C20.5326 27.5817 20.3676 27.6458 20.1934 27.6458C20.0192 27.6458 19.8451 27.5817 19.7076 27.4442L18.3326 26.0692C18.0667 25.8033 18.0667 25.3633 18.3326 25.0975C18.6076 24.8317 19.0384 24.8317 19.3134 25.0975L20.2209 26.005L22.7142 23.7042C22.9892 23.4475 23.4292 23.4658 23.6859 23.7408C23.9426 24.025 23.9242 24.4558 23.6401 24.7125Z"
    fill="#0D0E0E" />
</svg>
