<svg width="24" height="24" viewBox="0 0 24 24" fill="none" xmlns="http://www.w3.org/2000/svg">
<path d="M12 1.59961C13.0006 1.59961 13.9856 1.74655 14.9287 2.02344C14.7604 2.33194 14.6584 2.64604 14.6211 2.96289C14.5598 3.48306 14.6782 3.96103 14.8857 4.37402C15.29 5.17832 16.0518 5.77968 16.6641 6.13184C16.6828 6.14267 16.6949 6.15881 16.6992 6.17188C16.9607 6.96964 17.3154 7.56362 17.7617 7.96094C18.2189 8.36786 18.7392 8.53935 19.2568 8.54004C20.1058 8.54117 20.8922 8.08671 21.4375 7.63379C22.0648 8.98973 22.4004 10.4773 22.4004 12C22.4004 14.7583 21.3039 17.4031 19.3535 19.3535C17.4031 21.3039 14.7583 22.4004 12 22.4004C9.24175 22.4004 6.59686 21.3039 4.64648 19.3535C2.69611 17.4031 1.59961 14.7583 1.59961 12C1.59961 9.24175 2.69611 6.59686 4.64648 4.64648C6.59686 2.69611 9.24175 1.59961 12 1.59961Z" stroke="#88899A" stroke-width="1.2"/>
<path fill-rule="evenodd" clip-rule="evenodd" d="M17.5 12.7019C17.5 13.218 15.6187 13.6487 13.1186 13.7487V17.5002H10.8903V13.75C8.38441 13.6496 6.5 13.2189 6.5 12.7023C6.5 12.1857 8.38441 11.7546 10.8903 11.6546V10.4848H7.80735V8.7002H16.2025V10.4848H13.119V11.6546C15.6204 11.7551 17.5 12.1857 17.5 12.7019ZM10.8911 13.0965C11.0359 13.1056 11.4505 13.1269 12.0235 13.1269C12.7109 13.1269 13.0552 13.102 13.1172 13.097V11.7897C15.3265 11.8752 16.9755 12.2099 16.9755 12.6098C16.9755 13.0097 15.3271 13.3445 13.1172 13.4295L13.1193 13.4299C13.0568 13.434 12.7339 13.4508 12.0135 13.4508C11.4406 13.4508 11.0338 13.4358 10.8911 13.4299C8.677 13.3453 7.02443 13.0106 7.02443 12.6098C7.02443 12.209 8.677 11.8747 10.8911 11.7888V13.0965Z" fill="#88899A"/>
<path d="M18.5906 6.93349V5.12663H16.9594C16.6506 5.12663 16.4003 4.82796 16.4 4.46012C16.4 4.09202 16.6504 3.79361 16.9594 3.79361H18.5906V1.66651C18.5906 1.29841 18.841 1 19.15 1C19.4589 1 19.7094 1.29841 19.7094 1.66651V3.79361H21.3406C21.6495 3.79361 21.9 4.09202 21.9 4.46012C21.8997 4.82796 21.6494 5.12663 21.3406 5.12663H19.7094V6.93349C19.7092 7.30141 19.4588 7.6 19.15 7.6C18.8412 7.6 18.5908 7.30141 18.5906 6.93349Z" fill="#88899A"/>
</svg>
