<svg width="24" height="24" viewBox="0 0 24 24" fill="none" xmlns="http://www.w3.org/2000/svg">
<path d="M12 1C13.2926 1 14.5618 1.22733 15.7539 1.66016C15.8205 1.68434 15.8398 1.77022 15.7939 1.82422C14.3686 3.50314 15.838 4.9642 16.9629 5.61133C17.1066 5.69402 17.2169 5.82778 17.2686 5.98535C18.2306 8.92034 20.2769 7.92839 21.2666 6.98535C21.3126 6.94153 21.3495 6.8898 21.3779 6.83301L21.4531 6.68359C21.4889 6.61243 21.5894 6.60994 21.6279 6.67969C22.52 8.29422 23 10.1224 23 12C23 14.9174 21.8412 17.7154 19.7783 19.7783C17.7154 21.8412 14.9174 23 12 23C9.08262 23 6.28458 21.8412 4.22168 19.7783C2.15878 17.7154 1 14.9174 1 12C1 9.08262 2.15878 6.28458 4.22168 4.22168C6.28458 2.15878 9.08262 1 12 1ZM7.80762 8.7002V10.4844H10.8906V11.6543C8.38473 11.7543 6.5 12.1855 6.5 12.7021C6.50001 13.2187 8.38473 13.6496 10.8906 13.75V17.5H13.1182V13.748C15.6175 13.6481 17.4989 13.2181 17.5 12.7021C17.5 12.186 15.6205 11.7547 13.1191 11.6543V10.4844H16.2021V8.7002H7.80762ZM10.8916 13.0967C11.0368 13.1057 11.4511 13.127 12.0234 13.127C12.7109 13.127 13.0552 13.1017 13.1172 13.0967V11.7891C15.3261 11.8746 16.9749 12.2096 16.9756 12.6094C16.9756 13.0093 15.3271 13.3446 13.1172 13.4297H13.1191C13.0563 13.4338 12.7334 13.4502 12.0137 13.4502C11.4414 13.4502 11.0347 13.4356 10.8916 13.4297C8.67747 13.3451 7.02441 13.0102 7.02441 12.6094C7.02508 12.2087 8.67792 11.874 10.8916 11.7881V13.0967Z" fill="#FFD400"/>
<path d="M18.591 6.93349V5.12663H16.9598C16.651 5.12663 16.4006 4.82796 16.4004 4.46012C16.4004 4.09202 16.6508 3.79361 16.9598 3.79361H18.591V1.66651C18.591 1.29841 18.8414 1 19.1504 1C19.4593 1 19.7098 1.29841 19.7098 1.66651V3.79361H21.341C21.6499 3.79361 21.9004 4.09202 21.9004 4.46012C21.9001 4.82796 21.6498 5.12663 21.341 5.12663H19.7098V6.93349C19.7096 7.30141 19.4592 7.6 19.1504 7.6C18.8416 7.6 18.5912 7.30141 18.591 6.93349Z" fill="#FFD400"/>
</svg>
