<svg width="23" height="22" viewBox="0 0 23 22" fill="none" xmlns="http://www.w3.org/2000/svg">
  <path
    d="M15.1667 1.83398H7.83333C4.625 1.83398 3.25 3.66732 3.25 6.41732V15.584C3.25 18.334 4.625 20.1673 7.83333 20.1673H15.1667C18.375 20.1673 19.75 18.334 19.75 15.584V6.41732C19.75 3.66732 18.375 1.83398 15.1667 1.83398ZM7.83333 11.2298H11.5C11.8758 11.2298 12.1875 11.5415 12.1875 11.9173C12.1875 12.2932 11.8758 12.6048 11.5 12.6048H7.83333C7.4575 12.6048 7.14583 12.2932 7.14583 11.9173C7.14583 11.5415 7.4575 11.2298 7.83333 11.2298ZM15.1667 16.2715H7.83333C7.4575 16.2715 7.14583 15.9598 7.14583 15.584C7.14583 15.2082 7.4575 14.8965 7.83333 14.8965H15.1667C15.5425 14.8965 15.8542 15.2082 15.8542 15.584C15.8542 15.9598 15.5425 16.2715 15.1667 16.2715ZM17.4583 8.47982H15.625C14.2317 8.47982 13.1042 7.35232 13.1042 5.95898V4.12565C13.1042 3.74982 13.4158 3.43815 13.7917 3.43815C14.1675 3.43815 14.4792 3.74982 14.4792 4.12565V5.95898C14.4792 6.59148 14.9925 7.10482 15.625 7.10482H17.4583C17.8342 7.10482 18.1458 7.41648 18.1458 7.79232C18.1458 8.16815 17.8342 8.47982 17.4583 8.47982Z"
    fill="white" />
</svg>
