<svg width="23" height="22" viewBox="0 0 23 22" fill="none" xmlns="http://www.w3.org/2000/svg">
  <path
    d="M6.79759 11.2564C6.41259 11.2564 6.01841 11.2381 5.63341 11.2014L2.72759 10.9356C2.35175 10.8989 2.06759 10.5689 2.10426 10.1839C2.14093 9.80807 2.46177 9.52391 2.85593 9.56057L5.76175 9.82641C10.2534 10.2389 14.6167 7.96558 16.8626 4.04225C17.0551 3.71225 17.4676 3.60225 17.7976 3.78558C18.1276 3.97808 18.2376 4.39057 18.0543 4.72057C15.7443 8.78141 11.4084 11.2564 6.79759 11.2564Z"
    fill="#898D9F" />
  <path
    d="M5.54159 18.4439C5.42242 18.4439 5.31243 18.4164 5.20243 18.3522C4.87243 18.1597 4.7624 17.7472 4.94573 17.4172C7.4574 13.0264 12.3341 10.478 17.3666 10.9455L20.2724 11.2114C20.6483 11.248 20.9324 11.578 20.8958 11.963C20.8591 12.3389 20.5382 12.6139 20.1441 12.5864L17.2383 12.3205C12.7466 11.908 8.38328 14.1814 6.13744 18.1047C6.00911 18.3247 5.77992 18.4439 5.54159 18.4439Z"
    fill="#898D9F" />
  <path
    d="M11.4999 20.8548C6.06409 20.8548 1.64575 16.4365 1.64575 11.0007C1.64575 5.56482 6.06409 1.14648 11.4999 1.14648C16.9358 1.14648 21.3541 5.56482 21.3541 11.0007C21.3541 16.4365 16.9358 20.8548 11.4999 20.8548ZM11.4999 2.52148C6.82492 2.52148 3.02075 6.32565 3.02075 11.0007C3.02075 15.6757 6.82492 19.4798 11.4999 19.4798C16.1749 19.4798 19.9791 15.6757 19.9791 11.0007C19.9791 6.32565 16.1749 2.52148 11.4999 2.52148Z"
    fill="#898D9F" />
  <path
    d="M15.5975 19.8911C15.2859 19.8911 15.0109 19.6803 14.9284 19.3686L13.8193 14.7945C13.1134 11.8978 11.7567 9.13862 9.87755 6.81029L6.96256 3.18947C6.72423 2.89614 6.77005 2.46529 7.06338 2.22695C7.35671 1.98862 7.78759 2.03447 8.02592 2.3278L10.9409 5.94862C12.9393 8.43278 14.3967 11.3753 15.1484 14.4645L16.2576 19.0386C16.3492 19.4053 16.1201 19.7811 15.7534 19.8728C15.7076 19.882 15.6525 19.8911 15.5975 19.8911Z"
    fill="#898D9F" />
</svg>
