<svg width="23" height="22" viewBox="0 0 23 22" fill="none" xmlns="http://www.w3.org/2000/svg">
  <path fill-rule="evenodd" clip-rule="evenodd"
    d="M15.0566 19.1771C15.0841 19.3237 15.0016 19.4796 14.8641 19.5346C13.8282 19.9471 12.6916 20.1671 11.5183 20.1671C9.49245 20.1671 7.62243 19.5162 6.10993 18.3979C5.98159 18.3062 5.94496 18.1229 6.02746 17.9854C6.53163 17.0871 8.50241 14.1996 12.8566 12.5862C13.0216 12.5221 13.2049 12.6046 13.2599 12.7696C14.3507 15.6937 14.8641 18.1687 15.0566 19.1771Z"
    fill="white" />
  <path fill-rule="evenodd" clip-rule="evenodd"
    d="M20.5017 12.7334C20.08 14.9884 18.815 16.95 17.0458 18.2884C16.8533 18.435 16.5783 18.325 16.5325 18.0958C16.34 17.1058 15.8725 14.97 14.9742 12.4308C14.91 12.2383 15.0384 12.0275 15.24 12C17.5225 11.725 19.5209 12.165 20.2725 12.3667C20.4284 12.4217 20.5292 12.5775 20.5017 12.7334Z"
    fill="white" />
  <path fill-rule="evenodd" clip-rule="evenodd"
    d="M20.2909 10.8344C19.3559 10.6694 16.9725 10.3211 14.5342 10.5869C14.3875 10.6053 14.2592 10.5228 14.195 10.3853C14.1584 10.3028 14.1309 10.2203 14.0942 10.1378C13.9475 9.7986 13.7917 9.45028 13.6359 9.11111C13.5534 8.94611 13.6359 8.74443 13.8009 8.6711C16.3675 7.56193 17.7975 6.13193 18.3567 5.49026C18.4942 5.33443 18.7326 5.34362 18.8609 5.50862C19.9151 6.91112 20.5659 8.62527 20.6667 10.4769C20.6759 10.7061 20.4926 10.8711 20.2909 10.8344Z"
    fill="white" />
  <path fill-rule="evenodd" clip-rule="evenodd"
    d="M17.4033 4.39013C16.9266 4.96763 15.5883 6.34261 13.0491 7.35094C12.9025 7.41511 12.7283 7.35094 12.6458 7.20427C11.4725 5.07761 10.2258 3.29011 9.64828 2.48345C9.51078 2.29095 9.6208 2.01596 9.84997 1.97929C10.3816 1.88762 10.9408 1.8418 11.5091 1.8418C13.7275 1.8418 15.7716 2.63012 17.3575 3.95012C17.495 4.05095 17.5133 4.25263 17.4033 4.39013Z"
    fill="white" />
  <path fill-rule="evenodd" clip-rule="evenodd"
    d="M10.6016 8.10346C7.12746 8.97429 4.05658 9.09346 2.93825 9.11179C2.72742 9.11179 2.57161 8.91012 2.62661 8.70846C3.28661 6.14179 5.0466 3.9968 7.36577 2.8143C7.50327 2.74097 7.67743 2.78678 7.7691 2.91512C8.24577 3.57512 9.53827 5.43597 10.8033 7.6268C10.9041 7.81013 10.8125 8.04845 10.6016 8.10346Z"
    fill="white" />
  <path fill-rule="evenodd" clip-rule="evenodd"
    d="M12.3433 10.6327C12.4258 10.8069 12.325 11.0177 12.1417 11.0819C8.08086 12.3927 5.65169 15.6469 4.91836 16.7652C4.79919 16.9486 4.54253 16.9577 4.40503 16.7927C3.1217 15.2161 2.34253 13.4102 2.34253 11.2194V11.0544C2.34253 10.8711 2.48918 10.7244 2.67252 10.7336C3.82752 10.7794 7.59503 10.6236 11.5092 9.49606C11.6559 9.45023 11.8208 9.52358 11.885 9.66108C12.0408 9.98192 12.1967 10.3027 12.3433 10.6327Z"
    fill="white" />
</svg>
