<svg width="23" height="22" viewBox="0 0 23 22" fill="none" xmlns="http://www.w3.org/2000/svg">
  <path
    d="M11.5001 11.6882C8.59425 11.6882 6.22925 9.32315 6.22925 6.41732C6.22925 3.51148 8.59425 1.14648 11.5001 1.14648C14.4059 1.14648 16.7709 3.51148 16.7709 6.41732C16.7709 9.32315 14.4059 11.6882 11.5001 11.6882ZM11.5001 2.52148C9.35508 2.52148 7.60425 4.27232 7.60425 6.41732C7.60425 8.56232 9.35508 10.3132 11.5001 10.3132C13.6451 10.3132 15.3959 8.56232 15.3959 6.41732C15.3959 4.27232 13.6451 2.52148 11.5001 2.52148Z"
    fill="#868F9E" />
  <path
    d="M19.3743 20.8542C18.9985 20.8542 18.6868 20.5425 18.6868 20.1667C18.6868 17.0042 15.4601 14.4375 11.5001 14.4375C7.54014 14.4375 4.31348 17.0042 4.31348 20.1667C4.31348 20.5425 4.00181 20.8542 3.62598 20.8542C3.25014 20.8542 2.93848 20.5425 2.93848 20.1667C2.93848 16.2525 6.77931 13.0625 11.5001 13.0625C16.221 13.0625 20.0618 16.2525 20.0618 20.1667C20.0618 20.5425 19.7501 20.8542 19.3743 20.8542Z"
    fill="#868F9E" />
</svg>
