<svg width="23" height="22" viewBox="0 0 23 22" fill="none" xmlns="http://www.w3.org/2000/svg">
  <path
    d="M18.8701 6.2522L13.5901 2.55803C12.1509 1.5497 9.94172 1.6047 8.55755 2.6772L3.96505 6.26137C3.04839 6.97637 2.32422 8.44303 2.32422 9.59803V15.923C2.32422 18.2605 4.22172 20.1672 6.55922 20.1672H16.4409C18.7784 20.1672 20.6759 18.2697 20.6759 15.9322V9.7172C20.6759 8.4797 19.8784 6.95803 18.8701 6.2522ZM12.1876 16.5005C12.1876 16.8764 11.8759 17.188 11.5001 17.188C11.1242 17.188 10.8126 16.8764 10.8126 16.5005V13.7505C10.8126 13.3747 11.1242 13.063 11.5001 13.063C11.8759 13.063 12.1876 13.3747 12.1876 13.7505V16.5005Z"
    fill="white" />
</svg>
