<svg width="23" height="22" viewBox="0 0 23 22" fill="none" xmlns="http://www.w3.org/2000/svg">
    <path fill-rule="evenodd" clip-rule="evenodd"
          d="M3.96505 6.26137C3.04839 6.97637 2.32422 8.44303 2.32422 9.59803V15.923C2.32422 18.2605 4.22172 20.1672 6.55922 20.1672H16.4409C18.7784 20.1672 20.6759 18.2697 20.6759 15.9322V9.7172C20.6759 8.4797 19.8784 6.95803 18.8701 6.2522L13.5901 2.55803C12.1509 1.5497 9.94172 1.6047 8.55755 2.6772L3.96505 6.26137ZM9.28092 3.60767C9.28042 3.60806 9.27992 3.60845 9.27942 3.60883L4.69016 7.19047C4.40521 7.41274 4.09624 7.80193 3.85824 8.28531C3.61992 8.76933 3.50279 9.24578 3.50279 9.59803V15.923C3.50279 17.6129 4.87594 18.9886 6.55922 18.9886H16.4409C18.1275 18.9886 19.4973 17.6188 19.4973 15.9322V9.7172C19.4973 9.33243 19.3668 8.82966 19.1063 8.33075C18.8459 7.83195 18.5081 7.43755 18.1944 7.21788C18.1943 7.21783 18.1945 7.21793 18.1944 7.21788L12.9144 3.52371C11.8988 2.81217 10.257 2.85265 9.28092 3.60767Z"
          fill="#868F9E" />
    <path fill-rule="evenodd" clip-rule="evenodd"
          d="M11.5 17.1875C11.8758 17.1875 12.1875 16.8758 12.1875 16.5V13.75C12.1875 13.3742 11.8758 13.0625 11.5 13.0625C11.1242 13.0625 10.8125 13.3742 10.8125 13.75V16.5C10.8125 16.8758 11.1242 17.1875 11.5 17.1875Z"
          fill="#868F9E" />
</svg>
