<svg width="24" height="24" viewBox="0 0 24 24" fill="none" xmlns="http://www.w3.org/2000/svg">
  <path
    d="M19.5006 12.0005C19.5006 12.1994 19.4216 12.3902 19.2809 12.5308C19.1403 12.6715 18.9495 12.7505 18.7506 12.7505H10.5006C10.3017 12.7505 10.1109 12.6715 9.97026 12.5308C9.82961 12.3902 9.75059 12.1994 9.75059 12.0005C9.75059 11.8016 9.82961 11.6108 9.97026 11.4702C10.1109 11.3295 10.3017 11.2505 10.5006 11.2505H18.7506C18.9495 11.2505 19.1403 11.3295 19.2809 11.4702C19.4216 11.6108 19.5006 11.8016 19.5006 12.0005ZM4.50059 6.75049H18.7506C18.9495 6.75049 19.1403 6.67147 19.2809 6.53082C19.4216 6.39017 19.5006 6.1994 19.5006 6.00049C19.5006 5.80158 19.4216 5.61081 19.2809 5.47016C19.1403 5.32951 18.9495 5.25049 18.7506 5.25049H4.50059C4.30168 5.25049 4.11091 5.32951 3.97026 5.47016C3.82961 5.61081 3.75059 5.80158 3.75059 6.00049C3.75059 6.1994 3.82961 6.39017 3.97026 6.53082C4.11091 6.67147 4.30168 6.75049 4.50059 6.75049ZM18.7506 17.2505H4.50059C4.30168 17.2505 4.11091 17.3295 3.97026 17.4702C3.82961 17.6108 3.75059 17.8016 3.75059 18.0005C3.75059 18.1994 3.82961 18.3902 3.97026 18.5308C4.11091 18.6715 4.30168 18.7505 4.50059 18.7505H18.7506C18.9495 18.7505 19.1403 18.6715 19.2809 18.5308C19.4216 18.3902 19.5006 18.1994 19.5006 18.0005C19.5006 17.8016 19.4216 17.6108 19.2809 17.4702C19.1403 17.3295 18.9495 17.2505 18.7506 17.2505ZM4.71997 14.7811C4.78962 14.8508 4.87234 14.9062 4.96339 14.9439C5.05443 14.9817 5.15203 15.0011 5.25059 15.0011C5.34915 15.0011 5.44675 14.9817 5.5378 14.9439C5.62884 14.9062 5.71156 14.8508 5.78122 14.7811L8.03122 12.5311C8.10095 12.4615 8.15627 12.3787 8.19401 12.2877C8.23175 12.1966 8.25118 12.0991 8.25118 12.0005C8.25118 11.9019 8.23175 11.8043 8.19401 11.7133C8.15627 11.6222 8.10095 11.5395 8.03122 11.4699L5.78122 9.21986C5.64049 9.07913 5.44961 9.00007 5.25059 9.00007C5.05157 9.00007 4.8607 9.07913 4.71997 9.21986C4.57924 9.36059 4.50017 9.55147 4.50017 9.75049C4.50017 9.94951 4.57924 10.1404 4.71997 10.2811L6.44028 12.0005L4.71997 13.7199C4.65023 13.7895 4.59491 13.8722 4.55717 13.9633C4.51943 14.0543 4.5 14.1519 4.5 14.2505C4.5 14.349 4.51943 14.4466 4.55717 14.5377C4.59491 14.6287 4.65023 14.7115 4.71997 14.7811Z"
    fill="white" />
</svg>
