<svg width="22" height="23" viewBox="0 0 22 23" fill="none" xmlns="http://www.w3.org/2000/svg">
  <path
    d="M16.2247 21.029L11.5639 17.4596C11.1209 17.1233 10.5077 17.1233 10.0647 17.4596L5.36046 21.029C5.01742 21.3044 4.54974 21.3671 4.14614 21.1917C3.74255 21.0164 3.46962 20.632 3.4375 20.1937V4.93959C3.47964 4.04524 3.87712 3.20459 4.54191 2.60385C5.2067 2.0031 6.08391 1.69186 6.97923 1.73906H14.5842C15.4849 1.69795 16.3645 2.01924 17.0261 2.63099C17.6877 3.24273 18.076 4.09386 18.1042 4.99384V20.1937C18.0619 20.6163 17.7959 20.9838 17.4074 21.1565C17.0188 21.3292 16.5674 21.2805 16.2247 21.029Z"
    fill="white" />
</svg>
