<svg width="10" height="10" viewBox="0 0 10 10" fill="none" xmlns="http://www.w3.org/2000/svg">
  <path fill-rule="evenodd" clip-rule="evenodd"
    d="M2.53014 8.34188L2.47214 8.31766L2 8.19299L2.21056 8.07341V0.333675C2.21056 0.149391 2.35364 0 2.53014 0C2.70664 0 2.84972 0.149391 2.84972 0.333675V0.935574L6.68465 2.6694L2.84972 4.40323V7.71044L8.12978 4.71193L8.43516 5.29818L6.01828 6.67071C6.0741 6.72669 6.12543 6.78847 6.17225 6.85605C6.32593 7.07782 6.40904 7.32819 6.42158 7.60714C6.43414 7.88609 6.37388 8.14349 6.2408 8.37932C6.19853 8.45423 6.15083 8.52334 6.0977 8.58665L9 9.35302L8.8433 10L2.56386 8.34188H2.53014ZM3.74053 7.96423L5.28137 8.37109L5.28045 8.36886L5.36877 8.32934C5.51003 8.26613 5.61715 8.16987 5.69011 8.04056C5.75872 7.91898 5.78973 7.78494 5.78313 7.63845C5.77655 7.49196 5.73364 7.36156 5.65442 7.24723C5.58722 7.15025 5.50028 7.07633 5.39361 7.02546L3.74053 7.96423Z"
    fill="white" />
</svg>
