<svg width="10" height="10" viewBox="0 0 10 10" fill="none" xmlns="http://www.w3.org/2000/svg">
  <g clip-path="url(#clip0_279_10927)">
    <path fill-rule="evenodd" clip-rule="evenodd"
      d="M10 0.449154C10 0.201093 9.81849 0 9.59458 0H0.405423C0.181514 0 0 0.201093 0 0.449154C0 0.697215 0.181514 0.898308 0.405423 0.898308H0.809548L0.764286 7.75492C0.763411 7.93523 0.860639 8.09831 1.01071 8.16811L4.8429 9.96473C4.94415 10.0118 5.05839 10.0118 5.15964 9.96473L8.94338 8.16811C9.09204 8.09657 9.18843 7.93449 9.18916 7.75492L9.18915 0.898308H9.59458C9.81849 0.898308 10 0.697215 10 0.449154ZM1.62039 0.898308H8.37831L8.37832 7.45596L5.00001 9.06361L1.57513 7.45596L1.62039 0.898308Z"
      fill="white" />
    <path fill-rule="evenodd" clip-rule="evenodd"
      d="M2.91269 3H2V7H2.91269V5.38199H3.91001V7H4.82673V3H3.91001V4.39973H2.91269V3ZM8 3H5.22565V3.98772H6.15648V7H7.06917V3.98772H8V3Z"
      fill="white" />
  </g>
  <defs>
    <clipPath id="clip0_279_10927">
      <rect width="10" height="10" fill="white" />
    </clipPath>
  </defs>
</svg>
