<svg viewBox="0 0 32 32" fill="none" xmlns="http://www.w3.org/2000/svg">
<g id="Social Media / Behance">
<rect id="Logo Container" width="32" height="32" rx="8" fill="var(--fill-0, #FFD400)"/>
<path id="Vector" fill-rule="evenodd" clip-rule="evenodd" d="M20.9692 22.1782C20.002 22.8828 18.6066 23.3352 16.7827 23.3352H9.6103V19.1447H12.7736V20.9761H16.509C17.363 20.9761 18.0076 20.7581 18.4346 20.4248C18.8625 20.0906 19.0756 19.5574 19.0756 18.9341C19.0756 18.3109 18.8596 17.888 18.4346 17.5617C18.0094 17.2354 17.3657 17.1784 16.509 17.1784H9.6103V14.8216V8.66477H16.5558C18.3945 8.66477 19.752 8.8932 20.6561 9.58286C21.5603 10.2733 21.9949 11.1495 21.9949 12.4412C22.0001 13.2174 21.7179 13.9722 21.196 14.5684C20.6818 15.1697 19.9248 15.5438 18.9622 15.6924V15.7137C20.0612 15.8623 20.9022 16.2459 21.487 16.8613C22.0792 17.4908 22.4015 18.309 22.3894 19.1541C22.3894 20.4318 21.9356 21.4735 20.9692 22.1782ZM16.1096 11.0168C17.825 11.0168 18.6811 11.6553 18.6811 12.9168C18.6811 14.1783 17.825 14.8145 16.1096 14.8145H12.7736V11.0168H16.1096Z" fill="var(--fill-0, black)"/>
</g>
</svg>
