<svg width="394" height="33" viewBox="0 0 394 33" fill="none" xmlns="http://www.w3.org/2000/svg">
<g filter="url(#filter0_f_39308_6834)">
<path d="M1.56055 2C64.2951 36.3888 318.37 36.9434 391.561 2" stroke="url(#paint0_linear_39308_6834)" stroke-width="1.5"/>
</g>
<path d="M131.019 25.6962C130.999 26.0289 130.979 26.3617 130.959 26.6944C133.045 26.8184 135.143 26.936 137.233 27.0465C149.755 27.7077 162.284 28.1304 174.817 28.3421C187.072 28.5483 199.331 28.5522 211.586 28.3558C224.501 28.1481 237.414 27.7185 250.316 27.043C252.406 26.9335 254.503 26.8171 256.59 26.6945C256.57 26.3617 256.551 26.0289 256.531 25.6962C254.447 25.8187 252.352 25.935 250.264 26.0444C237.374 26.7192 224.473 27.1484 211.57 27.356C199.326 27.5522 187.078 27.5483 174.834 27.3422C162.312 27.1307 149.795 26.7084 137.285 26.0479C135.198 25.9375 133.102 25.82 131.019 25.6962Z" fill="url(#paint1_linear_39308_6834)"/>
<path d="M192.561 26.8891C192.561 24.7412 194.302 23 196.45 23H196.671C198.819 23 200.561 24.7412 200.561 26.8891C200.561 27.9205 200.151 28.9097 199.421 29.6391L196.561 32.5L193.7 29.6391C192.97 28.9097 192.561 27.9205 192.561 26.8891Z" fill="url(#paint2_linear_39308_6834)"/>
<ellipse cx="196.561" cy="27.5" rx="1.5" ry="2" fill="#FFFCF7"/>
<path d="M291.561 21.8891C291.561 19.7412 293.302 18 295.45 18H295.671C297.819 18 299.561 19.7412 299.561 21.8891C299.561 22.9205 299.151 23.9097 298.421 24.6391L295.561 27.5L292.7 24.6391C291.97 23.9097 291.561 22.9205 291.561 21.8891Z" fill="url(#paint3_linear_39308_6834)"/>
<ellipse cx="295.561" cy="22.5" rx="1.5" ry="2" fill="#989592"/>
<defs>
<filter id="filter0_f_39308_6834" x="-4.88758e-05" y="0.123242" width="393.084" height="29.8268" filterUnits="userSpaceOnUse" color-interpolation-filters="sRGB">
<feFlood flood-opacity="0" result="BackgroundImageFix"/>
<feBlend mode="normal" in="SourceGraphic" in2="BackgroundImageFix" result="shape"/>
<feGaussianBlur stdDeviation="0.6" result="effect1_foregroundBlur_39308_6834"/>
</filter>
<linearGradient id="paint0_linear_39308_6834" x1="137.561" y1="15" x2="336.561" y2="15" gradientUnits="userSpaceOnUse">
<stop stop-color="#8C8C8C" stop-opacity="0"/>
<stop offset="0.514423" stop-color="#8C8C8C"/>
<stop offset="1" stop-color="#8C8C8C" stop-opacity="0"/>
</linearGradient>
<linearGradient id="paint1_linear_39308_6834" x1="167.061" y1="22" x2="250.561" y2="22.5" gradientUnits="userSpaceOnUse">
<stop stop-color="#C4C4C4" stop-opacity="0"/>
<stop offset="0.546341" stop-color="#C4C4C4"/>
<stop offset="1" stop-color="#C4C4C4" stop-opacity="0"/>
</linearGradient>
<linearGradient id="paint2_linear_39308_6834" x1="196.561" y1="19.5" x2="196.561" y2="36" gradientUnits="userSpaceOnUse">
<stop stop-color="#CFCFCF"/>
<stop offset="1" stop-color="#909090"/>
</linearGradient>
<linearGradient id="paint3_linear_39308_6834" x1="295.561" y1="18.25" x2="295.561" y2="27.25" gradientUnits="userSpaceOnUse">
<stop stop-color="#454443"/>
<stop offset="1" stop-color="#8D8C8A"/>
</linearGradient>
</defs>
</svg>
