<svg width="394" height="32" viewBox="0 0 394 32" fill="none" xmlns="http://www.w3.org/2000/svg">
<g filter="url(#filter0_f_39308_6854)">
<path d="M1.56055 1.87695C64.2951 36.2657 318.37 36.8204 391.561 1.87695" stroke="url(#paint0_linear_39308_6854)" stroke-width="1.5"/>
</g>
<path d="M131.018 25.5731C130.999 25.9059 130.979 26.2386 130.959 26.5714C133.045 26.6953 135.142 26.813 137.232 26.9234C149.754 27.5847 162.283 28.0073 174.817 28.219C187.072 28.4253 199.33 28.4292 211.586 28.2328C224.501 28.025 237.413 27.5955 250.316 26.92C252.406 26.8105 254.503 26.694 256.59 26.5714C256.57 26.2386 256.551 25.9059 256.531 25.5731C254.446 25.6956 252.352 25.8119 250.264 25.9213C237.374 26.5962 224.473 27.0253 211.57 27.2329C199.325 27.4291 187.078 27.4252 174.834 27.2192C162.312 27.0076 149.794 26.5854 137.285 25.9248C135.197 25.8145 133.102 25.697 131.018 25.5731Z" fill="url(#paint1_linear_39308_6854)"/>
<path d="M193.061 26.266C193.061 24.1182 194.802 22.377 196.95 22.377H197.171C199.319 22.377 201.061 24.1182 201.061 26.266C201.061 27.2975 200.651 28.2867 199.921 29.016L197.061 31.877L194.2 29.016C193.47 28.2867 193.061 27.2975 193.061 26.266Z" fill="url(#paint2_linear_39308_6854)"/>
<ellipse cx="197.061" cy="26.877" rx="1.5" ry="2" fill="#FFFCF7"/>
<path d="M98.5605 21.766C98.5605 19.6182 100.302 17.877 102.45 17.877H102.671C104.819 17.877 106.561 19.6182 106.561 21.766C106.561 22.7975 106.151 23.7867 105.421 24.516L102.561 27.377L99.6996 24.516C98.9703 23.7867 98.5605 22.7975 98.5605 21.766Z" fill="url(#paint3_linear_39308_6854)"/>
<ellipse cx="102.561" cy="22.377" rx="1.5" ry="2" fill="#776D61"/>
<path d="M291.561 21.766C291.561 19.6182 293.302 17.877 295.45 17.877H295.671C297.819 17.877 299.561 19.6182 299.561 21.766C299.561 22.7975 299.151 23.7867 298.421 24.516L295.561 27.377L292.7 24.516C291.97 23.7867 291.561 22.7975 291.561 21.766Z" fill="url(#paint4_linear_39308_6854)"/>
<ellipse cx="295.561" cy="22.377" rx="1.5" ry="2" fill="#776D61"/>
<defs>
<filter id="filter0_f_39308_6854" x="-4.88758e-05" y="0.000195265" width="393.084" height="29.8268" filterUnits="userSpaceOnUse" color-interpolation-filters="sRGB">
<feFlood flood-opacity="0" result="BackgroundImageFix"/>
<feBlend mode="normal" in="SourceGraphic" in2="BackgroundImageFix" result="shape"/>
<feGaussianBlur stdDeviation="0.6" result="effect1_foregroundBlur_39308_6854"/>
</filter>
<linearGradient id="paint0_linear_39308_6854" x1="72.5605" y1="14.877" x2="336.561" y2="14.877" gradientUnits="userSpaceOnUse">
<stop stop-color="#EDD4AC" stop-opacity="0"/>
<stop offset="0.514423" stop-color="#FFC56C"/>
<stop offset="1" stop-color="#EED5AE" stop-opacity="0"/>
</linearGradient>
<linearGradient id="paint1_linear_39308_6854" x1="135.06" y1="22.377" x2="250.56" y2="22.377" gradientUnits="userSpaceOnUse">
<stop stop-color="#EDD4AC" stop-opacity="0"/>
<stop offset="0.546341" stop-color="#FFE8C5"/>
<stop offset="1" stop-color="#EED5AE" stop-opacity="0"/>
</linearGradient>
<linearGradient id="paint2_linear_39308_6854" x1="197.061" y1="22.627" x2="197.061" y2="31.627" gradientUnits="userSpaceOnUse">
<stop stop-color="#EED5B0"/>
<stop offset="1" stop-color="#E9BB76"/>
</linearGradient>
<linearGradient id="paint3_linear_39308_6854" x1="102.561" y1="18.127" x2="102.561" y2="27.127" gradientUnits="userSpaceOnUse">
<stop stop-color="#574F47"/>
<stop offset="1" stop-color="#514435"/>
</linearGradient>
<linearGradient id="paint4_linear_39308_6854" x1="295.561" y1="18.127" x2="295.561" y2="27.127" gradientUnits="userSpaceOnUse">
<stop stop-color="#574F47"/>
<stop offset="1" stop-color="#514435"/>
</linearGradient>
</defs>
</svg>
