<svg width="40" height="40" viewBox="0 0 40 40" fill="none" xmlns="http://www.w3.org/2000/svg">
  <rect width="40" height="40" rx="20" fill="#19192A" />
  <path
    d="M29.4575 10.4554C29.3413 10.355 29.1999 10.2883 29.0486 10.2624C28.8972 10.2364 28.7417 10.2523 28.5987 10.3082L9.59934 17.7435C9.33007 17.8482 9.10211 18.0376 8.94977 18.283C8.79742 18.5285 8.72895 18.8168 8.75465 19.1046C8.78034 19.3923 8.89883 19.664 9.09226 19.8786C9.28569 20.0932 9.54359 20.2391 9.82715 20.2944L14.75 21.261V26.7501C14.749 27.0491 14.8378 27.3414 15.005 27.5893C15.1722 27.8372 15.4099 28.0292 15.6875 28.1404C15.9646 28.2535 16.2693 28.2807 16.5621 28.2183C16.8549 28.156 17.1221 28.007 17.329 27.7907L19.7028 25.3288L23.4687 28.6251C23.7404 28.8661 24.0908 28.9994 24.454 29.0001C24.6132 28.9999 24.7713 28.975 24.9228 28.926C25.1702 28.8475 25.3928 28.7055 25.5683 28.5142C25.7438 28.3229 25.8661 28.089 25.9231 27.8357L29.7284 11.2813C29.7624 11.132 29.7552 10.9763 29.7075 10.8308C29.6597 10.6853 29.5733 10.5555 29.4575 10.4554ZM23.7256 13.8304L15.3265 19.8454L10.6765 18.9332L23.7256 13.8304ZM16.25 26.7501V22.2988L18.574 24.3369L16.25 26.7501ZM24.4559 27.5001L16.7046 20.7032L27.8609 12.7073L24.4559 27.5001Z"
    fill="white" />
</svg>
