<svg width="40" height="40" viewBox="0 0 40 40" fill="none" xmlns="http://www.w3.org/2000/svg">
  <rect width="40" height="40" rx="20" fill="#19192A" />
  <path
    d="M29 14.75C27.8069 14.7488 26.663 14.2743 25.8194 13.4306C24.9757 12.587 24.5012 11.4431 24.5 10.25C24.5 10.0511 24.421 9.86032 24.2803 9.71967C24.1397 9.57902 23.9489 9.5 23.75 9.5H20C19.8011 9.5 19.6103 9.57902 19.4697 9.71967C19.329 9.86032 19.25 10.0511 19.25 10.25V22.625C19.2498 22.9605 19.1597 23.2898 18.9889 23.5786C18.8181 23.8674 18.5729 24.1051 18.279 24.2668C17.985 24.4286 17.653 24.5085 17.3177 24.4983C16.9823 24.488 16.6559 24.388 16.3723 24.2085C16.0888 24.0291 15.8587 23.7769 15.7058 23.4782C15.553 23.1795 15.4831 22.8453 15.5035 22.5104C15.5238 22.1755 15.6336 21.8522 15.8215 21.5742C16.0094 21.2962 16.2684 21.0738 16.5716 20.93C16.6998 20.8691 16.8081 20.7731 16.884 20.6532C16.9598 20.5332 17 20.3941 17 20.2522V16.25C17 16.1404 16.9761 16.0321 16.9297 15.9327C16.8834 15.8333 16.8158 15.7453 16.7318 15.6749C16.6478 15.6045 16.5494 15.5533 16.4434 15.5251C16.3375 15.4968 16.2267 15.4921 16.1187 15.5113C12.7728 16.1075 10.25 19.1656 10.25 22.625C10.25 24.5147 11.0007 26.3269 12.3369 27.6631C13.6731 28.9993 15.4853 29.75 17.375 29.75C19.2647 29.75 21.0769 28.9993 22.4131 27.6631C23.7493 26.3269 24.5 24.5147 24.5 22.625V18.9022C25.889 19.6269 27.4333 20.0036 29 20C29.1989 20 29.3897 19.921 29.5303 19.7803C29.671 19.6397 29.75 19.4489 29.75 19.25V15.5C29.75 15.3011 29.671 15.1103 29.5303 14.9697C29.3897 14.829 29.1989 14.75 29 14.75ZM28.25 18.4662C26.7843 18.3364 25.3809 17.8133 24.1878 16.9522C24.0757 16.8716 23.9434 16.8235 23.8057 16.8132C23.668 16.8029 23.5301 16.8309 23.4072 16.894C23.2844 16.9572 23.1814 17.053 23.1095 17.1709C23.0376 17.2889 22.9997 17.4244 23 17.5625V22.625C23 24.1168 22.4074 25.5476 21.3525 26.6025C20.2976 27.6574 18.8668 28.25 17.375 28.25C15.8832 28.25 14.4524 27.6574 13.3975 26.6025C12.3426 25.5476 11.75 24.1168 11.75 22.625C11.75 20.1969 13.31 18.0191 15.5 17.225V19.8191C15.0152 20.143 14.6225 20.587 14.3604 21.1079C14.0982 21.6287 13.9755 22.2086 14.0041 22.7909C14.0327 23.3733 14.2117 23.9384 14.5237 24.431C14.8356 24.9236 15.2699 25.327 15.7841 25.6018C16.2984 25.8767 16.8751 26.0136 17.458 25.9993C18.0409 25.9849 18.6102 25.8198 19.1103 25.52C19.6104 25.2202 20.0243 24.796 20.3117 24.2886C20.599 23.7812 20.7501 23.2081 20.75 22.625V11H23.0469C23.2155 12.321 23.818 13.5487 24.7597 14.4903C25.7013 15.432 26.929 16.0345 28.25 16.2031V18.4662Z"
    fill="white" />
</svg>
