<svg width="40" height="40" viewBox="0 0 40 40" fill="none" xmlns="http://www.w3.org/2000/svg">
  <rect width="40" height="40" rx="20" fill="#19192A" />
  <path
    d="M28.1328 27.8478L22.2641 18.6247L28.055 12.2544C28.186 12.1067 28.2535 11.9134 28.2429 11.7164C28.2323 11.5193 28.1444 11.3343 27.9984 11.2016C27.8523 11.0689 27.6598 10.9991 27.4627 11.0073C27.2655 11.0155 27.0795 11.1012 26.945 11.2456L21.4288 17.3131L17.6328 11.3478C17.5651 11.2413 17.4716 11.1535 17.361 11.0927C17.2504 11.0319 17.1262 11 17 11H12.5C12.3655 10.9999 12.2335 11.036 12.1178 11.1045C12.002 11.173 11.9068 11.2713 11.8421 11.3892C11.7774 11.5071 11.7456 11.6402 11.75 11.7746C11.7545 11.909 11.7949 12.0397 11.8672 12.1531L17.7359 21.3753L11.945 27.7503C11.8774 27.823 11.8248 27.9083 11.7904 28.0014C11.756 28.0945 11.7405 28.1935 11.7446 28.2927C11.7488 28.3918 11.7725 28.4892 11.8146 28.5791C11.8566 28.669 11.9161 28.7496 11.9895 28.8164C12.063 28.8831 12.149 28.9346 12.2425 28.9679C12.336 29.0012 12.4351 29.0156 12.5342 29.0103C12.6334 29.0049 12.7304 28.98 12.8198 28.9369C12.9092 28.8937 12.9891 28.8333 13.055 28.7591L18.5713 22.6916L22.3672 28.6569C22.4354 28.7625 22.5292 28.8494 22.6397 28.9093C22.7503 28.9693 22.8742 29.0005 23 29H27.5C27.6343 29 27.7662 28.9638 27.8818 28.8954C27.9974 28.827 28.0925 28.7288 28.1572 28.611C28.2218 28.4933 28.2537 28.3604 28.2494 28.2261C28.2451 28.0918 28.2049 27.9612 28.1328 27.8478ZM23.4116 27.5L13.8659 12.5H16.5847L26.1341 27.5H23.4116Z"
    fill="white" />
</svg>
