<svg width="70" height="70" viewBox="0 0 70 70" fill="none" xmlns="http://www.w3.org/2000/svg">
<path d="M57.7674 45.395L34.8538 60.0596C32.1914 61.7636 28.6976 59.8531 28.6976 56.6921C28.6976 49.0524 28.6976 40.5275 28.6976 36.5442C28.6976 35.1728 29.4002 33.904 30.5591 33.1708L57.186 16.3252" stroke="white" stroke-width="1.8" stroke-linecap="round"/>
<path d="M34.6748 40.1631L38.2359 37.9102" stroke="white" stroke-width="1.8" stroke-linecap="round"/>
<path d="M57.4488 44.814C57.4488 45.311 57.8518 45.714 58.3488 45.714C58.8459 45.714 59.2488 45.311 59.2488 44.814H57.4488ZM28.6977 48.0395H29.5977V46.2395H28.6977V48.0395ZM13.9 38V37.1H12.1V38H13.9ZM12.1 20V20.9H13.9V20H12.1ZM54.3488 14V13.1H17V14V14.9H54.3488V14ZM58.3488 18H57.4488V44.814H58.3488H59.2488V18H58.3488ZM17 47.1395V48.0395H28.6977V47.1395V46.2395H17V47.1395ZM13 38H12.1C12.1 40.1445 12.1 41.7072 12.1 43.1399H13H13.9C13.9 41.7072 13.9 40.1445 13.9 38H13ZM13 18H12.1C12.1 18.6141 12.1 19.2826 12.1 20H13H13.9C13.9 19.2826 13.9 18.6141 13.9 18H13ZM54.3488 14V14.9C56.0609 14.9 57.4488 16.2879 57.4488 18H58.3488H59.2488C59.2488 15.2938 57.055 13.1 54.3488 13.1V14ZM17 47.1395V46.2395C15.2878 46.2395 13.9 44.8518 13.9 43.1399H13H12.1C12.1 45.8462 14.2939 48.0395 17 48.0395V47.1395ZM17 14V13.1C14.2938 13.1 12.1 15.2938 12.1 18H13H13.9C13.9 16.2879 15.2879 14.9 17 14.9V14Z" fill="white"/>
<path d="M22 32H6.07692C4.92987 32 4 31.0701 4 29.9231C4 28.776 4.92987 27.8462 6.07692 27.8462H17V24L22 29.9231V32Z" fill="white"/>
</svg>
