<svg width="32" height="32" viewBox="0 0 32 32" fill="none" xmlns="http://www.w3.org/2000/svg">
  <rect width="32" height="32" rx="16" fill="#353649" />
  <path
    d="M18.5 16C18.5 16.1326 18.4473 16.2598 18.3536 16.3536C18.2598 16.4473 18.1326 16.5 18 16.5H14C13.8674 16.5 13.7402 16.4473 13.6464 16.3536C13.5527 16.2598 13.5 16.1326 13.5 16C13.5 15.8674 13.5527 15.7402 13.6464 15.6464C13.7402 15.5527 13.8674 15.5 14 15.5H18C18.1326 15.5 18.2598 15.5527 18.3536 15.6464C18.4473 15.7402 18.5 15.8674 18.5 16ZM18 17.5H14C13.8674 17.5 13.7402 17.5527 13.6464 17.6464C13.5527 17.7402 13.5 17.8674 13.5 18C13.5 18.1326 13.5527 18.2598 13.6464 18.3536C13.7402 18.4473 13.8674 18.5 14 18.5H18C18.1326 18.5 18.2598 18.4473 18.3536 18.3536C18.4473 18.2598 18.5 18.1326 18.5 18C18.5 17.8674 18.4473 17.7402 18.3536 17.6464C18.2598 17.5527 18.1326 17.5 18 17.5ZM21.5 10.5V20.5C21.5 21.0304 21.2893 21.5391 20.9142 21.9142C20.5391 22.2893 20.0304 22.5 19.5 22.5H12.5C11.9696 22.5 11.4609 22.2893 11.0858 21.9142C10.7107 21.5391 10.5 21.0304 10.5 20.5V10.5C10.5 10.3674 10.5527 10.2402 10.6464 10.1464C10.7402 10.0527 10.8674 10 11 10H12.5V9.5C12.5 9.36739 12.5527 9.24021 12.6464 9.14645C12.7402 9.05268 12.8674 9 13 9C13.1326 9 13.2598 9.05268 13.3536 9.14645C13.4473 9.24021 13.5 9.36739 13.5 9.5V10H15.5V9.5C15.5 9.36739 15.5527 9.24021 15.6464 9.14645C15.7402 9.05268 15.8674 9 16 9C16.1326 9 16.2598 9.05268 16.3536 9.14645C16.4473 9.24021 16.5 9.36739 16.5 9.5V10H18.5V9.5C18.5 9.36739 18.5527 9.24021 18.6464 9.14645C18.7402 9.05268 18.8674 9 19 9C19.1326 9 19.2598 9.05268 19.3536 9.14645C19.4473 9.24021 19.5 9.36739 19.5 9.5V10H21C21.1326 10 21.2598 10.0527 21.3536 10.1464C21.4473 10.2402 21.5 10.3674 21.5 10.5ZM20.5 11H19.5V11.5C19.5 11.6326 19.4473 11.7598 19.3536 11.8536C19.2598 11.9473 19.1326 12 19 12C18.8674 12 18.7402 11.9473 18.6464 11.8536C18.5527 11.7598 18.5 11.6326 18.5 11.5V11H16.5V11.5C16.5 11.6326 16.4473 11.7598 16.3536 11.8536C16.2598 11.9473 16.1326 12 16 12C15.8674 12 15.7402 11.9473 15.6464 11.8536C15.5527 11.7598 15.5 11.6326 15.5 11.5V11H13.5V11.5C13.5 11.6326 13.4473 11.7598 13.3536 11.8536C13.2598 11.9473 13.1326 12 13 12C12.8674 12 12.7402 11.9473 12.6464 11.8536C12.5527 11.7598 12.5 11.6326 12.5 11.5V11H11.5V20.5C11.5 20.7652 11.6054 21.0196 11.7929 21.2071C11.9804 21.3946 12.2348 21.5 12.5 21.5H19.5C19.7652 21.5 20.0196 21.3946 20.2071 21.2071C20.3946 21.0196 20.5 20.7652 20.5 20.5V11Z"
    fill="#DDE4E8" />
</svg>
