<svg width="16" height="16" viewBox="0 0 16 16" fill="none" xmlns="http://www.w3.org/2000/svg">
  <path fill-rule="evenodd" clip-rule="evenodd"
    d="M7.99967 14.6663C11.6816 14.6663 14.6663 11.6816 14.6663 7.99967C14.6663 4.31778 11.6816 1.33301 7.99967 1.33301C4.31778 1.33301 1.33301 4.31778 1.33301 7.99967C1.33301 11.6816 4.31778 14.6663 7.99967 14.6663ZM11.061 6.30667C11.2306 6.08869 11.1913 5.77456 10.9733 5.60502C10.7553 5.43549 10.4412 5.47475 10.2717 5.69273L7.60033 9.1273C7.54093 9.20367 7.4292 9.21358 7.35728 9.14886L5.66749 7.62805C5.46224 7.44332 5.14609 7.45996 4.96137 7.66522C4.77664 7.87047 4.79327 8.18662 4.99853 8.37134L6.68832 9.89215C7.19174 10.3452 7.97388 10.2759 8.38969 9.74124L11.061 6.30667Z"
    fill="#28D36C" />
</svg>
