<svg width="16" height="16" viewBox="0 0 16 16" fill="none" xmlns="http://www.w3.org/2000/svg">
  <path fill-rule="evenodd" clip-rule="evenodd"
    d="M14.6663 7.99967C14.6663 11.6816 11.6816 14.6663 7.99967 14.6663C4.31778 14.6663 1.33301 11.6816 1.33301 7.99967C1.33301 4.31778 4.31778 1.33301 7.99967 1.33301C11.6816 1.33301 14.6663 4.31778 14.6663 7.99967Z"
    fill="#FF8000" />
  <path d="M9 8C9 8.55228 8.55228 9 8 9C7.44772 9 7 8.55228 7 8C7 7.44772 7.44772 7 8 7C8.55228 7 9 7.44772 9 8Z"
    stroke="#060613" />
  <path d="M9.00033 8H10.667M8.00033 4V7" stroke="#060613" stroke-linecap="round" stroke-linejoin="round" />
</svg>
