<svg width="70" height="70" viewBox="0 0 70 70" fill="none" xmlns="http://www.w3.org/2000/svg">
<path d="M20.2372 45.83L13.0448 53.0227C12.4592 53.6085 12.4591 54.5584 13.0448 55.1441C13.6305 55.7298 14.5802 55.7297 15.166 55.1441L22.3585 47.9514C22.9443 47.3656 22.9443 46.4158 22.3585 45.83C21.7727 45.2442 20.823 45.2442 20.2372 45.83Z" stroke="white" stroke-width="3"/>
<path d="M25.0613 43.4115C24.6397 42.9898 23.956 42.9898 23.5344 43.4115L21.2365 45.7094C20.8148 46.1311 20.8148 46.8148 21.2365 47.2365C21.6582 47.6582 22.3418 47.6582 22.7635 47.2365L25.0613 44.9385C25.483 44.5168 25.483 43.8332 25.0613 43.4115Z" fill="white"/>
<path d="M47.7656 19.0413C44.7248 14.9133 39.8843 12.2432 34.4324 12.2432C25.2276 12.2432 17.7656 19.8543 17.7656 29.2432C17.7656 38.632 25.2276 46.2432 34.4324 46.2432C35.3786 46.2432 36.3064 46.1627 37.2096 46.0082" stroke="white" stroke-width="1.8" stroke-linecap="square"/>
<path d="M43 28H59" stroke="white" stroke-width="1.8" stroke-linecap="round"/>
<path d="M43 34H54" stroke="white" stroke-width="1.8" stroke-linecap="round"/>
<path d="M43 40H57" stroke="white" stroke-width="1.8" stroke-linecap="round"/>
</svg>
