<svg width="12" height="12" viewBox="0 0 12 12" fill="none" xmlns="http://www.w3.org/2000/svg">
  <path fill-rule="evenodd" clip-rule="evenodd"
    d="M11 6C11 8.76142 8.76142 11 6 11C3.23858 11 1 8.76142 1 6C1 3.23858 3.23858 1 6 1C8.76142 1 11 3.23858 11 6ZM6.5 3.5C6.5 3.77614 6.27614 4 6 4C5.72386 4 5.5 3.77614 5.5 3.5C5.5 3.22386 5.72386 3 6 3C6.27614 3 6.5 3.22386 6.5 3.5ZM5.5 4.625C5.29289 4.625 5.125 4.79289 5.125 5C5.125 5.20711 5.29289 5.375 5.5 5.375H5.625L5.625 8.5C5.625 8.70711 5.79289 8.875 6 8.875C6.20711 8.875 6.375 8.70711 6.375 8.5L6.375 5C6.375 4.79289 6.20711 4.625 6 4.625H5.5Z"
    fill="#B4B4BF" />
</svg>
