<svg width="16" height="16" viewBox="0 0 16 16" fill="none" xmlns="http://www.w3.org/2000/svg">
<path fill-rule="evenodd" clip-rule="evenodd" d="M14.6654 7.99967C14.6654 11.6816 11.6806 14.6663 7.9987 14.6663C4.3168 14.6663 1.33203 11.6816 1.33203 7.99967C1.33203 4.31778 4.3168 1.33301 7.9987 1.33301C11.6806 1.33301 14.6654 4.31778 14.6654 7.99967ZM7.9987 5.16634C7.53846 5.16634 7.16536 5.53944 7.16536 5.99967C7.16536 6.27582 6.94151 6.49967 6.66536 6.49967C6.38922 6.49967 6.16536 6.27582 6.16536 5.99967C6.16536 4.98715 6.98618 4.16634 7.9987 4.16634C9.01122 4.16634 9.83203 4.98715 9.83203 5.99967C9.83203 6.3639 9.7253 6.70472 9.54124 6.99076C9.42596 7.16992 9.29118 7.34097 9.1669 7.49543L9.09987 7.57851C8.99675 7.70614 8.90209 7.8233 8.81461 7.94352C8.59889 8.24 8.4987 8.46281 8.4987 8.66634V8.99967C8.4987 9.27582 8.27484 9.49967 7.9987 9.49967C7.72256 9.49967 7.4987 9.27582 7.4987 8.99967V8.66634C7.4987 8.1335 7.76031 7.69286 8.00601 7.35518C8.10982 7.21249 8.22359 7.07177 8.32703 6.9438L8.38779 6.86853C8.51125 6.7151 8.61635 6.58011 8.7003 6.44964C8.78364 6.32013 8.83203 6.16632 8.83203 5.99967C8.83203 5.53944 8.45894 5.16634 7.9987 5.16634ZM8.4987 10.6663C8.4987 10.3902 8.27484 10.1663 7.9987 10.1663C7.72256 10.1663 7.4987 10.3902 7.4987 10.6663V11.333C7.4987 11.6092 7.72256 11.833 7.9987 11.833C8.27484 11.833 8.4987 11.6092 8.4987 11.333V10.6663Z" fill="#70717D"/>
</svg>
