<svg width="24" height="24" viewBox="0 0 24 24" fill="none" xmlns="http://www.w3.org/2000/svg">
  <path
    d="M5.7 4.35C5.7 4.61701 5.62082 4.87801 5.47248 5.10002C5.32414 5.32203 5.1133 5.49506 4.86662 5.59724C4.61994 5.69942 4.3485 5.72615 4.08663 5.67406C3.82475 5.62197 3.58421 5.4934 3.39541 5.30459C3.20661 5.11579 3.07803 4.87525 3.02594 4.61337C2.97385 4.3515 3.00058 4.08006 3.10276 3.83338C3.20494 3.5867 3.37797 3.37586 3.59998 3.22752C3.82199 3.07918 4.083 3 4.35 3C4.70804 3 5.05142 3.14223 5.30459 3.39541C5.55777 3.64858 5.7 3.99196 5.7 4.35ZM12 3C11.733 3 11.472 3.07918 11.25 3.22752C11.028 3.37586 10.8549 3.5867 10.7528 3.83338C10.6506 4.08006 10.6238 4.3515 10.6759 4.61337C10.728 4.87525 10.8566 5.11579 11.0454 5.30459C11.2342 5.4934 11.4748 5.62197 11.7366 5.67406C11.9985 5.72615 12.2699 5.69942 12.5166 5.59724C12.7633 5.49506 12.9741 5.32203 13.1225 5.10002C13.2708 4.87801 13.35 4.61701 13.35 4.35C13.35 3.99196 13.2078 3.64858 12.9546 3.39541C12.7014 3.14223 12.358 3 12 3ZM19.65 5.7C19.917 5.7 20.178 5.62082 20.4 5.47248C20.622 5.32414 20.7951 5.1133 20.8972 4.86662C20.9994 4.61994 21.0261 4.3485 20.9741 4.08663C20.922 3.82475 20.7934 3.58421 20.6046 3.39541C20.4158 3.20661 20.1752 3.07803 19.9134 3.02594C19.6515 2.97385 19.3801 3.00058 19.1334 3.10276C18.8867 3.20494 18.6759 3.37797 18.5275 3.59998C18.3792 3.82199 18.3 4.083 18.3 4.35C18.3 4.70804 18.4422 5.05142 18.6954 5.30459C18.9486 5.55777 19.292 5.7 19.65 5.7ZM4.35 10.65C4.083 10.65 3.82199 10.7292 3.59998 10.8775C3.37797 11.0259 3.20494 11.2367 3.10276 11.4834C3.00058 11.7301 2.97385 12.0015 3.02594 12.2634C3.07803 12.5252 3.20661 12.7658 3.39541 12.9546C3.58421 13.1434 3.82475 13.272 4.08663 13.3241C4.3485 13.3762 4.61994 13.3494 4.86662 13.2472C5.1133 13.1451 5.32414 12.972 5.47248 12.75C5.62082 12.528 5.7 12.267 5.7 12C5.7 11.642 5.55777 11.2986 5.30459 11.0454C5.05142 10.7922 4.70804 10.65 4.35 10.65ZM12 10.65C11.733 10.65 11.472 10.7292 11.25 10.8775C11.028 11.0259 10.8549 11.2367 10.7528 11.4834C10.6506 11.7301 10.6238 12.0015 10.6759 12.2634C10.728 12.5252 10.8566 12.7658 11.0454 12.9546C11.2342 13.1434 11.4748 13.272 11.7366 13.3241C11.9985 13.3762 12.2699 13.3494 12.5166 13.2472C12.7633 13.1451 12.9741 12.972 13.1225 12.75C13.2708 12.528 13.35 12.267 13.35 12C13.35 11.642 13.2078 11.2986 12.9546 11.0454C12.7014 10.7922 12.358 10.65 12 10.65ZM19.65 10.65C19.383 10.65 19.122 10.7292 18.9 10.8775C18.678 11.0259 18.5049 11.2367 18.4028 11.4834C18.3006 11.7301 18.2738 12.0015 18.3259 12.2634C18.378 12.5252 18.5066 12.7658 18.6954 12.9546C18.8842 13.1434 19.1248 13.272 19.3866 13.3241C19.6485 13.3762 19.9199 13.3494 20.1666 13.2472C20.4133 13.1451 20.6241 12.972 20.7725 12.75C20.9208 12.528 21 12.267 21 12C21 11.642 20.8578 11.2986 20.6046 11.0454C20.3514 10.7922 20.008 10.65 19.65 10.65ZM4.35 18.3C4.083 18.3 3.82199 18.3792 3.59998 18.5275C3.37797 18.6759 3.20494 18.8867 3.10276 19.1334C3.00058 19.3801 2.97385 19.6515 3.02594 19.9134C3.07803 20.1752 3.20661 20.4158 3.39541 20.6046C3.58421 20.7934 3.82475 20.922 4.08663 20.9741C4.3485 21.0261 4.61994 20.9994 4.86662 20.8972C5.1133 20.7951 5.32414 20.622 5.47248 20.4C5.62082 20.178 5.7 19.917 5.7 19.65C5.7 19.292 5.55777 18.9486 5.30459 18.6954C5.05142 18.4422 4.70804 18.3 4.35 18.3ZM12 18.3C11.733 18.3 11.472 18.3792 11.25 18.5275C11.028 18.6759 10.8549 18.8867 10.7528 19.1334C10.6506 19.3801 10.6238 19.6515 10.6759 19.9134C10.728 20.1752 10.8566 20.4158 11.0454 20.6046C11.2342 20.7934 11.4748 20.922 11.7366 20.9741C11.9985 21.0261 12.2699 20.9994 12.5166 20.8972C12.7633 20.7951 12.9741 20.622 13.1225 20.4C13.2708 20.178 13.35 19.917 13.35 19.65C13.35 19.292 13.2078 18.9486 12.9546 18.6954C12.7014 18.4422 12.358 18.3 12 18.3ZM19.65 18.3C19.383 18.3 19.122 18.3792 18.9 18.5275C18.678 18.6759 18.5049 18.8867 18.4028 19.1334C18.3006 19.3801 18.2738 19.6515 18.3259 19.9134C18.378 20.1752 18.5066 20.4158 18.6954 20.6046C18.8842 20.7934 19.1248 20.922 19.3866 20.9741C19.6485 21.0261 19.9199 20.9994 20.1666 20.8972C20.4133 20.7951 20.6241 20.622 20.7725 20.4C20.9208 20.178 21 19.917 21 19.65C21 19.292 20.8578 18.9486 20.6046 18.6954C20.3514 18.4422 20.008 18.3 19.65 18.3Z"
    fill="white" />
</svg>
