<svg width="20" height="20" viewBox="0 0 20 20" fill="none" xmlns="http://www.w3.org/2000/svg">
  <path
    d="M11.5667 17.1579C10.9084 17.1579 10.1834 16.9245 9.45836 16.4662L7.02502 14.9412C6.85836 14.8412 6.66669 14.7829 6.47502 14.7829H5.27502C3.25836 14.7829 2.15002 13.6745 2.15002 11.6579V8.32452C2.15002 6.30785 3.25836 5.19952 5.27502 5.19952H6.46669C6.65836 5.19952 6.85002 5.14119 7.01669 5.04119L9.45002 3.51618C10.6667 2.75785 11.85 2.61618 12.7834 3.13285C13.7167 3.64952 14.225 4.72452 14.225 6.16618V13.8079C14.225 15.2412 13.7084 16.3245 12.7834 16.8412C12.4167 17.0578 12.0084 17.1579 11.5667 17.1579ZM5.27502 6.45785C3.95836 6.45785 3.40002 7.01618 3.40002 8.33285V11.6662C3.40002 12.9829 3.95836 13.5412 5.27502 13.5412H6.46669C6.90002 13.5412 7.31669 13.6579 7.68336 13.8912L10.1167 15.4162C10.925 15.9162 11.675 16.0495 12.1834 15.7662C12.6917 15.4829 12.9834 14.7745 12.9834 13.8329V6.17452C12.9834 5.22452 12.6917 4.51619 12.1834 4.24119C11.675 3.95785 10.925 4.08285 10.1167 4.59119L7.68336 6.10785C7.31669 6.34118 6.90002 6.45785 6.46669 6.45785H5.27502Z"
    fill="url(#paint0_linear_10515_69882)" />
  <path
    d="M16.1084 13.9579C15.975 13.9579 15.85 13.9162 15.7334 13.8329C15.4584 13.6245 15.4 13.2329 15.6084 12.9579C16.9167 11.2162 16.9167 8.78285 15.6084 7.04118C15.4 6.76618 15.4584 6.37452 15.7334 6.16619C16.0084 5.95785 16.4 6.01619 16.6084 6.29119C18.25 8.47452 18.25 11.5245 16.6084 13.7079C16.4917 13.8745 16.3 13.9579 16.1084 13.9579Z"
    fill="url(#paint1_linear_10515_69882)" />
  <defs>
    <linearGradient id="paint0_linear_10515_69882" x1="3" y1="10" x2="17.5" y2="10.5" gradientUnits="userSpaceOnUse">
      <stop stop-color="#FFC517" />
      <stop offset="0.451991" stop-color="#E1AE14" stop-opacity="0.940776" />
      <stop offset="1" stop-color="#99760E" stop-opacity="0.6" />
    </linearGradient>
    <linearGradient id="paint1_linear_10515_69882" x1="3" y1="10" x2="17.5" y2="10.5" gradientUnits="userSpaceOnUse">
      <stop stop-color="#FFC517" />
      <stop offset="0.451991" stop-color="#E1AE14" stop-opacity="0.940776" />
      <stop offset="1" stop-color="#99760E" stop-opacity="0.6" />
    </linearGradient>
  </defs>
</svg>
