<svg width="40" height="40" viewBox="0 0 40 40" fill="none" xmlns="http://www.w3.org/2000/svg">
<rect width="40" height="40" rx="20" fill="#353649"/>
<path d="M29.4574 10.4554C29.3412 10.355 29.1998 10.2883 29.0485 10.2624C28.8971 10.2364 28.7416 10.2523 28.5986 10.3082L9.59925 17.7435C9.32998 17.8482 9.10202 18.0376 8.94967 18.283C8.79733 18.5285 8.72885 18.8168 8.75455 19.1046C8.78025 19.3923 8.89874 19.664 9.09216 19.8786C9.28559 20.0932 9.5435 20.2391 9.82706 20.2944L14.7499 21.261V26.7501C14.7489 27.0491 14.8378 27.3414 15.0049 27.5893C15.1721 27.8372 15.4098 28.0292 15.6874 28.1404C15.9645 28.2535 16.2692 28.2807 16.562 28.2183C16.8548 28.156 17.122 28.007 17.3289 27.7907L19.7027 25.3288L23.4686 28.6251C23.7403 28.8661 24.0907 28.9994 24.4539 29.0001C24.6131 28.9999 24.7712 28.975 24.9227 28.926C25.1701 28.8475 25.3927 28.7055 25.5682 28.5142C25.7437 28.3229 25.866 28.089 25.923 27.8357L29.7283 11.2813C29.7623 11.132 29.7551 10.9763 29.7074 10.8308C29.6597 10.6853 29.5732 10.5555 29.4574 10.4554ZM23.7255 13.8304L15.3264 19.8454L10.6764 18.9332L23.7255 13.8304ZM16.2499 26.7501V22.2988L18.5739 24.3369L16.2499 26.7501ZM24.4558 27.5001L16.7046 20.7032L27.8608 12.7073L24.4558 27.5001Z" fill="white"/>
</svg>
