<svg width="40" height="40" viewBox="0 0 40 40" fill="none" xmlns="http://www.w3.org/2000/svg">
<rect width="40" height="40" rx="20" fill="#353649"/>
<path d="M25.5856 21.5787L22.5856 20.0787C22.4675 20.0199 22.3359 19.9933 22.2043 20.0015C22.0726 20.0097 21.9454 20.0525 21.8356 20.1256L20.4584 21.0444C19.8262 20.6968 19.3059 20.1766 18.9584 19.5444L19.8771 18.1672C19.9502 18.0573 19.993 17.9302 20.0013 17.7985C20.0095 17.6668 19.9828 17.5353 19.924 17.4172L18.424 14.4172C18.3618 14.2916 18.2657 14.186 18.1466 14.1123C18.0274 14.0385 17.89 13.9996 17.7499 14C16.7554 14 15.8015 14.3951 15.0983 15.0983C14.395 15.8016 13.9999 16.7554 13.9999 17.75C14.0024 19.9373 14.8724 22.0343 16.419 23.5809C17.9657 25.1275 20.0627 25.9975 22.2499 26C22.7424 26 23.23 25.903 23.685 25.7145C24.14 25.5261 24.5534 25.2499 24.9016 24.9017C25.2498 24.5534 25.526 24.14 25.7145 23.6851C25.9029 23.2301 25.9999 22.7425 25.9999 22.25C26 22.1107 25.9613 21.9741 25.8881 21.8555C25.8149 21.7369 25.7102 21.6411 25.5856 21.5787ZM22.2499 24.5C20.4603 24.498 18.7446 23.7862 17.4792 22.5208C16.2137 21.2553 15.5019 19.5396 15.4999 17.75C15.4998 17.2298 15.6799 16.7256 16.0096 16.3233C16.3393 15.9209 16.7983 15.6452 17.3084 15.5431L18.3846 17.6994L17.4687 19.0625C17.4002 19.1652 17.3582 19.2831 17.3462 19.406C17.3343 19.5288 17.3529 19.6526 17.4002 19.7666C17.9369 21.0419 18.9514 22.0565 20.2268 22.5931C20.3411 22.6426 20.4659 22.6629 20.5899 22.6521C20.714 22.6413 20.8334 22.5998 20.9374 22.5312L22.3071 21.6181L24.4634 22.6944C24.3605 23.205 24.0836 23.6642 23.6799 23.9935C23.2763 24.3228 22.7709 24.5018 22.2499 24.5ZM19.9999 10.25C18.3166 10.2496 16.6619 10.6851 15.1968 11.514C13.7317 12.3428 12.5062 13.5369 11.6395 14.98C10.7728 16.423 10.2944 18.0659 10.251 19.7486C10.2076 21.4314 10.6006 23.0967 11.3918 24.5825L10.3277 27.7747C10.2396 28.039 10.2268 28.3226 10.2908 28.5938C10.3548 28.8649 10.493 29.1129 10.69 29.3099C10.887 29.5069 11.135 29.6451 11.4062 29.7091C11.6773 29.7731 11.9609 29.7603 12.2252 29.6722L15.4174 28.6081C16.725 29.3036 18.1739 29.6921 19.654 29.744C21.1342 29.7959 22.6067 29.51 23.9598 28.9079C25.3129 28.3057 26.5111 27.4033 27.4634 26.269C28.4156 25.1346 29.097 23.7983 29.4557 22.3613C29.8144 20.9244 29.841 19.4246 29.5335 17.9758C29.226 16.527 28.5925 15.1673 27.6811 13.9999C26.7697 12.8325 25.6043 11.8881 24.2733 11.2384C22.9424 10.5886 21.481 10.2506 19.9999 10.25ZM19.9999 28.25C18.5496 28.251 17.1247 27.8691 15.8693 27.1428C15.7774 27.0895 15.6752 27.0563 15.5695 27.0455C15.4638 27.0347 15.357 27.0464 15.2562 27.08L11.7499 28.25L12.919 24.7438C12.9527 24.643 12.9646 24.5362 12.9539 24.4305C12.9433 24.3248 12.9103 24.2226 12.8571 24.1306C11.9477 22.5584 11.5826 20.7299 11.8184 18.929C12.0542 17.128 12.8777 15.4552 14.1613 14.1701C15.4448 12.8849 17.1166 12.0593 18.9172 11.8212C20.7179 11.5831 22.5468 11.9459 24.1202 12.8533C25.6936 13.7607 26.9236 15.162 27.6193 16.8398C28.3151 18.5176 28.4377 20.3781 27.9681 22.1327C27.4986 23.8873 26.4632 25.4379 25.0224 26.5439C23.5817 27.65 21.8163 28.2497 19.9999 28.25Z" fill="white"/>
</svg>
