<svg width="23" height="22" viewBox="0 0 23 22" fill="none" xmlns="http://www.w3.org/2000/svg">
  <path
    d="M14.1123 3.62057V7.10391H12.7373V3.62057C12.7373 3.37307 12.5173 3.25391 12.3707 3.25391C12.3248 3.25391 12.279 3.26307 12.2332 3.28141L4.964 6.02224C4.47817 6.20557 4.1665 6.66391 4.1665 7.18641V7.80057C3.33234 8.42391 2.7915 9.42307 2.7915 10.5506V7.18641C2.7915 6.09557 3.46067 5.12391 4.47817 4.73891L11.7565 1.98891C11.9582 1.91557 12.169 1.87891 12.3707 1.87891C13.2873 1.87891 14.1123 2.62141 14.1123 3.62057Z"
    fill="#FFD400" />
  <path
    d="M20.2083 13.2923V14.209C20.2083 14.4565 20.0158 14.6581 19.7591 14.6673H18.4208C17.935 14.6673 17.495 14.3098 17.4583 13.8332C17.4308 13.549 17.5408 13.2832 17.7241 13.0998C17.8891 12.9257 18.1183 12.834 18.3658 12.834H19.75C20.0158 12.8432 20.2083 13.0448 20.2083 13.2923Z"
    fill="#FFD400" />
  <path
    d="M18.3565 11.8702H19.2915C19.7957 11.8702 20.2082 11.4577 20.2082 10.9535V10.5502C20.2082 8.65268 18.659 7.10352 16.7615 7.10352H6.23817C5.459 7.10352 4.744 7.36018 4.1665 7.80018C3.33234 8.42352 2.7915 9.42268 2.7915 10.5502V16.7193C2.7915 18.6168 4.34067 20.166 6.23817 20.166H16.7615C18.659 20.166 20.2082 18.6168 20.2082 16.7193V16.5452C20.2082 16.041 19.7957 15.6285 19.2915 15.6285H18.494C17.614 15.6285 16.7707 15.0877 16.5415 14.2352C16.349 13.5385 16.5782 12.8693 17.0365 12.4202C17.3757 12.0718 17.8432 11.8702 18.3565 11.8702ZM13.3332 11.6868H6.9165C6.54067 11.6868 6.229 11.3752 6.229 10.9993C6.229 10.6235 6.54067 10.3118 6.9165 10.3118H13.3332C13.709 10.3118 14.0207 10.6235 14.0207 10.9993C14.0207 11.3752 13.709 11.6868 13.3332 11.6868Z"
    fill="#FFD400" />
</svg>
