<svg width="23" height="22" viewBox="0 0 23 22" fill="none" xmlns="http://www.w3.org/2000/svg">
  <path
    d="M17.0365 12.4202C16.6515 12.796 16.4315 13.3368 16.4865 13.9143C16.569 14.9043 17.4765 15.6285 18.4665 15.6285H20.2082V16.7193C20.2082 18.6168 18.659 20.166 16.7615 20.166H6.23817C4.34067 20.166 2.7915 18.6168 2.7915 16.7193V10.5502C2.7915 8.65269 4.34067 7.10352 6.23817 7.10352H16.7615C18.659 7.10352 20.2082 8.65269 20.2082 10.5502V11.8702H18.3565C17.8432 11.8702 17.3757 12.0718 17.0365 12.4202Z"
    stroke="#868F9E" stroke-width="1.5" stroke-linecap="round" stroke-linejoin="round" />
  <path
    d="M2.7915 11.3757V7.18658C2.7915 6.09575 3.46067 5.12404 4.47817 4.73904L11.7565 1.98904C12.8932 1.55821 14.1123 2.40157 14.1123 3.62073V7.10405"
    stroke="#868F9E" stroke-width="1.5" stroke-linecap="round" stroke-linejoin="round" />
  <path
    d="M21.1787 12.8061V14.6944C21.1787 15.1986 20.7754 15.6111 20.2621 15.6294H18.4654C17.4754 15.6294 16.5679 14.9052 16.4854 13.9152C16.4304 13.3377 16.6504 12.7969 17.0354 12.4211C17.3746 12.0727 17.8421 11.8711 18.3554 11.8711H20.2621C20.7754 11.8894 21.1787 12.3019 21.1787 12.8061Z"
    stroke="#868F9E" stroke-width="1.5" stroke-linecap="round" stroke-linejoin="round" />
  <path d="M6.9165 11H13.3332" stroke="#868F9E" stroke-width="1.5" stroke-linecap="round" stroke-linejoin="round" />
</svg>
