<svg width="23" height="22" viewBox="0 0 23 22" fill="none" xmlns="http://www.w3.org/2000/svg">
  <path
    d="M16.0835 1.83398H6.91683C4.38683 1.83398 2.3335 3.87815 2.3335 6.39898V11.8807V12.7973C2.3335 15.3182 4.38683 17.3623 6.91683 17.3623H8.29183C8.53933 17.3623 8.86933 17.5273 9.02516 17.729L10.4002 19.5532C11.0052 20.3598 11.9952 20.3598 12.6002 19.5532L13.9752 17.729C14.1493 17.4998 14.4243 17.3623 14.7085 17.3623H16.0835C18.6135 17.3623 20.6668 15.3182 20.6668 12.7973V6.39898C20.6668 3.87815 18.6135 1.83398 16.0835 1.83398ZM7.8335 11.0007C7.32016 11.0007 6.91683 10.5882 6.91683 10.084C6.91683 9.57982 7.32933 9.16732 7.8335 9.16732C8.33766 9.16732 8.75016 9.57982 8.75016 10.084C8.75016 10.5882 8.34683 11.0007 7.8335 11.0007ZM11.5002 11.0007C10.9868 11.0007 10.5835 10.5882 10.5835 10.084C10.5835 9.57982 10.996 9.16732 11.5002 9.16732C12.0043 9.16732 12.4168 9.57982 12.4168 10.084C12.4168 10.5882 12.0135 11.0007 11.5002 11.0007ZM15.1668 11.0007C14.6535 11.0007 14.2502 10.5882 14.2502 10.084C14.2502 9.57982 14.6627 9.16732 15.1668 9.16732C15.671 9.16732 16.0835 9.57982 16.0835 10.084C16.0835 10.5882 15.6802 11.0007 15.1668 11.0007Z"
    fill="white" />
</svg>
