<svg width="23" height="22" viewBox="0 0 23 22" fill="none" xmlns="http://www.w3.org/2000/svg">
  <path
    d="M8.29183 17.4173H7.8335C4.16683 17.4173 2.3335 16.5007 2.3335 11.9173V7.33398C2.3335 3.66732 4.16683 1.83398 7.8335 1.83398H15.1668C18.8335 1.83398 20.6668 3.66732 20.6668 7.33398V11.9173C20.6668 15.584 18.8335 17.4173 15.1668 17.4173H14.7085C14.4243 17.4173 14.1493 17.5548 13.9752 17.784L12.6002 19.6173C11.9952 20.424 11.0052 20.424 10.4002 19.6173L9.02516 17.784C8.8785 17.5823 8.53933 17.4173 8.29183 17.4173Z"
    stroke="#868F9E" stroke-width="1.5" stroke-miterlimit="10" stroke-linecap="round" stroke-linejoin="round" />
  <path d="M15.1633 10.0833H15.1715" stroke="#868F9E" stroke-width="2" stroke-linecap="round" stroke-linejoin="round" />
  <path d="M11.4958 10.0833H11.504" stroke="#868F9E" stroke-width="2" stroke-linecap="round" stroke-linejoin="round" />
  <path d="M7.8283 10.0833H7.83653" stroke="#868F9E" stroke-width="2" stroke-linecap="round" stroke-linejoin="round" />
</svg>
