<svg width="25" height="24" viewBox="0 0 25 24" fill="none" xmlns="http://www.w3.org/2000/svg">
  <path
    d="M21.1997 18.75H20.4497V3.75C20.4497 3.55109 20.3707 3.36032 20.23 3.21967C20.0894 3.07902 19.8986 3 19.6997 3H14.4497C14.2508 3 14.06 3.07902 13.9194 3.21967C13.7787 3.36032 13.6997 3.55109 13.6997 3.75V7.5H9.19971C9.00079 7.5 8.81003 7.57902 8.66938 7.71967C8.52872 7.86032 8.44971 8.05109 8.44971 8.25V12H4.69971C4.50079 12 4.31003 12.079 4.16938 12.2197C4.02872 12.3603 3.94971 12.5511 3.94971 12.75V18.75H3.19971C3.00079 18.75 2.81003 18.829 2.66938 18.9697C2.52872 19.1103 2.44971 19.3011 2.44971 19.5C2.44971 19.6989 2.52872 19.8897 2.66938 20.0303C2.81003 20.171 3.00079 20.25 3.19971 20.25H21.1997C21.3986 20.25 21.5894 20.171 21.73 20.0303C21.8707 19.8897 21.9497 19.6989 21.9497 19.5C21.9497 19.3011 21.8707 19.1103 21.73 18.9697C21.5894 18.829 21.3986 18.75 21.1997 18.75ZM15.1997 4.5H18.9497V18.75H15.1997V4.5ZM9.94971 9H13.6997V18.75H9.94971V9ZM5.44971 13.5H8.44971V18.75H5.44971V13.5Z"
    fill="white" />
</svg>
