<svg width="23" height="22" viewBox="0 0 23 22" fill="none" xmlns="http://www.w3.org/2000/svg">
  <path
    d="M11.625 1C6.105 1 1.625 5.48 1.625 11C1.625 16.52 6.105 21 11.625 21C17.145 21 21.625 16.52 21.625 11C21.625 5.48 17.145 1 11.625 1ZM17.475 13.1C17.435 13.19 17.385 13.27 17.315 13.34L14.275 16.38C14.125 16.53 13.935 16.6 13.745 16.6C13.555 16.6 13.365 16.53 13.215 16.38C12.925 16.09 12.925 15.61 13.215 15.32L14.975 13.56H6.475C6.065 13.56 5.725 13.22 5.725 12.81C5.725 12.4 6.065 12.06 6.475 12.06H16.785C16.885 12.06 16.975 12.08 17.075 12.12C17.255 12.2 17.405 12.34 17.485 12.53C17.545 12.71 17.545 12.92 17.475 13.1ZM16.775 9.93H6.475C6.375 9.93 6.275 9.91 6.185 9.87C6.005 9.79 5.855 9.65 5.775 9.46C5.695 9.28 5.695 9.07 5.775 8.89C5.815 8.8 5.865 8.72 5.935 8.65L8.975 5.61C9.265 5.32 9.745 5.32 10.035 5.61C10.325 5.9 10.325 6.38 10.035 6.67L8.285 8.43H16.785C17.195 8.43 17.535 8.77 17.535 9.18C17.535 9.59 17.195 9.93 16.775 9.93Z"
    fill="white" />
</svg>
