<svg width="20" height="20" viewBox="0 0 20 20" fill="none" xmlns="http://www.w3.org/2000/svg">
  <path
    d="M8.32507 18.9833C7.82507 18.9833 7.35008 18.7333 7.02508 18.2917L6.02509 16.9583C6.02509 16.9667 5.98342 16.9417 5.96675 16.9417H5.65842C2.80842 16.9417 1.04175 16.1667 1.04175 12.325V8.99167C1.04175 5.48334 3.18342 4.56667 4.98342 4.40834C5.18342 4.38334 5.41676 4.375 5.65842 4.375H10.9918C14.0084 4.375 15.6084 5.97501 15.6084 8.99167V12.325C15.6084 12.5667 15.6001 12.8 15.5667 13.025C15.4167 14.8 14.5001 16.9417 10.9918 16.9417H10.6584L9.62507 18.2917C9.30007 18.7333 8.82507 18.9833 8.32507 18.9833ZM5.65842 5.625C5.46676 5.625 5.28342 5.63333 5.10842 5.65C3.17509 5.81667 2.29175 6.87501 2.29175 8.99167V12.325C2.29175 15.1833 3.17509 15.6917 5.65842 15.6917H5.99175C6.36675 15.6917 6.79174 15.9 7.02508 16.2L8.02509 17.5417C8.20842 17.7917 8.44175 17.7917 8.62509 17.5417L9.62507 16.2083C9.86674 15.8833 10.2501 15.6917 10.6584 15.6917H10.9918C13.1084 15.6917 14.1668 14.8 14.3251 12.9C14.3501 12.7 14.3584 12.5167 14.3584 12.325V8.99167C14.3584 6.66667 13.3168 5.625 10.9918 5.625H5.65842Z"
    fill="white" />
  <path
    d="M8.32528 11.8268C7.85861 11.8268 7.49194 11.4518 7.49194 10.9935C7.49194 10.5352 7.86694 10.1602 8.32528 10.1602C8.78361 10.1602 9.15861 10.5352 9.15861 10.9935C9.15861 11.4518 8.79194 11.8268 8.32528 11.8268Z"
    fill="white" />
  <path
    d="M10.9915 11.8268C10.5249 11.8268 10.1582 11.4518 10.1582 10.9935C10.1582 10.5352 10.5332 10.1602 10.9915 10.1602C11.4499 10.1602 11.8249 10.5352 11.8249 10.9935C11.8249 11.4518 11.4499 11.8268 10.9915 11.8268Z"
    fill="white" />
  <path
    d="M5.66659 11.8268C5.19992 11.8268 4.83325 11.4518 4.83325 10.9935C4.83325 10.5352 5.20825 10.1602 5.66659 10.1602C6.12492 10.1602 6.49992 10.5352 6.49992 10.9935C6.49992 11.4518 6.12492 11.8268 5.66659 11.8268Z"
    fill="white" />
  <path
    d="M14.9502 13.5763C14.7835 13.5763 14.6169 13.5096 14.5002 13.3846C14.3669 13.2513 14.3085 13.0596 14.3335 12.8763C14.3585 12.7013 14.3669 12.518 14.3669 12.3263V8.99298C14.3669 6.66798 13.3252 5.6263 11.0002 5.6263H5.66685C5.47518 5.6263 5.29187 5.63463 5.11687 5.6513C4.93354 5.6763 4.74186 5.60962 4.60852 5.48462C4.47519 5.35129 4.40018 5.16798 4.41685 4.98464C4.56685 3.18464 5.49185 1.04297 9.00018 1.04297H14.3335C17.3502 1.04297 18.9502 2.64298 18.9502 5.65964V8.99298C18.9502 12.5013 16.8085 13.418 15.0085 13.5763C14.9835 13.5763 14.9669 13.5763 14.9502 13.5763ZM5.76687 4.3763H10.9919C14.0085 4.3763 15.6085 5.97631 15.6085 8.99298V12.218C17.0252 11.868 17.6919 10.8263 17.6919 8.99298V5.65964C17.6919 3.33464 16.6502 2.29297 14.3252 2.29297H8.99187C7.15853 2.29297 6.1252 2.95964 5.76687 4.3763Z"
    fill="white" />
</svg>
