<svg width="32" height="32" viewBox="0 0 32 32" fill="none" xmlns="http://www.w3.org/2000/svg">
<rect width="32" height="32" rx="16" fill="#353649"/>
<path d="M22.875 9.75H9.12502C8.7935 9.75 8.47556 9.8817 8.24114 10.1161C8.00672 10.3505 7.87502 10.6685 7.87502 11V23.5C7.87361 23.7383 7.94096 23.9719 8.06901 24.1728C8.19705 24.3737 8.38034 24.5335 8.5969 24.6328C8.76238 24.7096 8.94257 24.7496 9.12502 24.75C9.41846 24.7493 9.70217 24.6447 9.9258 24.4547L9.93283 24.4492L12.4844 22.25H22.875C23.2065 22.25 23.5245 22.1183 23.7589 21.8839C23.9933 21.6495 24.125 21.3315 24.125 21V11C24.125 10.6685 23.9933 10.3505 23.7589 10.1161C23.5245 9.8817 23.2065 9.75 22.875 9.75ZM22.875 21H12.25C12.1 21.0001 11.9549 21.0542 11.8414 21.1523L9.12502 23.5V11H22.875V21ZM12.875 14.75C12.875 14.5842 12.9409 14.4253 13.0581 14.3081C13.1753 14.1908 13.3343 14.125 13.5 14.125H18.5C18.6658 14.125 18.8248 14.1908 18.942 14.3081C19.0592 14.4253 19.125 14.5842 19.125 14.75C19.125 14.9158 19.0592 15.0747 18.942 15.1919C18.8248 15.3092 18.6658 15.375 18.5 15.375H13.5C13.3343 15.375 13.1753 15.3092 13.0581 15.1919C12.9409 15.0747 12.875 14.9158 12.875 14.75ZM12.875 17.25C12.875 17.0842 12.9409 16.9253 13.0581 16.8081C13.1753 16.6908 13.3343 16.625 13.5 16.625H18.5C18.6658 16.625 18.8248 16.6908 18.942 16.8081C19.0592 16.9253 19.125 17.0842 19.125 17.25C19.125 17.4158 19.0592 17.5747 18.942 17.6919C18.8248 17.8092 18.6658 17.875 18.5 17.875H13.5C13.3343 17.875 13.1753 17.8092 13.0581 17.6919C12.9409 17.5747 12.875 17.4158 12.875 17.25Z" fill="white"/>
</svg>
