<svg width="32" height="32" viewBox="0 0 32 32" fill="none" xmlns="http://www.w3.org/2000/svg">
<rect width="32" height="32" rx="16" fill="#353649"/>
<path d="M7.6665 15.375C7.66754 14.3808 8.06296 13.4276 8.766 12.7245C9.46903 12.0215 10.4223 11.6261 11.4165 11.625H14.5259C14.7532 11.6117 18.7149 11.3328 22.4876 8.16878C22.6698 8.01577 22.8918 7.91793 23.1277 7.88676C23.3636 7.85558 23.6034 7.89236 23.8191 7.99278C24.0348 8.09319 24.2173 8.25307 24.3453 8.45364C24.4733 8.6542 24.5413 8.88712 24.5415 9.12503V21.625C24.5415 21.863 24.4735 22.096 24.3456 22.2967C24.2177 22.4974 24.0352 22.6574 23.8194 22.7579C23.6037 22.8584 23.3638 22.8953 23.1279 22.8641C22.892 22.833 22.6698 22.7351 22.4876 22.5821C19.5368 20.1071 16.472 19.3977 15.1665 19.1992V21.6774C15.1668 21.8833 15.1161 22.0862 15.0191 22.2679C14.922 22.4496 14.7816 22.6045 14.6103 22.7188L13.7509 23.2914C13.5848 23.4023 13.3945 23.4718 13.1961 23.494C12.9976 23.5162 12.7967 23.4906 12.6102 23.4192C12.4237 23.3478 12.257 23.2328 12.124 23.0837C11.9911 22.9347 11.8958 22.756 11.8462 22.5625L10.9267 19.0969C10.0245 18.9769 9.19668 18.5333 8.59702 17.8487C7.99736 17.1642 7.66669 16.2851 7.6665 15.375ZM23.2915 21.6196V9.12503C19.947 11.9305 16.5235 12.6407 15.1665 12.8157V17.9313C16.522 18.1094 19.9446 18.818 23.2915 21.6196ZM13.0571 22.2446V22.2532L13.9165 21.6805V19.125H12.229L13.0571 22.2446ZM11.4165 17.875H13.9165V12.875H11.4165C10.7535 12.875 10.1176 13.1384 9.64874 13.6073C9.1799 14.0761 8.9165 14.712 8.9165 15.375C8.9165 16.0381 9.1799 16.674 9.64874 17.1428C10.1176 17.6116 10.7535 17.875 11.4165 17.875Z" fill="white"/>
</svg>
