<svg width="32" height="32" viewBox="0 0 32 32" fill="none" xmlns="http://www.w3.org/2000/svg">
<rect width="32" height="32" rx="16" fill="#353649"/>
<path d="M23.5 9.75H8.5C8.33424 9.75 8.17527 9.81585 8.05806 9.93306C7.94085 10.0503 7.875 10.2092 7.875 10.375V21C7.875 21.3315 8.0067 21.6495 8.24112 21.8839C8.47554 22.1183 8.79348 22.25 9.125 22.25H22.875C23.2065 22.25 23.5245 22.1183 23.7589 21.8839C23.9933 21.6495 24.125 21.3315 24.125 21V10.375C24.125 10.2092 24.0592 10.0503 23.9419 9.93306C23.8247 9.81585 23.6658 9.75 23.5 9.75ZM16 16.4023L10.107 11H21.893L16 16.4023ZM13.7117 16L9.125 20.2039V11.7961L13.7117 16ZM14.6367 16.8477L15.5742 17.7109C15.6895 17.8168 15.8404 17.8755 15.9969 17.8755C16.1534 17.8755 16.3042 17.8168 16.4195 17.7109L17.357 16.8477L21.8883 21H10.107L14.6367 16.8477ZM18.2883 16L22.875 11.7953V20.2047L18.2883 16Z" fill="white"/>
</svg>
