<svg width="31" height="30" viewBox="0 0 31 30" fill="none" xmlns="http://www.w3.org/2000/svg">
<path d="M25.875 11.5625C26.3928 11.5625 26.8125 11.9822 26.8125 12.5V27.5C26.8125 28.0178 26.3928 28.4375 25.875 28.4375H4.625C4.10723 28.4375 3.6875 28.0178 3.6875 27.5V12.5C3.6875 11.9822 4.10723 11.5625 4.625 11.5625H25.875ZM5.5625 26.5625H24.9375V13.4375H5.5625V26.5625Z" fill="white"/>
<path d="M14.3125 27.5V12.5C14.3125 11.9822 14.7322 11.5625 15.25 11.5625C15.7678 11.5625 16.1875 11.9822 16.1875 12.5V27.5C16.1875 28.0178 15.7678 28.4375 15.25 28.4375C14.7322 28.4375 14.3125 28.0178 14.3125 27.5Z" fill="white"/>
<path d="M25.875 27.5H4.625" stroke="white" stroke-width="1.5" stroke-linecap="round" stroke-linejoin="round"/>
<path d="M27.75 6.5625C28.2678 6.5625 28.6875 6.98223 28.6875 7.5V12.5C28.6875 13.0178 28.2678 13.4375 27.75 13.4375H2.75C2.23223 13.4375 1.8125 13.0178 1.8125 12.5V7.5C1.8125 6.98223 2.23223 6.5625 2.75 6.5625H27.75ZM3.6875 11.5625H26.8125V8.4375H3.6875V11.5625Z" fill="white"/>
<path d="M19.5872 1.83709C19.9533 1.47097 20.5467 1.47097 20.9128 1.83709C21.279 2.2032 21.279 2.79665 20.9128 3.16277L15.9128 8.16277C15.5467 8.52889 14.9533 8.52889 14.5872 8.16277L9.58716 3.16277C9.22105 2.79665 9.22105 2.2032 9.58716 1.83709C9.95328 1.47097 10.5467 1.47097 10.9128 1.83709L15.25 6.17425L19.5872 1.83709Z" fill="white"/>
</svg>
