<svg width="31" height="30" viewBox="0 0 31 30" fill="none" xmlns="http://www.w3.org/2000/svg">
  <path
    d="M27.4981 7.39102L26.952 7.07578C27.016 6.73659 27.016 6.38841 26.952 6.04922L27.4981 5.73398C27.7135 5.60966 27.8706 5.40487 27.935 5.16467C27.9994 4.92446 27.9658 4.66851 27.8414 4.45313C27.7171 4.23774 27.5123 4.08056 27.2721 4.01617C27.0319 3.95178 26.776 3.98545 26.5606 4.10977L26.0133 4.42617C25.7514 4.20147 25.4503 4.02706 25.125 3.91172V3.28125C25.125 3.03261 25.0263 2.79415 24.8504 2.61834C24.6746 2.44252 24.4362 2.34375 24.1875 2.34375C23.9389 2.34375 23.7004 2.44252 23.5246 2.61834C23.3488 2.79415 23.25 3.03261 23.25 3.28125V3.91172C22.9248 4.02706 22.6237 4.20147 22.3617 4.42617L21.8145 4.10977C21.7078 4.04821 21.5901 4.00826 21.468 3.9922C21.3459 3.97614 21.2219 3.98429 21.1029 4.01617C20.984 4.04805 20.8725 4.10305 20.7748 4.17803C20.6771 4.253 20.5952 4.34648 20.5336 4.45313C20.4721 4.55977 20.4321 4.6775 20.4161 4.79959C20.4 4.92167 20.4081 5.04573 20.44 5.16467C20.4719 5.28361 20.5269 5.3951 20.6019 5.49278C20.6769 5.59047 20.7703 5.67243 20.877 5.73398L21.4231 6.04922C21.359 6.38841 21.359 6.73659 21.4231 7.07578L20.877 7.39102C20.6982 7.49416 20.5584 7.65344 20.4793 7.84415C20.4003 8.03486 20.3864 8.24633 20.4398 8.44574C20.4932 8.64515 20.611 8.82135 20.7748 8.947C20.9386 9.07264 21.1393 9.14071 21.3457 9.14063C21.5103 9.14114 21.6721 9.09786 21.8145 9.01523L22.3617 8.69883C22.6237 8.92353 22.9248 9.09794 23.25 9.21328V9.84375C23.25 10.0924 23.3488 10.3308 23.5246 10.5067C23.7004 10.6825 23.9389 10.7813 24.1875 10.7813C24.4362 10.7813 24.6746 10.6825 24.8504 10.5067C25.0263 10.3308 25.125 10.0924 25.125 9.84375V9.21328C25.4503 9.09794 25.7514 8.92353 26.0133 8.69883L26.5606 9.01523C26.7029 9.09786 26.8647 9.14114 27.0293 9.14063C27.2358 9.14071 27.4365 9.07264 27.6003 8.947C27.7641 8.82135 27.8818 8.64515 27.9353 8.44574C27.9887 8.24633 27.9748 8.03486 27.8957 7.84415C27.8167 7.65344 27.6769 7.49416 27.4981 7.39102ZM23.25 6.5625C23.25 6.37708 23.305 6.19582 23.408 6.04165C23.511 5.88748 23.6575 5.76732 23.8288 5.69636C24.0001 5.62541 24.1886 5.60684 24.3704 5.64301C24.5523 5.67919 24.7193 5.76848 24.8504 5.89959C24.9816 6.0307 25.0708 6.19775 25.107 6.3796C25.1432 6.56146 25.1246 6.74996 25.0537 6.92127C24.9827 7.09257 24.8625 7.23899 24.7084 7.342C24.5542 7.44502 24.3729 7.5 24.1875 7.5C23.9389 7.5 23.7004 7.40123 23.5246 7.22541C23.3488 7.0496 23.25 6.81114 23.25 6.5625ZM26.6895 12.2004C26.4443 12.2414 26.2254 12.3782 26.081 12.5806C25.9366 12.783 25.8785 13.0345 25.9196 13.2797C26.0148 13.8482 26.0626 14.4236 26.0625 15C26.0648 17.5244 25.1369 19.9612 23.4563 21.8449C22.4107 20.3298 20.9405 19.1576 19.2305 18.4758C20.149 17.7523 20.8193 16.7606 21.1481 15.6386C21.4768 14.5165 21.4478 13.3199 21.065 12.2151C20.6821 11.1103 19.9645 10.1523 19.012 9.47425C18.0594 8.79621 16.9193 8.43185 15.75 8.43185C14.5808 8.43185 13.4406 8.79621 12.4881 9.47425C11.5355 10.1523 10.8179 11.1103 10.4351 12.2151C10.0523 13.3199 10.0232 14.5165 10.352 15.6386C10.6808 16.7606 11.351 17.7523 12.2696 18.4758C10.5596 19.1576 9.08936 20.3298 8.04378 21.8449C6.72509 20.3589 5.86371 18.5237 5.56321 16.5598C5.2627 14.5959 5.53588 12.5871 6.34988 10.7748C7.16388 8.96245 8.48405 7.42385 10.1517 6.34395C11.8193 5.26406 13.7633 4.68885 15.75 4.6875C16.3264 4.68741 16.9019 4.73523 17.4703 4.83047C17.7145 4.86899 17.9639 4.80956 18.1644 4.6651C18.365 4.52065 18.5003 4.30287 18.5411 4.05912C18.5819 3.81537 18.5248 3.56538 18.3822 3.36353C18.2396 3.16167 18.0231 3.02429 17.7797 2.98125C15.2338 2.55295 12.6175 2.94485 10.3088 4.10036C8.0001 5.25588 6.11835 7.11521 4.93525 9.40992C3.75215 11.7046 3.32892 14.3159 3.72668 16.8669C4.12444 19.4178 5.3226 21.7763 7.14817 23.6019C8.97374 25.4274 11.3322 26.6256 13.8832 27.0233C16.4341 27.4211 19.0454 26.9979 21.3401 25.8148C23.6348 24.6317 25.4942 22.7499 26.6497 20.4412C27.8052 18.1325 28.1971 15.5163 27.7688 12.9703C27.7277 12.7251 27.591 12.5062 27.3886 12.3618C27.1862 12.2175 26.9347 12.1594 26.6895 12.2004ZM12 14.0625C12 13.3208 12.22 12.5958 12.632 11.9791C13.0441 11.3624 13.6297 10.8818 14.315 10.598C15.0002 10.3141 15.7542 10.2399 16.4816 10.3846C17.209 10.5293 17.8772 10.8864 18.4017 11.4108C18.9261 11.9353 19.2833 12.6035 19.428 13.3309C19.5727 14.0583 19.4984 14.8123 19.2146 15.4976C18.9307 16.1828 18.4501 16.7685 17.8334 17.1805C17.2167 17.5926 16.4917 17.8125 15.75 17.8125C14.7555 17.8125 13.8016 17.4174 13.0984 16.7142C12.3951 16.0109 12 15.0571 12 14.0625ZM9.43128 23.1445C10.1095 22.0838 11.0438 21.211 12.1481 20.6063C13.2523 20.0017 14.4911 19.6848 15.75 19.6848C17.009 19.6848 18.2477 20.0017 19.352 20.6063C20.4563 21.211 21.3906 22.0838 22.0688 23.1445C20.2621 24.5496 18.0387 25.3124 15.75 25.3124C13.4613 25.3124 11.2379 24.5496 9.43128 23.1445Z"
    fill="white" />
</svg>
