<svg width="31" height="30" viewBox="0 0 31 30" fill="none" xmlns="http://www.w3.org/2000/svg">
  <path
    d="M19.9375 6.56251C19.9375 6.31387 20.0363 6.07542 20.2121 5.8996C20.3879 5.72379 20.6264 5.62501 20.875 5.62501H22.75V3.75001C22.75 3.50137 22.8488 3.26292 23.0246 3.0871C23.2004 2.91129 23.4389 2.81251 23.6875 2.81251C23.9362 2.81251 24.1746 2.91129 24.3504 3.0871C24.5263 3.26292 24.625 3.50137 24.625 3.75001V5.62501H26.5C26.7487 5.62501 26.9871 5.72379 27.1629 5.8996C27.3388 6.07542 27.4375 6.31387 27.4375 6.56251C27.4375 6.81115 27.3388 7.04961 27.1629 7.22543C26.9871 7.40124 26.7487 7.50001 26.5 7.50001H24.625V9.37501C24.625 9.62365 24.5263 9.86211 24.3504 10.0379C24.1746 10.2137 23.9362 10.3125 23.6875 10.3125C23.4389 10.3125 23.2004 10.2137 23.0246 10.0379C22.8488 9.86211 22.75 9.62365 22.75 9.37501V7.50001H20.875C20.6264 7.50001 20.3879 7.40124 20.2121 7.22543C20.0363 7.04961 19.9375 6.81115 19.9375 6.56251ZM27.2688 12.9703C27.6971 15.5163 27.3052 18.1325 26.1497 20.4412C24.9942 22.7499 23.1348 24.6317 20.8401 25.8148C18.5454 26.9979 15.9341 27.4211 13.3832 27.0234C10.8322 26.6256 8.47374 25.4274 6.64817 23.6019C4.8226 21.7763 3.62444 19.4178 3.22668 16.8669C2.82892 14.316 3.25215 11.7046 4.43525 9.40993C5.61835 7.11523 7.5001 5.25589 9.80882 4.10037C12.1175 2.94486 14.7338 2.55296 17.2797 2.98126C17.5231 3.0243 17.7396 3.16169 17.8822 3.36354C18.0248 3.5654 18.0819 3.81539 18.0411 4.05913C18.0003 4.30288 17.865 4.52067 17.6644 4.66512C17.4639 4.80957 17.2145 4.869 16.9703 4.83048C15.4916 4.58172 13.9764 4.65819 12.5302 5.05455C11.084 5.45092 9.74155 6.15766 8.59627 7.1256C7.45098 8.09354 6.53037 9.29942 5.89851 10.6593C5.26665 12.0192 4.93872 13.5005 4.93753 15C4.93531 17.5245 5.86314 19.9613 7.54378 21.8449C8.58936 20.3298 10.0596 19.1576 11.7696 18.4758C10.851 17.7523 10.1808 16.7606 9.85199 15.6386C9.52321 14.5165 9.55226 13.3199 9.93509 12.2151C10.3179 11.1103 11.0355 10.1523 11.9881 9.47426C12.9406 8.79622 14.0808 8.43186 15.25 8.43186C16.4193 8.43186 17.5594 8.79622 18.512 9.47426C19.4645 10.1523 20.1821 11.1103 20.565 12.2151C20.9478 13.3199 20.9769 14.5165 20.6481 15.6386C20.3193 16.7606 19.649 17.7523 18.7305 18.4758C20.4405 19.1576 21.9107 20.3298 22.9563 21.8449C24.6369 19.9613 25.5648 17.5245 25.5625 15C25.5626 14.4236 25.5148 13.8482 25.4196 13.2797C25.398 13.1577 25.4008 13.0327 25.4278 12.9119C25.4549 12.791 25.5056 12.6767 25.577 12.5755C25.6485 12.4744 25.7393 12.3884 25.8441 12.3225C25.949 12.2567 26.0659 12.2122 26.188 12.1918C26.3102 12.1714 26.4352 12.1753 26.5558 12.2035C26.6764 12.2316 26.7902 12.2834 26.8907 12.3558C26.9912 12.4282 27.0763 12.5197 27.1412 12.6252C27.2061 12.7307 27.2495 12.848 27.2688 12.9703ZM15.25 17.8125C15.9917 17.8125 16.7167 17.5926 17.3334 17.1805C17.9501 16.7685 18.4308 16.1828 18.7146 15.4976C18.9984 14.8124 19.0727 14.0584 18.928 13.3309C18.7833 12.6035 18.4261 11.9353 17.9017 11.4109C17.3772 10.8864 16.709 10.5293 15.9816 10.3846C15.2542 10.2399 14.5002 10.3141 13.815 10.598C13.1297 10.8818 12.5441 11.3624 12.132 11.9791C11.72 12.5958 11.5 13.3208 11.5 14.0625C11.5 15.0571 11.8951 16.0109 12.5984 16.7142C13.3016 17.4174 14.2555 17.8125 15.25 17.8125ZM15.25 25.3125C17.5391 25.3148 19.7633 24.5517 21.5688 23.1445C20.8906 22.0839 19.9563 21.211 18.852 20.6063C17.7477 20.0017 16.509 19.6848 15.25 19.6848C13.9911 19.6848 12.7523 20.0017 11.6481 20.6063C10.5438 21.211 9.60949 22.0839 8.93128 23.1445C10.7368 24.5517 12.9609 25.3148 15.25 25.3125Z"
    fill="white" />
</svg>
