<svg width="31" height="30" viewBox="0 0 31 30" fill="none" xmlns="http://www.w3.org/2000/svg">
  <path
    d="M12 12.1875C12 11.9389 12.0988 11.7004 12.2746 11.5246C12.4504 11.3488 12.6889 11.25 12.9375 11.25H20.4375C20.6861 11.25 20.9246 11.3488 21.1004 11.5246C21.2762 11.7004 21.375 11.9389 21.375 12.1875C21.375 12.4361 21.2762 12.6746 21.1004 12.8504C20.9246 13.0262 20.6861 13.125 20.4375 13.125H12.9375C12.6889 13.125 12.4504 13.0262 12.2746 12.8504C12.0988 12.6746 12 12.4361 12 12.1875ZM12.9375 16.875H20.4375C20.6861 16.875 20.9246 16.7762 21.1004 16.6004C21.2762 16.4246 21.375 16.1861 21.375 15.9375C21.375 15.6889 21.2762 15.4504 21.1004 15.2746C20.9246 15.0988 20.6861 15 20.4375 15H12.9375C12.6889 15 12.4504 15.0988 12.2746 15.2746C12.0988 15.4504 12 15.6889 12 15.9375C12 16.1861 12.0988 16.4246 12.2746 16.6004C12.4504 16.7762 12.6889 16.875 12.9375 16.875ZM27.9375 22.5C27.9375 23.4946 27.5424 24.4484 26.8391 25.1516C26.1359 25.8549 25.1821 26.25 24.1875 26.25H11.0625C10.0679 26.25 9.11411 25.8549 8.41085 25.1516C7.70759 24.4484 7.3125 23.4946 7.3125 22.5V7.5C7.3125 7.00272 7.11496 6.52581 6.76333 6.17417C6.41169 5.82254 5.93478 5.625 5.4375 5.625C4.94022 5.625 4.46331 5.82254 4.11167 6.17417C3.76004 6.52581 3.5625 7.00272 3.5625 7.5C3.5625 8.17266 4.12852 8.62734 4.13437 8.63203C4.28953 8.75143 4.40342 8.91642 4.46005 9.10383C4.51668 9.29124 4.51321 9.49168 4.45014 9.67703C4.38706 9.86237 4.26754 10.0233 4.10835 10.1373C3.94916 10.2513 3.75828 10.3125 3.5625 10.3125C3.35977 10.3128 3.16254 10.2466 3.00117 10.1238C2.86523 10.0242 1.6875 9.09492 1.6875 7.5C1.6875 6.50544 2.08259 5.55161 2.78585 4.84835C3.48911 4.14509 4.44294 3.75 5.4375 3.75H21.375C22.3696 3.75 23.3234 4.14509 24.0266 4.84835C24.7299 5.55161 25.125 6.50544 25.125 7.5V19.6875H26.0625C26.2653 19.6875 26.4627 19.7533 26.625 19.875C26.7656 19.9758 27.9375 20.9051 27.9375 22.5ZM12.0305 20.3297C12.0945 20.1406 12.2168 19.9767 12.3797 19.8613C12.5426 19.7459 12.7379 19.6851 12.9375 19.6875H23.25V7.5C23.25 7.00272 23.0525 6.52581 22.7008 6.17417C22.3492 5.82254 21.8723 5.625 21.375 5.625H8.68242C9.01399 6.19419 9.1883 6.84128 9.1875 7.5V22.5C9.1875 22.9973 9.38504 23.4742 9.73668 23.8258C10.0883 24.1775 10.5652 24.375 11.0625 24.375C11.5598 24.375 12.0367 24.1775 12.3883 23.8258C12.74 23.4742 12.9375 22.9973 12.9375 22.5C12.9375 21.8273 12.3715 21.3727 12.3656 21.368C12.2059 21.2537 12.087 21.0911 12.0267 20.9041C11.9664 20.7172 11.9677 20.5158 12.0305 20.3297ZM26.0625 22.5C26.0508 22.1527 25.9167 21.8206 25.684 21.5625H14.6684C14.7626 21.8661 14.8104 22.1821 14.8102 22.5C14.8111 23.1584 14.6376 23.8053 14.3074 24.375H24.1875C24.6848 24.375 25.1617 24.1775 25.5133 23.8258C25.865 23.4742 26.0625 22.9973 26.0625 22.5Z"
    fill="white" />
</svg>
