<svg width="16" height="16" viewBox="0 0 16 16" fill="none" xmlns="http://www.w3.org/2000/svg">
  <path
    d="M12.5003 5.49991V11.9999C12.5003 12.1325 12.4476 12.2597 12.3538 12.3535C12.2601 12.4472 12.1329 12.4999 12.0003 12.4999H5.50028C5.36767 12.4999 5.24049 12.4472 5.14672 12.3535C5.05296 12.2597 5.00028 12.1325 5.00028 11.9999C5.00028 11.8673 5.05296 11.7401 5.14672 11.6464C5.24049 11.5526 5.36767 11.4999 5.50028 11.4999H10.7934L3.64653 4.35366C3.55271 4.25984 3.5 4.13259 3.5 3.99991C3.5 3.86723 3.55271 3.73998 3.64653 3.64616C3.74035 3.55234 3.8676 3.49963 4.00028 3.49963C4.13296 3.49963 4.26021 3.55234 4.35403 3.64616L11.5003 10.793V5.49991C11.5003 5.3673 11.553 5.24013 11.6467 5.14636C11.7405 5.05259 11.8677 4.99991 12.0003 4.99991C12.1329 4.99991 12.2601 5.05259 12.3538 5.14636C12.4476 5.24013 12.5003 5.3673 12.5003 5.49991Z"
    fill="#FF1F33" />
</svg>
