<svg width="22" height="22" viewBox="0 0 22 22" fill="none" xmlns="http://www.w3.org/2000/svg">
  <path
    d="M11 0.4375C8.91094 0.4375 6.86879 1.05698 5.13179 2.2176C3.3948 3.37822 2.04098 5.02786 1.24153 6.95791C0.442077 8.88795 0.232904 11.0117 0.64046 13.0606C1.04802 15.1096 2.054 16.9916 3.53119 18.4688C5.00838 19.946 6.89044 20.952 8.93936 21.3595C10.9883 21.7671 13.1121 21.5579 15.0421 20.7585C16.9721 19.959 18.6218 18.6052 19.7824 16.8682C20.943 15.1312 21.5625 13.0891 21.5625 11C21.5595 8.19956 20.4458 5.51466 18.4656 3.53445C16.4853 1.55424 13.8004 0.440457 11 0.4375Z"
    fill="#19192A" />
  <path
    d="M15.637 11.5745C15.7894 11.4222 15.875 11.2155 15.875 11C15.875 10.7845 15.7894 10.5778 15.637 10.4255C15.4847 10.2731 15.278 10.1875 15.0625 10.1875H11.8125V6.9375C11.8125 6.72201 11.7269 6.51535 11.5745 6.36298C11.4222 6.2106 11.2155 6.125 11 6.125C10.7845 6.125 10.5778 6.2106 10.4255 6.36298C10.2731 6.51535 10.1875 6.72201 10.1875 6.9375V10.1875H6.9375C6.72201 10.1875 6.51535 10.2731 6.36298 10.4255C6.2106 10.5778 6.125 10.7845 6.125 11C6.125 11.2155 6.2106 11.4222 6.36298 11.5745C6.51535 11.7269 6.72201 11.8125 6.9375 11.8125H10.1875V15.0625C10.1875 15.278 10.2731 15.4847 10.4255 15.637C10.5778 15.7894 10.7845 15.875 11 15.875C11.2155 15.875 11.4222 15.7894 11.5745 15.637C11.7269 15.4847 11.8125 15.278 11.8125 15.0625V11.8125H15.0625C15.278 11.8125 15.4847 11.7269 15.637 11.5745Z"
    fill="#B4B4BF" />
</svg>
