<svg width="16" height="16" viewBox="0 0 16 16" fill="none" xmlns="http://www.w3.org/2000/svg">
  <path fill-rule="evenodd" clip-rule="evenodd"
    d="M14.6666 7.99967C14.6666 11.6816 11.6818 14.6663 7.99992 14.6663C4.31802 14.6663 1.33325 11.6816 1.33325 7.99967C1.33325 4.31778 4.31802 1.33301 7.99992 1.33301C11.6818 1.33301 14.6666 4.31778 14.6666 7.99967ZM10.2391 10.2388C10.0438 10.4341 9.72725 10.4341 9.53199 10.2388L7.99993 8.70674L6.46785 10.2388C6.27259 10.4341 5.95601 10.4341 5.76075 10.2388C5.56548 10.0436 5.56548 9.72697 5.76075 9.53171L7.29282 7.99963L5.76076 6.46757C5.56549 6.27231 5.56549 5.95573 5.76076 5.76046C5.95602 5.5652 6.2726 5.5652 6.46786 5.76046L7.99993 7.29253L9.53198 5.76047C9.72724 5.56521 10.0438 5.56521 10.2391 5.76047C10.4344 5.95573 10.4344 6.27232 10.2391 6.46758L8.70703 7.99963L10.2391 9.5317C10.4344 9.72696 10.4344 10.0435 10.2391 10.2388Z"
    fill="#FF4456" />
</svg>
