<svg width="16" height="16" viewBox="0 0 16 16" fill="none" xmlns="http://www.w3.org/2000/svg">
  <path fill-rule="evenodd" clip-rule="evenodd"
    d="M14.6666 7.99967C14.6666 11.6816 11.6818 14.6663 7.99992 14.6663C4.31802 14.6663 1.33325 11.6816 1.33325 7.99967C1.33325 4.31778 4.31802 1.33301 7.99992 1.33301C11.6818 1.33301 14.6666 4.31778 14.6666 7.99967Z"
    fill="#FF8000" />
  <path d="M9 8C9 8.55228 8.55228 9 8 9C7.44772 9 7 8.55228 7 8C7 7.44772 7.44772 7 8 7C8.55228 7 9 7.44772 9 8Z"
    stroke="#060613" />
  <path d="M9.00008 8H10.6667M8.00008 4V7" stroke="#060613" stroke-linecap="round" stroke-linejoin="round" />
</svg>
