<svg width="16" height="16" viewBox="0 0 16 16" fill="none" xmlns="http://www.w3.org/2000/svg">
  <path fill-rule="evenodd" clip-rule="evenodd"
    d="M8.00016 14.6663C11.6821 14.6663 14.6668 11.6816 14.6668 7.99967C14.6668 4.31778 11.6821 1.33301 8.00016 1.33301C4.31826 1.33301 1.3335 4.31778 1.3335 7.99967C1.3335 11.6816 4.31826 14.6663 8.00016 14.6663ZM11.0615 6.30667C11.231 6.08869 11.1918 5.77456 10.9738 5.60502C10.7558 5.43549 10.4417 5.47475 10.2722 5.69273L7.60082 9.1273C7.54142 9.20367 7.42969 9.21358 7.35777 9.14886L5.66798 7.62805C5.46273 7.44332 5.14658 7.45996 4.96185 7.66522C4.77712 7.87047 4.79376 8.18661 4.99902 8.37134L6.68881 9.89215C7.19223 10.3452 7.97437 10.2759 8.39018 9.74124L11.0615 6.30667Z"
    fill="#28D36C" />
</svg>
